<svg width="21" height="20" viewBox="0 0 21 20" fill="none" xmlns="http://www.w3.org/2000/svg">
<g clip-path="url(#clip0_43_32)">
<path d="M7.46721 0.657779C5.4689 1.35101 3.74556 2.66679 2.55032 4.41184C1.35508 6.1569 0.750946 8.23925 0.826651 10.353C0.902355 12.4668 1.65391 14.5006 2.97092 16.1557C4.28794 17.8108 6.10099 18.9999 8.14377 19.5484C9.7999 19.9757 11.535 19.9945 13.2 19.6031C14.7083 19.2643 16.1028 18.5396 17.2469 17.5C18.4376 16.3849 19.302 14.9663 19.7469 13.3968C20.2305 11.6901 20.3166 9.89517 19.9985 8.14997H10.6985V12.0078H16.0844C15.9768 12.6231 15.7461 13.2103 15.4062 13.7344C15.0663 14.2585 14.6242 14.7086 14.1063 15.0578C13.4486 15.4928 12.7072 15.7855 11.9297 15.9172C11.1499 16.0621 10.3501 16.0621 9.57033 15.9172C8.78 15.7538 8.03236 15.4276 7.37502 14.9593C6.319 14.2118 5.52608 13.1498 5.1094 11.925C4.68567 10.6771 4.68567 9.32435 5.1094 8.07653C5.406 7.20187 5.89632 6.40549 6.54377 5.74684C7.2847 4.97926 8.22273 4.43059 9.25495 4.16102C10.2872 3.89146 11.3737 3.91142 12.3953 4.21872C13.1934 4.4637 13.9232 4.89174 14.5266 5.46872C15.1339 4.86455 15.7401 4.25882 16.3453 3.65153C16.6578 3.32497 16.9985 3.01403 17.3063 2.67965C16.3853 1.82259 15.3042 1.15568 14.125 0.717154C11.9777 -0.0625494 9.62811 -0.0835031 7.46721 0.657779Z" fill="white"/>
<path d="M7.46721 0.657806C9.62794 -0.08398 11.9775 -0.0635778 14.125 0.715618C15.3044 1.15712 16.385 1.82724 17.3047 2.68749C16.9922 3.02187 16.6625 3.33437 16.3438 3.65937C15.7375 4.26458 15.1318 4.8677 14.5266 5.46874C13.9232 4.89177 13.1934 4.46373 12.3953 4.21874C11.374 3.91037 10.2876 3.88926 9.25505 4.15772C8.22256 4.42618 7.28395 4.97384 6.54221 5.74062C5.89476 6.39927 5.40444 7.19564 5.10784 8.07031L1.86877 5.56249C3.02816 3.26337 5.03557 1.50472 7.46721 0.657806Z" fill="#E33629"/>
<path d="M1.00936 8.04688C1.18345 7.18405 1.47249 6.34848 1.86873 5.5625L5.1078 8.07656C4.68407 9.32438 4.68407 10.6772 5.1078 11.925C4.02863 12.7583 2.94894 13.5958 1.86873 14.4375C0.876781 12.463 0.574253 10.2133 1.00936 8.04688Z" fill="#F8BD00"/>
<path d="M10.6984 8.14844H19.9984C20.3166 9.89365 20.2305 11.6885 19.7469 13.3953C19.3019 14.9648 18.4376 16.3834 17.2469 17.4984C16.2016 16.6828 15.1516 15.8734 14.1063 15.0578C14.6245 14.7082 15.0668 14.2576 15.4067 13.733C15.7467 13.2084 15.9771 12.6205 16.0844 12.0047H10.6984C10.6969 10.7203 10.6984 9.43437 10.6984 8.14844Z" fill="#587DBD"/>
<path d="M1.86719 14.4375C2.9474 13.6042 4.02708 12.7667 5.10625 11.925C5.52376 13.1504 6.31782 14.2124 7.375 14.9594C8.03439 15.4255 8.78364 15.749 9.575 15.9094C10.3548 16.0544 11.1546 16.0544 11.9344 15.9094C12.7119 15.7778 13.4533 15.4851 14.1109 15.05C15.1562 15.8657 16.2063 16.675 17.2516 17.4907C16.1076 18.5309 14.7132 19.2561 13.2047 19.5954C11.5397 19.9868 9.80457 19.968 8.14844 19.5407C6.8386 19.1909 5.61512 18.5744 4.55469 17.7297C3.43228 16.8386 2.51556 15.7156 1.86719 14.4375Z" fill="#319F43"/>
</g>
<defs>
<clipPath id="clip0_43_32">
<rect width="20" height="20" fill="white" transform="translate(0.5)"/>
</clipPath>
</defs>
</svg>
