<svg width="20" height="14" viewBox="0 0 20 14" fill="none" xmlns="http://www.w3.org/2000/svg">
<g opacity="0.4">
<path d="M19.8383 6.21891C17.7425 2.34453 14.0672 0 10 0C5.93284 0 2.25124 2.34453 0.174129 6.21891L0 6.51119L0.161692 6.8097C2.25746 10.6841 5.93284 13.0286 10 13.0286C14.0672 13.0286 17.7488 10.7152 19.8383 6.8097L20 6.51119L19.8383 6.21891ZM10 11.7537C6.49876 11.7537 3.28358 9.80099 1.41791 6.51119C3.28358 3.22139 6.49876 1.26866 10 1.26866C13.5012 1.26866 16.6791 3.22761 18.5759 6.51119C16.6791 9.80099 13.495 11.7537 10 11.7537Z" fill="white"/>
<path d="M10.1802 2.26354C9.33696 2.2697 8.51448 2.52559 7.81662 2.99891C7.11876 3.47224 6.57682 4.14175 6.25925 4.9229C5.94168 5.70404 5.86271 6.56178 6.03234 7.38777C6.20196 8.21377 6.61256 8.97097 7.21228 9.56375C7.812 10.1565 8.57393 10.5583 9.40184 10.7183C10.2298 10.8783 11.0865 10.7893 11.8639 10.4627C12.6413 10.136 13.3045 9.58632 13.7696 8.883C14.2348 8.17968 14.4811 7.35428 14.4774 6.51105C14.475 5.94976 14.3618 5.39446 14.1444 4.87699C13.9269 4.35951 13.6095 3.89003 13.2103 3.49545C12.8111 3.10087 12.338 2.78894 11.818 2.57755C11.298 2.36615 10.7415 2.25944 10.1802 2.26354ZM10.1802 9.5521C9.58455 9.54596 9.00403 9.36396 8.51152 9.02897C8.019 8.69398 7.63645 8.22093 7.41191 7.66923C7.18737 7.11753 7.13085 6.51178 7.24945 5.92806C7.36806 5.34434 7.65649 4.80869 8.07853 4.38836C8.50058 3.96804 9.03741 3.68179 9.6216 3.56557C10.2058 3.44935 10.8113 3.50834 11.3621 3.73513C11.9129 3.96193 12.3844 4.34641 12.7173 4.84028C13.0503 5.33416 13.2299 5.91542 13.2336 6.51105C13.2353 6.91192 13.1574 7.30913 13.0044 7.67965C12.8513 8.05017 12.6263 8.38663 12.3422 8.66951C12.0582 8.95239 11.7208 9.17607 11.3497 9.32757C10.9786 9.47908 10.581 9.55539 10.1802 9.5521Z" fill="white"/>
</g>
</svg>
