<svg width="27" height="26" viewBox="0 0 27 26" fill="none" xmlns="http://www.w3.org/2000/svg">
<path d="M13.9201 2.90902C13.9201 3.68363 13.9201 4.45754 13.9201 5.23215C13.9201 5.68255 13.8072 5.79062 13.354 5.81781C10.2332 6.00397 8.00006 7.51414 6.81967 10.4076C5.0829 14.6648 7.92894 19.4812 12.4901 20.1142C16.5082 20.6713 20.1937 17.8204 20.6434 13.803C20.6727 13.5444 20.6741 13.2822 20.6929 13.0222C20.7131 12.737 20.8567 12.5892 21.1398 12.5885C22.7748 12.585 24.4104 12.585 26.0454 12.5885C26.3348 12.5885 26.4923 12.7523 26.4958 13.0479C26.5021 13.5876 26.4958 14.1265 26.4979 14.6662C26.4986 14.9102 26.3675 15.049 26.1514 15.1312C25.632 15.3278 25.1153 15.5328 24.5931 15.7239C24.4251 15.7852 24.3282 15.8703 24.2787 16.0557C24.0472 16.9147 23.6958 17.7263 23.2698 18.5079C23.2182 18.602 23.2105 18.7588 23.2517 18.8585C23.4657 19.3808 23.6965 19.896 23.9329 20.4092C24.0549 20.6741 24.0137 20.8826 23.8039 21.0889C23.0537 21.8273 22.3097 22.5719 21.5707 23.3214C21.3699 23.525 21.1656 23.5564 20.9118 23.4407C20.3987 23.2057 19.8834 22.9742 19.3619 22.7595C19.2622 22.7183 19.1046 22.7218 19.0119 22.7734C18.2164 23.2106 17.3832 23.5508 16.5145 23.8116C16.4113 23.843 16.2955 23.9482 16.2537 24.0479C16.039 24.5604 15.8472 25.0826 15.6464 25.6006C15.5154 25.9388 15.4226 26.0043 15.0663 26.0043C14.0226 26.005 12.9789 25.9987 11.9351 26.0085C11.6409 26.0113 11.4645 25.8997 11.3634 25.6222C11.1738 25.1 10.9772 24.5799 10.7624 24.0675C10.7171 23.9594 10.5972 23.8423 10.4877 23.8095C9.61899 23.5494 8.78652 23.2064 7.9903 22.7713C7.89757 22.7204 7.74 22.7197 7.6396 22.7609C7.11808 22.9756 6.60284 23.2071 6.08968 23.4421C5.8359 23.5578 5.63231 23.5243 5.43151 23.3207C4.68688 22.5643 3.93598 21.8147 3.1809 21.0687C2.98637 20.877 2.95012 20.679 3.06237 20.4336C3.29663 19.9197 3.51486 19.3989 3.7554 18.8878C3.82722 18.7351 3.79863 18.6264 3.73518 18.4807C3.39285 17.6942 3.05819 16.9043 2.74444 16.1059C2.66914 15.9135 2.59314 15.7866 2.38746 15.7148C1.87919 15.5384 1.38278 15.3285 0.877293 15.1431C0.611654 15.0434 0.499402 14.8733 0.501494 14.5888C0.50986 13.5276 0.509163 12.4658 0.501494 11.4046C0.499402 11.1299 0.614443 10.9661 0.866835 10.8726C1.38766 10.6788 1.9036 10.4717 2.42581 10.2814C2.58757 10.2221 2.67332 10.1385 2.72073 9.96346C2.955 9.10519 3.29385 8.28735 3.73797 7.51623C3.81467 7.38306 3.82722 7.27778 3.75959 7.13346C3.51974 6.6224 3.30152 6.10158 3.06586 5.58843C2.94872 5.33394 2.98568 5.13105 3.18857 4.93095C3.94505 4.18632 4.69455 3.43472 5.43988 2.67964C5.63231 2.48442 5.83032 2.45095 6.07504 2.5632C6.58819 2.79747 7.10832 3.01779 7.62077 3.25554C7.76022 3.32038 7.8655 3.32526 8.00354 3.24508C8.78234 2.79607 9.60993 2.4628 10.4717 2.20832C10.5825 2.17555 10.7067 2.0626 10.752 1.95662C10.9709 1.4365 11.1703 0.908011 11.3655 0.378824C11.4645 0.113184 11.6326 -0.00603996 11.9177 0.000234985C12.4044 0.0113905 12.8917 0.00162942 13.3791 0.00372107C13.7821 0.0051155 13.9194 0.147348 13.9201 0.559403C13.9208 1.34238 13.9201 2.12535 13.9201 2.90833V2.90902ZM13.0765 0.841078C12.8039 0.841078 12.5529 0.853628 12.3033 0.836895C12.1311 0.825739 12.0613 0.89825 12.0056 1.04885C11.8194 1.55433 11.6151 2.05284 11.429 2.55763C11.353 2.7633 11.2303 2.88741 11.012 2.94109C10.0011 3.1893 9.04797 3.58184 8.15902 4.12427C7.96101 4.24559 7.77904 4.24768 7.56918 4.14937C7.08182 3.92138 6.58401 3.71501 6.09526 3.48911C5.95791 3.42566 5.87146 3.42984 5.75851 3.54488C5.19306 4.12357 4.62135 4.69599 4.04196 5.26073C3.92552 5.37438 3.92552 5.46153 3.98827 5.59749C4.21417 6.08624 4.42055 6.58405 4.64854 7.0721C4.74685 7.28197 4.74266 7.46394 4.62135 7.66195C4.0817 8.54253 3.69265 9.48796 3.44514 10.4899C3.38588 10.7276 3.2562 10.8622 3.03169 10.9444C2.53388 11.1264 2.04374 11.3279 1.54592 11.5085C1.39254 11.5643 1.33467 11.6389 1.33676 11.8076C1.34652 12.5989 1.34722 13.391 1.33676 14.183C1.33467 14.3601 1.38556 14.4452 1.5529 14.5051C2.05908 14.6878 2.55689 14.8935 3.06237 15.0789C3.27014 15.1556 3.38588 15.286 3.43956 15.5015C3.69196 16.511 4.0824 17.4648 4.62692 18.3531C4.74266 18.542 4.74894 18.7191 4.65621 18.9192C4.42752 19.4163 4.21626 19.9218 3.98479 20.4168C3.91716 20.5612 3.94086 20.6441 4.05033 20.7515C4.62762 21.3183 5.20004 21.89 5.76687 22.4673C5.87006 22.5726 5.95164 22.5852 6.08202 22.5252C6.57146 22.3007 7.06927 22.095 7.55593 21.8656C7.77416 21.7625 7.96241 21.7639 8.16948 21.8894C9.05146 22.4262 9.99689 22.8153 10.9988 23.0628C11.2261 23.1192 11.3572 23.242 11.4359 23.4581C11.6172 23.9559 11.8194 24.446 12.0007 24.9432C12.0586 25.1021 12.129 25.1725 12.3151 25.1698C13.1065 25.1572 13.8985 25.1572 14.6899 25.1698C14.8739 25.1725 14.9478 25.1049 15.0057 24.9446C15.187 24.4467 15.3892 23.9566 15.5704 23.4595C15.6492 23.2426 15.7803 23.1192 16.0076 23.0628C17.0179 22.8139 17.971 22.422 18.8592 21.8775C19.0398 21.7666 19.2099 21.7569 19.4016 21.844C19.9078 22.0741 20.4196 22.2902 20.9237 22.5238C21.0554 22.5852 21.1349 22.5712 21.2374 22.4666C21.8042 21.8894 22.376 21.3169 22.9533 20.7501C23.0627 20.6427 23.0857 20.5598 23.0181 20.4154C22.7908 19.9274 22.5886 19.4275 22.3592 18.9401C22.2553 18.7198 22.2658 18.5329 22.3913 18.3273C22.924 17.453 23.3095 16.5152 23.5557 15.5224C23.6142 15.2853 23.7397 15.1487 23.9663 15.0664C24.4718 14.8823 24.9731 14.685 25.473 14.4856C25.5434 14.4577 25.6473 14.3894 25.6508 14.335C25.6682 14.0352 25.6592 13.734 25.6592 13.4335H21.5198C21.3615 15.6019 20.5144 17.4404 18.9178 18.9053C17.3128 20.3785 15.4024 21.0917 13.2264 21.0192C9.22925 20.8861 5.99765 17.8322 5.5354 13.9578C5.32135 12.1639 5.6609 10.4689 6.60214 8.92461C8.07606 6.50666 10.2646 5.2182 13.0758 4.97139V0.841078H13.0765Z" fill="#FAFF00"/>
<path d="M19.7218 13.0275C19.7072 16.4703 16.9218 19.2376 13.4831 19.2243C10.0284 19.2118 7.25976 16.4166 7.28138 12.9647C7.30369 9.52048 10.0933 6.7609 13.5319 6.78112C16.9776 6.80134 19.7358 9.58532 19.7211 13.0268L19.7218 13.0275ZM17.7752 16.2451C19.2888 14.3996 19.422 11.1108 17.117 9.01012C14.8831 6.97494 11.4173 7.18829 9.41974 9.4912C7.47729 11.7307 7.95489 14.7984 9.24265 16.2333C9.71187 14.9023 10.6015 13.9715 11.9283 13.4207C11.3866 12.9222 11.0701 12.3428 11.0408 11.6282C11.0108 10.9024 11.2541 10.2784 11.7638 9.7652C12.6374 8.88671 14.0158 8.80026 14.9996 9.55534C15.4953 9.93672 15.8104 10.4352 15.9234 11.0502C16.0949 11.9872 15.777 12.7667 15.0916 13.4165C16.4902 14.0294 17.2962 14.9511 17.7759 16.2437L17.7752 16.2451ZM13.534 18.3898C14.7869 18.3779 15.915 17.97 16.9106 17.1801C17.0452 17.0734 17.0822 16.9709 17.0473 16.8043C16.707 15.1882 15.1885 13.9834 13.4887 13.9889C11.8 13.9945 10.2906 15.2007 9.9566 16.8043C9.92174 16.9709 9.95939 17.0741 10.0933 17.1808C11.0965 17.9756 12.233 18.3849 13.534 18.3905V18.3898ZM15.1272 11.5354C15.1362 10.6256 14.4069 9.88094 13.5054 9.87885C12.6248 9.87606 11.89 10.597 11.8774 11.4769C11.8642 12.3902 12.5795 13.1335 13.4859 13.1467C14.3735 13.16 15.1195 12.4279 15.1279 11.5361L15.1272 11.5354Z" fill="#FAFF00"/>
<path d="M19.2369 8.45902C19.1142 8.3907 18.9963 8.35095 18.912 8.27426C18.5913 7.98213 18.2824 7.67744 17.9673 7.37973C17.7323 7.15802 17.7163 6.93421 17.9436 6.70413C18.6707 5.96996 19.4021 5.23928 20.1356 4.51138C20.3489 4.29943 20.5539 4.29036 20.7784 4.49395C21.1054 4.79166 21.4255 5.09844 21.7343 5.41497C21.9665 5.65273 21.9602 5.86189 21.7273 6.09615C21.012 6.81777 20.2932 7.5366 19.5702 8.24986C19.483 8.33561 19.3589 8.38372 19.2362 8.45902H19.2369ZM19.193 7.34905C19.7535 6.78919 20.2953 6.24815 20.8154 5.72802L20.533 5.41149C19.9801 5.96578 19.4349 6.51239 18.8876 7.0611C18.9775 7.14547 19.0967 7.25842 19.193 7.34905Z" fill="#FAFF00"/>
<path d="M16.9572 6.64214C16.9398 6.64144 16.921 6.64492 16.9056 6.63865C16.3995 6.43646 15.8863 6.24821 15.392 6.02161C15.2281 5.94631 15.1849 5.74621 15.2609 5.56145C15.6667 4.57349 16.0711 3.58554 16.4845 2.60107C16.5814 2.37029 16.7815 2.27756 17.0228 2.36611C17.4704 2.52995 17.9124 2.71123 18.3482 2.90505C18.5783 3.00754 18.6563 3.21392 18.5601 3.45028C18.162 4.43126 17.7597 5.41155 17.3393 6.38347C17.2842 6.51106 17.1162 6.59054 17.0005 6.69164L16.9572 6.64283V6.64214ZM16.7418 5.65836C17.0451 4.92559 17.3379 4.21791 17.6377 3.49281C17.4495 3.41751 17.2856 3.35127 17.1078 3.28016C16.8038 4.01433 16.511 4.7227 16.2126 5.44362C16.3925 5.51683 16.5507 5.58097 16.7418 5.65836Z" fill="#FAFF00"/>
<path d="M23.1208 7.56494C23.2114 7.64233 23.3746 7.72042 23.4394 7.84801C23.6514 8.26495 23.8375 8.69652 24.0132 9.13089C24.1178 9.38886 24.0216 9.59105 23.7587 9.70121C22.8063 10.1007 21.8519 10.4967 20.8953 10.8858C20.5969 11.0071 20.4065 10.906 20.2741 10.6048C20.1102 10.2318 19.9401 9.86088 19.7658 9.49275C19.6215 9.18806 19.687 8.95868 19.9889 8.83178C20.9413 8.43088 21.8965 8.03765 22.851 7.64373C22.9144 7.61723 22.9841 7.60468 23.1208 7.56564V7.56494ZM22.8607 8.54732C22.13 8.85061 21.4147 9.14762 20.6938 9.44673C20.7837 9.63777 20.8562 9.79394 20.9364 9.96406C21.6615 9.66287 22.3706 9.36794 23.0971 9.06605C23.0127 8.88059 22.9423 8.72441 22.8614 8.54662L22.8607 8.54732Z" fill="#FAFF00"/>
</svg>
