<svg width="20" height="20" viewBox="0 0 20 20" fill="none" xmlns="http://www.w3.org/2000/svg">
<path d="M9.10841 20.0004C8.90348 19.9237 8.68501 19.8721 8.49677 19.7662C7.87523 19.4147 7.55664 18.8711 7.54256 18.1539C7.53474 17.7481 7.53474 17.7513 7.16765 17.6042C6.92675 17.5077 6.68429 17.4117 6.45434 17.2928C6.32711 17.2271 6.25202 17.2359 6.15764 17.3413C5.85157 17.6824 5.49231 17.9406 5.02667 18.0204C4.45414 18.1185 3.93167 17.9985 3.4994 17.6115C3.1172 17.2693 2.75167 16.9047 2.40857 16.5234C1.78234 15.826 1.79538 14.7536 2.46489 14.0792C2.73082 13.8116 2.80382 13.6077 2.59629 13.2832C2.47271 13.0902 2.40857 12.8555 2.33662 12.6338C2.29595 12.5081 2.24015 12.4669 2.10458 12.4628C1.84022 12.4544 1.56386 12.4565 1.31566 12.3793C0.577841 12.1493 0.116902 11.6292 0.0412947 10.8625C-0.0176267 10.271 -0.013982 9.66227 0.0553679 9.07234C0.159654 8.19031 0.921464 7.5623 1.80581 7.53935C2.26623 7.52735 2.2631 7.52631 2.43204 7.10225C2.52121 6.879 2.6088 6.65367 2.72247 6.44294C2.79391 6.31098 2.76628 6.23795 2.66616 6.14719C2.34131 5.85405 2.08894 5.5124 2.00239 5.07113C1.88089 4.45616 2.01698 3.90378 2.44299 3.44217C2.76054 3.09843 3.09217 2.76565 3.43527 2.448C4.16527 1.77148 5.24567 1.77044 5.95273 2.47355C6.20093 2.72027 6.38707 2.80216 6.69784 2.60291C6.90172 2.47251 7.14836 2.40262 7.383 2.32855C7.51649 2.28682 7.55246 2.22214 7.54464 2.09174C7.51909 1.66142 7.57801 1.24779 7.81839 0.876411C8.17296 0.329772 8.67667 0.0267167 9.32584 0.0110687C9.87074 -0.00197135 10.4219 -0.0160498 10.961 0.0486289C11.799 0.149298 12.4706 0.916569 12.4539 1.76417C12.4461 2.16685 12.5629 2.35776 12.9461 2.44591C13.1636 2.49598 13.369 2.61125 13.5697 2.71714C13.6892 2.78025 13.7606 2.77087 13.8508 2.66968C14.1558 2.32751 14.5146 2.06774 14.9792 1.98637C15.5507 1.88623 16.0752 2.00098 16.5075 2.38853C16.8944 2.7354 17.2662 3.10313 17.6113 3.4912C18.2423 4.19954 18.1927 5.26464 17.5222 5.9735C17.2302 6.28229 17.2338 6.28072 17.4033 6.6761C17.5081 6.92073 17.5931 7.1737 17.7005 7.41729C17.724 7.47049 17.8032 7.52631 17.8621 7.53205C18.0488 7.55135 18.2412 7.52892 18.4263 7.55708C19.2038 7.67549 19.7852 8.22891 19.9609 8.99931C19.9692 9.0353 19.9864 9.06921 20 9.10416V10.9005C19.9859 10.9418 19.9682 10.9824 19.9578 11.0247C19.8212 11.5792 19.5052 11.9949 19.0004 12.2656C18.6558 12.4502 18.2835 12.4857 17.9028 12.4659C17.7798 12.4596 17.7214 12.4972 17.6812 12.6203C17.6056 12.8545 17.5071 13.0814 17.4132 13.3098C17.3569 13.4475 17.2297 13.592 17.2495 13.7146C17.2693 13.8366 17.433 13.9358 17.5347 14.0442C18.2219 14.7797 18.235 15.8479 17.5514 16.585C17.2375 16.923 16.9105 17.25 16.5721 17.564C16.1002 18.0016 15.535 18.1383 14.9088 18.0042C14.5146 17.9197 14.1871 17.709 13.9254 17.4081C13.7898 17.2516 13.6782 17.2182 13.4868 17.3272C13.2632 17.4545 13.0134 17.5374 12.7709 17.6303C12.4732 17.744 12.4664 17.7398 12.4721 18.0585C12.4841 18.7642 12.2125 19.3286 11.6154 19.7062C11.4022 19.8413 11.143 19.9044 10.9047 20.0004H9.10893H9.10841ZM10.0115 1.17685C9.80973 1.17685 9.60794 1.17477 9.40667 1.17685C8.99526 1.18207 8.72099 1.45278 8.71473 1.86119C8.71056 2.13451 8.71786 2.40783 8.71212 2.68115C8.70534 2.9915 8.55048 3.20015 8.2517 3.28152C7.64007 3.44791 7.06128 3.68888 6.51065 4.00237C6.21552 4.17032 5.97984 4.13277 5.7332 3.89179C5.54705 3.71027 5.36716 3.52197 5.17997 3.34098C4.87337 3.04523 4.49429 3.04471 4.19186 3.34098C3.90821 3.61899 3.62768 3.89961 3.35028 4.18336C3.05306 4.48693 3.05306 4.86666 3.34871 5.1718C3.52965 5.35905 3.71789 5.53848 3.89934 5.72522C4.14546 5.97872 4.1783 6.21083 4.00154 6.52014C3.69442 7.05947 3.45977 7.6275 3.29448 8.2263C3.20323 8.55751 3.00092 8.7046 2.65208 8.70826C2.38563 8.71086 2.11866 8.70513 1.85221 8.71034C1.46792 8.71817 1.19261 8.99462 1.18739 9.38112C1.18218 9.7911 1.1827 10.2011 1.18739 10.6111C1.19156 11.0169 1.46948 11.2897 1.87985 11.2949C2.14629 11.2985 2.41327 11.2923 2.67972 11.297C3.00248 11.3022 3.20688 11.4545 3.29188 11.7669C3.45717 12.3725 3.69546 12.9458 4.00467 13.4913C4.17882 13.798 4.14285 14.0296 3.89361 14.2852C3.71163 14.4714 3.52339 14.6514 3.34298 14.8386C3.05567 15.137 3.0541 15.5173 3.34193 15.813C3.6235 16.102 3.90873 16.3873 4.1976 16.6689C4.49273 16.9569 4.87284 16.9569 5.17214 16.671C5.35569 16.4958 5.53141 16.3127 5.71183 16.1343C5.98245 15.8667 6.21031 15.8302 6.53568 16.0154C7.0691 16.3195 7.63172 16.5505 8.2225 16.7159C8.56612 16.8119 8.71108 17.009 8.71421 17.3705C8.71629 17.6308 8.71108 17.8911 8.71577 18.1513C8.72307 18.5467 8.99943 18.8226 9.39676 18.8268C9.79982 18.8315 10.2034 18.8305 10.6065 18.8268C11.0168 18.8232 11.2927 18.5504 11.2989 18.143C11.3031 17.8764 11.2974 17.6094 11.301 17.3423C11.3057 17.009 11.4574 16.8072 11.7807 16.718C12.3788 16.5526 12.9472 16.3189 13.4858 16.0112C13.8023 15.8307 14.0307 15.8662 14.2945 16.1254C14.4802 16.3075 14.6595 16.4968 14.8478 16.6762C15.1392 16.9537 15.5199 16.9553 15.8077 16.6762C16.1023 16.3909 16.3917 16.1009 16.6769 15.8067C16.9564 15.5183 16.9559 15.1396 16.6785 14.8465C16.495 14.653 16.301 14.4693 16.1148 14.2784C15.8682 14.0249 15.8354 13.7944 16.0126 13.484C16.3166 12.9504 16.5492 12.3882 16.7145 11.7967C16.8141 11.4404 17.007 11.2985 17.3819 11.2959C17.6358 11.2944 17.8893 11.2985 18.1432 11.2944C18.551 11.2876 18.8237 11.0127 18.8278 10.6022C18.8315 10.2053 18.831 9.80832 18.8278 9.41138C18.8247 8.98836 18.5536 8.71451 18.1338 8.70878C17.8674 8.70513 17.6004 8.71139 17.3339 8.7067C17.0133 8.70096 16.8073 8.54656 16.7223 8.23569C16.557 7.63063 16.3182 7.05686 16.009 6.51127C15.8354 6.20457 15.8719 5.97402 16.1221 5.71844C16.3041 5.53275 16.4929 5.35279 16.6722 5.1645C16.959 4.86353 16.959 4.48485 16.6712 4.18962C16.3896 3.90065 16.1044 3.61534 15.8155 3.33368C15.5199 3.04523 15.1398 3.04627 14.8415 3.33368C14.6585 3.50946 14.4828 3.69306 14.3024 3.87092C14.0312 4.13798 13.8023 4.17397 13.478 3.98828C12.9451 3.68262 12.3825 3.4526 11.7912 3.2883C11.4548 3.19493 11.3052 2.99724 11.301 2.65194C11.2979 2.38488 11.3041 2.11834 11.2989 1.85128C11.2916 1.45591 11.0148 1.18311 10.6174 1.17633C10.4156 1.17268 10.2144 1.17581 10.0126 1.17581L10.0115 1.17685Z" fill="white"/>
<path d="M14.3507 10.0054C14.3481 12.4069 12.4079 14.3483 10.0078 14.3499C7.6019 14.3514 5.65123 12.3939 5.66166 9.98928C5.67209 7.5847 7.61754 5.64799 10.0145 5.65529C12.4178 5.6626 14.3534 7.60451 14.3507 10.0054ZM13.1796 10.0101C13.1848 8.25339 11.7712 6.83203 10.014 6.82681C8.25837 6.82159 6.83749 8.23618 6.8328 9.9945C6.8281 11.7507 8.24169 13.1726 9.99838 13.1784C11.7525 13.1841 13.1749 11.7679 13.1796 10.0101Z" fill="white"/>
</svg>
