<svg width="18" height="17" viewBox="0 0 18 17" fill="none" xmlns="http://www.w3.org/2000/svg">
<path d="M0 11.6744C0 9.40041 0 7.12669 0 4.85272C0.0587925 4.68302 0.0991962 4.50399 0.179485 4.34517C0.531204 3.64979 1.11084 3.32386 1.88343 3.32256C5.24004 3.31686 8.59691 3.30909 11.9535 3.30469C13.0126 3.30339 13.7901 4.06044 13.7955 5.12527C13.8061 7.21142 13.7991 9.29756 13.7981 11.384C13.7981 11.7943 13.6829 12.1698 13.4296 12.4959C13.0465 12.9892 12.5339 13.2051 11.916 13.2061C10.3459 13.2087 8.77614 13.2183 7.2061 13.2203C7.08411 13.2203 7.00123 13.2551 6.91938 13.3457C6.02791 14.3326 5.13282 15.3163 4.23746 16.2998C4.17867 16.3643 4.11832 16.4325 4.04529 16.4775C3.87409 16.5838 3.66534 16.4957 3.61665 16.2998C3.59852 16.2273 3.598 16.149 3.598 16.0734C3.5967 15.1943 3.59748 14.3152 3.59696 13.4364C3.59696 13.3691 3.59126 13.3017 3.5879 13.2237C3.5045 13.2237 3.44079 13.2237 3.37707 13.2237C2.82644 13.2232 2.27555 13.2328 1.72518 13.2193C1.20771 13.2066 0.781137 12.9869 0.434857 12.6006C0.195543 12.3338 0.0906492 12.0086 0.000258998 11.6747L0 11.6744ZM6.90773 8.70296C8.14263 8.70296 9.37753 8.70296 10.6127 8.70296C10.6712 8.70296 10.73 8.70477 10.788 8.69959C10.9761 8.68275 11.0949 8.56642 11.0949 8.40346C11.0949 8.24101 10.9771 8.12521 10.7886 8.10526C10.7479 8.10085 10.7067 8.10189 10.6658 8.10189C8.1548 8.10189 5.64408 8.10163 3.1331 8.10266C3.06343 8.10266 2.99142 8.10551 2.92434 8.12235C2.78164 8.15785 2.70653 8.25837 2.7073 8.4032C2.70808 8.5558 2.78759 8.65866 2.94066 8.68794C3.01448 8.70218 3.09192 8.7027 3.16754 8.7027C4.4141 8.70348 5.66091 8.70322 6.90747 8.70322L6.90773 8.70296ZM6.90566 9.90589C5.6591 9.90589 4.41229 9.90589 3.16573 9.9064C3.08984 9.9064 3.01214 9.90356 2.93859 9.91858C2.79562 9.94734 2.71481 10.0432 2.7073 10.1885C2.69953 10.3342 2.7705 10.4391 2.9101 10.48C2.98702 10.5026 3.07145 10.5054 3.15278 10.5054C5.65185 10.5067 8.15118 10.5064 10.6502 10.5062C10.9486 10.5062 11.0968 10.4041 11.0952 10.2018C11.0934 9.99993 10.952 9.90615 10.6458 9.90615C9.39929 9.90615 8.15247 9.90615 6.90592 9.90615L6.90566 9.90589ZM4.94401 6.89974C5.58192 6.89974 6.21957 6.90181 6.85748 6.89844C7.06624 6.8974 7.19988 6.77305 7.19755 6.59894C7.19522 6.43313 7.06624 6.31602 6.86836 6.301C6.8334 6.2984 6.79817 6.29996 6.76295 6.29996C5.55162 6.29996 4.34054 6.29944 3.12921 6.301C3.0541 6.301 2.97511 6.30514 2.90466 6.32794C2.76636 6.3725 2.69694 6.47795 2.7073 6.62329C2.71766 6.76838 2.8008 6.86087 2.94377 6.88937C3.00619 6.90181 3.07197 6.89922 3.1362 6.89922C3.73889 6.89974 4.34158 6.89948 4.94427 6.89922L4.94401 6.89974Z" fill="white"/>
<path d="M4.19927 2.71416C4.22129 2.08977 4.0993 1.46771 4.44066 0.900315C4.76984 0.352871 5.25624 0.0626984 5.88638 0.00440449C5.96201 -0.00259078 6.03867 0.000777189 6.11482 0.00103627C9.44786 0.00880879 12.7809 0.0181357 16.1139 0.0235764C16.8811 0.0248719 17.4638 0.339918 17.806 1.03064C17.9142 1.2493 17.9868 1.51072 17.9883 1.75322C18.0023 3.89766 18.0031 6.04261 17.9935 8.18705C17.9894 9.11638 17.209 9.88897 16.2794 9.91903C16.1582 9.92291 16.0368 9.91954 15.8954 9.91954V10.131C15.8954 11.01 15.8948 11.8888 15.8959 12.7679C15.8959 12.9399 15.9106 13.1192 15.7084 13.1985C15.5089 13.2768 15.3916 13.1457 15.2748 13.0164C15.0236 12.7381 14.7749 12.4573 14.5159 12.186C14.4271 12.093 14.3976 11.9982 14.3978 11.8733C14.4007 9.64673 14.402 7.4199 14.3991 5.19308C14.3978 4.14586 13.9378 3.37508 12.9889 2.91391C12.6509 2.74966 12.2878 2.70251 11.9135 2.70328C9.42403 2.70898 6.93429 2.71105 4.4448 2.71416C4.36969 2.71416 4.29458 2.71416 4.19901 2.71416H4.19927Z" fill="white"/>
</svg>
