<svg width="18" height="20" viewBox="0 0 18 20" fill="none" xmlns="http://www.w3.org/2000/svg">
<path d="M7.86705 19.641C7.48166 19.5134 7.0713 19.4342 6.71627 19.249C5.89055 18.8177 5.39681 18.1105 5.18164 17.1926H11.2145C11.1108 17.4632 11.0389 17.7261 10.9148 17.9613C10.4272 18.8865 9.66181 19.4377 8.62629 19.6072C8.58979 19.6133 8.55483 19.6295 8.51909 19.641H7.86705Z" fill="white"/>
<path d="M8.71951 1.66392C7.91301 3.58073 7.98218 5.43182 9.10068 7.17374C10.2142 8.90798 11.8576 9.75243 13.8878 9.83199C13.9612 10.2452 14.0093 10.6576 14.1096 11.0566C14.3789 12.127 14.9341 13.0314 15.7687 13.7552C16.2436 14.1668 16.473 14.6596 16.3208 15.2857C16.169 15.9107 15.5977 16.3308 14.8792 16.3684C14.8154 16.3719 14.7512 16.3708 14.6874 16.3708C10.3487 16.3708 6.00951 16.3708 1.67074 16.3715C1.3599 16.3715 1.0602 16.3304 0.780477 16.1855C-0.119399 15.7193 -0.274248 14.5496 0.489609 13.8689C1.14857 13.2816 1.67805 12.6052 2.02348 11.7899C2.2982 11.1415 2.44843 10.4647 2.45612 9.76088C2.46495 8.97486 2.45689 8.18846 2.45996 7.40206C2.46995 4.75073 4.16289 2.53488 6.71728 1.82958C7.36433 1.65085 8.02367 1.6078 8.71913 1.66392H8.71951Z" fill="white"/>
<path d="M13.9042 8.18C11.638 8.17309 9.81558 6.33891 9.82327 4.07271C9.83057 1.82151 11.6699 -0.00575182 13.9223 1.3606e-05C16.1873 0.00577903 18.0113 1.84457 17.9998 4.11C17.9886 6.37197 16.162 8.18692 13.9042 8.18Z" fill="#FF0000"/>
</svg>
