<svg width="22" height="24" viewBox="0 0 22 24" fill="none" xmlns="http://www.w3.org/2000/svg">
<path d="M8.14738 2.35116C8.82868 1.88511 9.59802 1.62379 10.4458 1.53709L12.8265 1.88692C14.6441 2.64352 15.7235 3.97934 16.0621 5.94138L16.0621 5.9414C16.4328 8.08915 15.3843 10.2805 13.4604 11.3216L13.4603 11.3217C12.4881 11.8479 11.5516 12.067 10.6549 12.0158C9.7583 11.9646 8.85282 11.6403 7.94656 11.0042C6.53446 10.0125 5.80155 8.62065 5.76922 6.87793L5.76922 6.87784C5.73311 4.94395 6.54222 3.44925 8.14738 2.35116ZM8.14738 2.35116L7.72411 1.73239L8.14738 2.35116ZM10.4463 1.53705C10.5099 1.53057 10.5649 1.51849 10.6042 1.5083H11.3006C11.4709 1.5479 11.653 1.58486 11.8205 1.61882C11.9236 1.63975 12.0212 1.65954 12.1069 1.67812C12.3837 1.7381 12.6182 1.80036 12.8262 1.88681L10.4463 1.53705Z" stroke="white" stroke-width="1.5"/>
<path d="M4.32671 20.8891L4.32681 20.8892C6.2492 22.3348 8.42637 23.0579 11.2059 23.094L11.2774 23.0942C12.5704 23.097 14.149 22.7511 15.8173 21.9356C17.6263 21.0509 19.0664 19.7212 20.1908 18.0151L20.1908 18.015C20.3053 17.8414 20.3701 17.7398 20.4094 17.6675C20.3683 17.5851 20.3031 17.4752 20.1872 17.2811L20.1872 17.281C19.22 15.6595 17.8723 14.5892 16.0771 14.0849L16.077 14.0849C15.7648 13.9971 15.5291 13.9646 15.3281 13.9821C15.1422 13.9982 14.9501 14.06 14.7275 14.2251L14.7274 14.2251C13.6859 14.9974 12.4666 15.2933 11.2691 15.3439L4.32671 20.8891ZM4.32671 20.8891C3.17999 20.0271 2.22295 18.9813 1.47865 17.7475M4.32671 20.8891L1.47865 17.7475M6.88988 14.0611L6.88945 14.0608C6.7031 13.9283 6.60832 13.922 6.51815 13.9413L6.88988 14.0611ZM6.88988 14.0611C8.20251 14.9927 9.67789 15.4116 11.2688 15.3439L6.88988 14.0611ZM1.47865 17.7475C2.42311 15.7983 3.90902 14.5721 5.99714 14.0451C6.09579 14.0204 6.15934 14.0092 6.23879 13.9953C6.30829 13.9831 6.38997 13.9687 6.51797 13.9413L1.47865 17.7475ZM1.44607 17.8155L1.44612 17.8154L1.44607 17.8155Z" stroke="white" stroke-width="1.5"/>
</svg>
