<svg width="24" height="28" viewBox="0 0 24 28" fill="none" xmlns="http://www.w3.org/2000/svg">
<path d="M4.08616 11.3801C4.08616 11.2702 4.08616 11.1651 4.08616 11.0601C4.08616 9.56077 4.08407 8.06144 4.08756 6.5628C4.08896 6.07007 4.34681 5.7719 4.7563 5.76837C5.11269 5.76485 5.40268 6.02566 5.43622 6.38446C5.44461 6.47328 5.44112 6.5628 5.44112 6.65233C5.44112 11.98 5.44112 17.3077 5.44112 22.6354C5.44112 23.2162 5.20492 23.5355 4.77237 23.5419C4.33493 23.5482 4.08616 23.2162 4.08616 22.6234C4.08616 19.464 4.08616 16.3053 4.08616 13.1459V12.7956C3.12393 13.019 2.48243 13.5618 2.16099 14.4549C2.05477 14.7503 2.00586 15.0823 2.00446 15.3974C1.99258 18.2354 1.99258 21.0733 1.99957 23.9106C2.00377 25.4501 3.10716 26.5518 4.63751 26.5525C9.7324 26.5554 14.8266 26.5554 19.9215 26.5525C21.4686 26.5518 22.5692 25.4522 22.5706 23.8936C22.5748 17.5932 22.5755 11.2927 22.5706 4.99298C22.5692 3.44782 21.4686 2.34323 19.9417 2.34182C15.988 2.3383 12.0342 2.34253 8.08046 2.339C7.32506 2.3383 6.68427 2.59206 6.1469 3.12991C5.88904 3.3879 5.59974 3.43302 5.32372 3.28992C5.07425 3.16022 4.90235 2.87967 4.97084 2.60405C5.01486 2.425 5.12108 2.23891 5.25175 2.1085C6.03999 1.31971 7.00222 0.960205 8.10491 0.960205C12.0412 0.961615 15.9768 0.957385 19.9131 0.966549C20.2723 0.967254 20.6405 1.00814 20.9878 1.09625C22.6985 1.53188 23.8759 3.03475 23.9186 4.81393C23.9318 5.36658 23.9235 5.92063 23.9235 6.47399C23.9235 12.2747 23.927 18.0753 23.9214 23.8753C23.92 25.608 23.1212 26.8486 21.5783 27.5965C21.0773 27.839 20.5343 27.9292 19.9809 27.9299C14.851 27.9313 9.72122 27.937 4.59069 27.9278C2.36574 27.9243 0.659287 26.1994 0.650901 23.9557C0.640419 21.0825 0.641817 18.2086 0.650901 15.3354C0.65719 13.3701 1.96603 11.8073 3.88911 11.4351C3.9485 11.4238 4.0065 11.4027 4.08686 11.3801H4.08616Z" fill="#FAFF00"/>
<path d="M12.9238 10.1202C12.9238 10.6552 12.9279 11.1902 12.9224 11.7259C12.9154 12.4344 12.4283 12.9489 11.7267 12.9588C10.6925 12.9729 9.6583 12.9722 8.62409 12.9588C7.94276 12.9497 7.45012 12.4647 7.43894 11.7753C7.42077 10.6693 7.42007 9.56328 7.43894 8.45728C7.45082 7.76365 7.96793 7.27586 8.65484 7.27163C9.67158 7.26528 10.6883 7.26458 11.7051 7.27163C12.4094 7.27656 12.9161 7.7989 12.9224 8.51508C12.9272 9.05011 12.9231 9.58513 12.9231 10.1209L12.9238 10.1202ZM11.5478 8.65888H8.80088V11.585H11.5478V8.65888Z" fill="#FAFF00"/>
<path d="M14.0136 21.621C12.0765 21.621 10.1402 21.6225 8.2031 21.6203C7.72163 21.6203 7.41766 21.3264 7.43932 20.8957C7.45469 20.5855 7.66154 20.336 7.96481 20.274C8.06753 20.2528 8.17515 20.2479 8.28067 20.2479C12.101 20.2465 15.9213 20.2465 19.7422 20.2479C20.2496 20.2479 20.5452 20.477 20.571 20.8816C20.5983 21.3067 20.3027 21.6168 19.8506 21.6203C19.1518 21.626 18.453 21.6217 17.7549 21.6217C16.5082 21.6217 15.2609 21.6217 14.0142 21.6217L14.0136 21.621Z" fill="#FAFF00"/>
<path d="M13.9888 17.29C12.0609 17.29 10.1336 17.2907 8.20564 17.2893C7.73815 17.2893 7.44606 17.0313 7.43767 16.6245C7.42999 16.2608 7.68085 15.9725 8.04073 15.9358C8.13716 15.926 8.235 15.9274 8.33213 15.9274C12.1077 15.9274 15.884 15.9274 19.6595 15.9274C19.7658 15.9274 19.8727 15.9253 19.9775 15.9373C20.3367 15.976 20.5826 16.2664 20.5722 16.633C20.5624 16.9805 20.3052 17.2681 19.9572 17.2829C19.5512 17.2998 19.1438 17.2907 18.7371 17.2907C17.1544 17.2907 15.5716 17.2907 13.9888 17.2907V17.29Z" fill="#FAFF00"/>
<path d="M17.8279 7.27011C18.5092 7.27011 19.1899 7.2687 19.8712 7.27011C20.1626 7.27082 20.3855 7.3977 20.5106 7.66627C20.6252 7.91228 20.621 8.18226 20.4274 8.36413C20.2793 8.50299 20.0501 8.62776 19.8544 8.63129C18.5106 8.65384 17.1662 8.6482 15.8217 8.64045C15.3675 8.63763 15.0831 8.3465 15.0935 7.93343C15.1033 7.54009 15.3982 7.27364 15.8391 7.27082C16.5023 7.26729 17.1662 7.27011 17.8293 7.27011H17.8279Z" fill="#FAFF00"/>
<path d="M17.8459 11.6031C18.5356 11.6031 19.2253 11.5975 19.915 11.6052C20.2399 11.6088 20.502 11.8364 20.5614 12.136C20.6264 12.461 20.4691 12.7803 20.17 12.903C20.0743 12.9417 19.9646 12.9608 19.8612 12.9615C18.5083 12.965 17.1555 12.9671 15.8026 12.9615C15.4211 12.9601 15.1499 12.7324 15.0989 12.4025C15.0465 12.0627 15.2247 11.7469 15.544 11.6426C15.6503 11.608 15.7698 11.6038 15.883 11.6031C16.537 11.5996 17.1918 11.6017 17.8459 11.6017V11.6038V11.6031Z" fill="#FAFF00"/>
</svg>
