<svg width="20" height="20" viewBox="0 0 20 20" fill="none" xmlns="http://www.w3.org/2000/svg">
<path d="M7.12032 0H8.1742C8.22387 0.0113443 8.27314 0.0289465 8.32358 0.0332495C9.22691 0.107965 10.0951 0.327417 10.9026 0.736202C13.4949 2.04783 14.957 4.14848 15.2452 7.04831C15.264 7.23764 15.3254 7.31744 15.5084 7.38003C17.6811 8.12289 19.0982 9.60507 19.7572 11.8016C19.8776 12.2025 19.921 12.627 20 13.0404V14.0164C19.9883 14.0665 19.9711 14.1162 19.9664 14.167C19.8815 15.0597 19.6113 15.8929 19.1854 16.6804C19.1397 16.7645 19.1276 16.892 19.1526 16.9851C19.3982 17.9009 19.6551 18.8135 19.9081 19.7269C19.9273 19.7965 19.9421 19.8677 19.964 19.9585C18.9782 19.6862 18.0268 19.4261 17.0777 19.1577C16.9138 19.1116 16.7812 19.1124 16.6225 19.2012C15.7696 19.6788 14.8471 19.9323 13.873 19.982C10.9346 20.1322 8.25554 18.2643 7.38115 15.456C7.33501 15.3081 7.274 15.2522 7.11758 15.242C5.98549 15.1677 4.92143 14.8543 3.93364 14.2953C3.81437 14.2281 3.7123 14.2202 3.58677 14.2554C2.73663 14.4941 1.8857 14.7288 1.03477 14.9639C0.714109 15.0527 0.393056 15.1399 0.052841 15.233C0.0661367 15.1735 0.0708299 15.1485 0.0778688 15.1243C0.393057 13.9851 0.711371 12.8472 1.01913 11.7061C1.04611 11.6064 1.04181 11.4698 0.993714 11.3822C0.0524522 9.65397 -0.258043 7.81933 0.226079 5.91349C0.99606 2.88144 2.93998 0.974434 5.97297 0.195591C6.3476 0.0993602 6.73787 0.0641498 7.1211 0.000778352L7.12032 0ZM1.72576 13.5576C2.42066 13.3651 3.07841 13.1883 3.73224 12.9978C3.89023 12.9516 4.00872 12.972 4.14793 13.06C5.62063 13.9945 7.22043 14.304 8.92854 13.964C12.4128 13.2708 14.6731 9.85504 13.9813 6.35553C13.0631 1.71064 7.51645 -0.390402 3.75375 2.48165C1.07036 4.52988 0.395403 8.20386 2.18446 11.0712C2.30256 11.2606 2.32524 11.4182 2.2615 11.6302C2.07301 12.2565 1.90916 12.8906 1.72576 13.5576ZM18.2915 18.2811C18.1632 17.8148 18.0616 17.3845 17.9231 16.9659C17.8441 16.7269 17.8805 16.5489 18.0138 16.3373C19.7791 13.5318 18.5539 9.81553 15.4716 8.60169C15.3969 8.57235 15.3191 8.55006 15.2628 8.53089C14.5394 12.307 12.3104 14.534 8.55196 15.2494C8.55196 15.2455 8.54805 15.258 8.55118 15.2686C8.56448 15.312 8.57855 15.3551 8.59459 15.3977C8.89882 16.2035 9.37121 16.8959 10.0161 17.4655C11.8341 19.0717 14.3825 19.2677 16.427 17.9552C16.5865 17.8528 16.7214 17.8359 16.8962 17.8883C17.3475 18.0245 17.8038 18.1446 18.2915 18.2803V18.2811Z" fill="white"/>
<path d="M6.46456 5.84656H5.31643C5.30196 5.3564 5.44431 4.91828 5.72195 4.53179C6.25887 3.78425 6.99913 3.42475 7.9138 3.53506C8.884 3.65242 9.55896 4.20203 9.86515 5.13226C10.1608 6.03119 9.94844 6.84289 9.28874 7.52081C8.98998 7.82789 8.65562 8.10054 8.34708 8.39863C8.28608 8.45769 8.24307 8.56136 8.23837 8.64702C8.22391 8.8923 8.23329 9.13913 8.23329 9.39692H7.0617C7.0617 9.14226 7.08947 8.88134 7.05584 8.62864C6.99288 8.15688 7.15164 7.82007 7.53409 7.5349C7.87626 7.27985 8.17932 6.96886 8.48395 6.66725C8.83512 6.31988 8.91333 5.79061 8.70177 5.35014C8.4906 4.91046 8.0229 4.64446 7.53878 4.68866C7.05701 4.73286 6.64718 5.07867 6.51931 5.55395C6.49428 5.64666 6.48333 5.74328 6.46456 5.84616V5.84656Z" fill="white"/>
<path d="M8.22147 10.5881V11.7437H7.07373V10.5881H8.22147Z" fill="white"/>
</svg>
