<svg width="15" height="15" viewBox="0 0 15 15" fill="none" xmlns="http://www.w3.org/2000/svg">
<path d="M10.2326 0.175049C10.4856 0.220709 10.7424 0.25115 10.9936 0.31203C12.9132 0.770537 14.3534 2.36104 14.6274 4.31302C14.9812 6.83196 13.2975 9.2101 10.8147 9.69715C9.9529 9.86647 9.10247 9.8132 8.27297 9.5126C8.19307 9.48407 8.1417 9.49738 8.08082 9.55826C7.75739 9.8893 7.42635 10.2127 7.10102 10.5438C6.99638 10.6503 6.87843 10.7017 6.73003 10.6979C6.50934 10.6941 6.28674 10.6979 6.04512 10.6979C6.04512 10.9167 6.04512 11.1221 6.04512 11.3295C6.04512 11.6929 5.93668 11.7994 5.5733 11.7994C5.50481 11.7994 5.43822 11.7994 5.35261 11.7994C5.35261 11.9174 5.35451 12.0182 5.35261 12.1191C5.345 12.3569 5.21753 12.4862 4.97971 12.49C4.70765 12.4938 4.43559 12.49 4.14831 12.49C4.14831 12.7583 4.14261 13.0113 4.14831 13.2644C4.15212 13.4242 4.09885 13.5478 3.9847 13.6582C3.78303 13.8503 3.58897 14.0482 3.39492 14.2461C3.29599 14.3488 3.18183 14.3983 3.03724 14.3983C2.38468 14.3945 1.73212 14.3983 1.07955 14.3983C0.8132 14.3983 0.676219 14.2632 0.676219 13.9987C0.676219 13.194 0.676219 12.3873 0.674316 11.5825C0.674316 11.4303 0.740904 11.3219 0.84364 11.2192C2.31429 9.75042 3.78303 8.27977 5.25558 6.81293C5.3469 6.72351 5.36402 6.65312 5.32217 6.52946C4.38613 3.8374 6.028 0.930348 8.84373 0.2892C9.06252 0.239734 9.28892 0.213099 9.51151 0.175049C9.75313 0.175049 9.99285 0.175049 10.2345 0.175049H10.2326ZM5.33168 11.086C5.33739 11.0689 5.34309 11.0594 5.34309 11.0517C5.34309 10.8387 5.34309 10.6256 5.345 10.4125C5.345 10.1271 5.47627 9.99584 5.75975 9.99204C6.01849 9.99014 6.27913 9.99774 6.53788 9.98823C6.60637 9.98633 6.69008 9.95018 6.73954 9.90262C7.0858 9.56778 7.42635 9.22913 7.76119 8.88287C7.92101 8.71735 8.08272 8.68311 8.2977 8.77252C8.99593 9.06361 9.72079 9.14732 10.4723 9.04268C12.7819 8.71925 14.3801 6.43243 13.8911 4.1437C13.4174 1.92536 11.2713 0.5156 9.04349 0.958887C6.5588 1.45354 5.10338 4.15321 6.05464 6.50092C6.18401 6.81864 6.17069 6.88333 5.92907 7.12495C4.4432 8.61081 2.95734 10.0967 1.47147 11.5844C1.43342 11.6225 1.38015 11.6682 1.37825 11.7138C1.36683 11.9003 1.37444 12.0867 1.37444 12.2732L1.42962 12.3074C1.46006 12.2598 1.48098 12.2066 1.51903 12.1685C2.71952 10.9661 3.92001 9.76564 5.1224 8.56325C5.16235 8.5233 5.20041 8.48334 5.24416 8.4491C5.36783 8.35397 5.53905 8.36158 5.6513 8.46812C5.76355 8.57276 5.78258 8.74589 5.69316 8.87336C5.65891 8.92282 5.61515 8.96468 5.5714 9.00654C4.20729 10.3725 2.84128 11.7366 1.47718 13.1027C1.43723 13.1426 1.38396 13.194 1.37825 13.2434C1.36493 13.3899 1.37444 13.5364 1.37444 13.6981C1.7169 13.6981 2.04413 13.6981 2.37136 13.6981C2.56161 13.6981 2.7747 13.7495 2.93451 13.6791C3.10573 13.6049 3.2313 13.4223 3.36638 13.2758C3.41014 13.2282 3.44248 13.1502 3.44438 13.0855C3.45199 12.7811 3.44438 12.4748 3.44819 12.1685C3.45009 11.9288 3.58707 11.7937 3.82869 11.788C3.90289 11.788 3.97709 11.788 4.05129 11.788C4.24915 11.788 4.44511 11.788 4.63916 11.788C4.67848 11.358 4.90869 11.1234 5.32978 11.0841L5.33168 11.086Z" fill="#FF00E5"/>
<path d="M12.647 3.52547C12.6432 4.24272 12.0515 4.8306 11.3343 4.83251C10.6132 4.83251 10.0139 4.23321 10.0216 3.51406C10.0273 2.79491 10.617 2.20703 11.3343 2.20703C12.0573 2.20703 12.6508 2.80442 12.647 3.52547ZM11.34 4.12858C11.6767 4.12667 11.9488 3.85081 11.9469 3.51787C11.945 3.18493 11.6691 2.90906 11.3362 2.90906C10.9956 2.90906 10.7217 3.18683 10.7274 3.52928C10.7312 3.86793 11.0014 4.13238 11.3419 4.12858H11.34Z" fill="#FF00E5"/>
</svg>
