<svg width="22" height="21" viewBox="0 0 22 21" fill="none" xmlns="http://www.w3.org/2000/svg">
<path d="M7.99697 0.301147H9.07575C9.12658 0.312857 9.17702 0.331027 9.22865 0.335469C10.1533 0.412592 11.042 0.639117 11.8685 1.06108C14.522 2.41498 16.0187 4.58334 16.3137 7.57663C16.3329 7.77206 16.3958 7.85444 16.5831 7.91904C18.8071 8.68584 20.2578 10.2158 20.9322 12.4831C21.0555 12.897 21.1 13.3351 21.1808 13.7619V14.7693C21.1688 14.821 21.1512 14.8723 21.1464 14.9248C21.0595 15.8462 20.7829 16.7063 20.347 17.5191C20.3002 17.606 20.2878 17.7376 20.3134 17.8337C20.5648 18.779 20.8278 19.721 21.0868 20.6639C21.1064 20.7357 21.1216 20.8092 21.144 20.9029C20.1349 20.6219 19.161 20.3533 18.1895 20.0763C18.0218 20.0287 17.8861 20.0295 17.7235 20.1212C16.8505 20.6142 15.9062 20.8759 14.9091 20.9271C11.9014 21.0822 9.159 19.1541 8.26396 16.2553C8.21673 16.1027 8.15428 16.0449 7.99417 16.0344C6.83534 15.9577 5.74616 15.6343 4.73503 15.0572C4.61294 14.9878 4.50847 14.9797 4.37998 15.0161C3.50975 15.2624 2.63873 15.5046 1.7677 15.7473C1.43947 15.839 1.11083 15.929 0.762585 16.0251C0.776195 15.9637 0.780999 15.9379 0.788204 15.9129C1.11084 14.737 1.43667 13.5624 1.75169 12.3846C1.77931 12.2816 1.77491 12.1407 1.72568 12.0502C0.762187 10.2663 0.444359 8.3725 0.939914 6.40523C1.72808 3.27546 3.7179 1.30699 6.82253 0.503042C7.206 0.40371 7.60549 0.367365 7.99777 0.301951L7.99697 0.301147ZM2.47501 14.2957C3.18632 14.097 3.8596 13.9145 4.52888 13.7179C4.6906 13.6702 4.81189 13.6912 4.95439 13.7821C6.46187 14.7467 8.09944 15.0661 9.8479 14.7152C13.4145 13.9997 15.7281 10.4738 15.02 6.86152C14.0801 2.06692 8.40246 -0.101837 4.5509 2.86279C1.80413 4.97703 1.11324 8.76942 2.94455 11.7292C3.06544 11.9246 3.08865 12.0874 3.0234 12.3062C2.83047 12.9527 2.66275 13.6072 2.47501 14.2957ZM19.432 19.1715C19.3007 18.6901 19.1966 18.246 19.0549 17.8139C18.974 17.5672 19.0113 17.3835 19.1478 17.165C20.9547 14.269 19.7006 10.433 16.5455 9.18008C16.469 9.14979 16.3894 9.12678 16.3317 9.10699C15.5912 13.0048 13.3096 15.3036 9.46242 16.0421C9.46242 16.038 9.45842 16.051 9.46162 16.0619C9.47523 16.1067 9.48964 16.1511 9.50605 16.1951C9.81748 17.0269 10.301 17.7416 10.9611 18.3296C12.822 19.9875 15.4307 20.1898 17.5234 18.8351C17.6867 18.7293 17.8248 18.7119 18.0037 18.766C18.4657 18.9066 18.9328 19.0305 19.432 19.1706V19.1715Z" fill="white"/>
<path d="M7.32593 6.33612H6.15069C6.13587 5.83017 6.28158 5.37792 6.56578 4.97898C7.11538 4.20734 7.87312 3.83625 8.80939 3.95012C9.8025 4.07126 10.4934 4.63858 10.8068 5.5988C11.1094 6.5267 10.8921 7.36457 10.2168 8.06433C9.91098 8.38131 9.56874 8.66275 9.25291 8.97044C9.19046 9.03141 9.14644 9.13842 9.14163 9.22685C9.12682 9.48002 9.13643 9.73482 9.13643 10.0009H7.93717C7.93717 9.73805 7.96559 9.46872 7.93117 9.20787C7.86672 8.7209 8.02924 8.37324 8.42072 8.07887C8.77097 7.8156 9.08119 7.49459 9.39301 7.18327C9.75247 6.8247 9.83253 6.27837 9.61597 5.8237C9.39982 5.36984 8.92107 5.09527 8.42552 5.1409C7.93237 5.18653 7.51286 5.54348 7.38197 6.03408C7.35635 6.12978 7.34514 6.22951 7.32593 6.33571V6.33612Z" fill="white"/>
<path d="M9.12406 11.2305V12.4233H7.94922V11.2305H9.12406Z" fill="white"/>
</svg>
