<svg width="22" height="22" viewBox="0 0 22 22" fill="none" xmlns="http://www.w3.org/2000/svg">
<path d="M21.1809 11.4493C21.1365 11.5673 21.104 11.6918 21.0463 11.8033C20.8027 12.2748 20.4085 12.5237 19.8861 12.5253C17.6213 12.5318 15.3566 12.5345 13.0918 12.5248C12.3242 12.5216 11.7976 11.952 11.796 11.1589C11.7928 9.17657 11.7949 7.19425 11.7949 5.21248C11.7949 4.16447 11.7949 3.11593 11.7949 2.06793C11.7949 1.13577 12.0192 0.802783 12.8642 0.479492C15.2764 0.479492 17.6886 0.479492 20.1014 0.479492C20.2862 0.563009 20.4833 0.626051 20.6526 0.733815C20.9517 0.925095 21.089 1.23545 21.1809 1.56844V11.4498V11.4493ZM12.6543 6.48948C12.6543 8.02834 12.6543 9.56721 12.6543 11.1066C12.6543 11.5264 12.7879 11.6605 13.2045 11.6611C15.3897 11.6611 17.5749 11.6611 19.76 11.6611C20.1964 11.6611 20.3305 11.5242 20.3305 11.0802C20.3305 8.02888 20.3305 4.97809 20.3305 1.92676C20.3305 1.479 20.1884 1.33621 19.7435 1.33621C17.5716 1.33621 15.3998 1.33621 13.228 1.33621C12.7884 1.33621 12.6543 1.47092 12.6543 1.91329C12.6543 3.43868 12.6543 4.96462 12.6543 6.49001V6.48948Z" fill="white" fill-opacity="0.8"/>
<path d="M9.02582 0.478811C9.19995 0.558017 9.38957 0.614055 9.54554 0.720202C9.91357 0.970753 10.0909 1.34092 10.0925 1.78437C10.0978 3.20847 10.1027 4.63256 10.0914 6.05666C10.0856 6.80831 9.54234 7.35791 8.79774 7.36114C6.5335 7.3703 4.26927 7.3703 2.00503 7.36114C1.24334 7.35791 0.711332 6.79053 0.70973 6.01787C0.707593 4.63418 0.708661 3.24996 0.70973 1.86627C0.70973 1.16149 1.03074 0.726128 1.7027 0.512217C1.71979 0.506829 1.73368 0.489587 1.74864 0.478271C4.17419 0.478271 6.59974 0.478271 9.02529 0.478271L9.02582 0.478811ZM5.39738 6.49849C6.49665 6.49849 7.59592 6.49903 8.69465 6.49849C9.09847 6.49849 9.23467 6.36109 9.23467 5.95429C9.23574 4.60347 9.2352 3.25265 9.23467 1.90237C9.23467 1.4767 9.09473 1.33661 8.66955 1.33661C6.49131 1.33661 4.31306 1.33661 2.13429 1.33661C1.70377 1.33661 1.55794 1.48317 1.55794 1.91692C1.55794 3.25427 1.55794 4.59161 1.55794 5.92896C1.55794 6.35732 1.69736 6.49849 2.1188 6.49903C3.21112 6.49957 4.30399 6.49903 5.39631 6.49903L5.39738 6.49849Z" fill="white" fill-opacity="0.8"/>
<path d="M21.1808 20.0404C21.1578 20.1093 21.1348 20.1788 21.1113 20.2478C20.9377 20.7634 20.4757 21.1245 19.9383 21.1261C17.641 21.132 15.3436 21.1331 13.0468 21.1261C12.362 21.1239 11.8097 20.5727 11.8012 19.8598C11.7846 18.4093 11.7825 16.9583 11.8022 15.5073C11.8124 14.7545 12.3823 14.2454 13.1542 14.2437C14.7657 14.2405 16.3772 14.2427 17.9882 14.2427C18.5939 14.2427 19.2002 14.241 19.8059 14.2427C20.5072 14.2448 20.9553 14.5891 21.1503 15.2702C21.1556 15.2885 21.1701 15.3041 21.1802 15.3214V20.0404H21.1808ZM16.5033 15.1096C15.404 15.1096 14.3047 15.1096 13.206 15.1096C12.7877 15.1096 12.6547 15.2427 12.6547 15.6624C12.6542 17.0133 12.6542 18.3641 12.6547 19.7144C12.6547 20.1287 12.7963 20.2715 13.2081 20.2715C15.3933 20.272 17.578 20.2715 19.7631 20.2715C20.1803 20.2715 20.3309 20.1206 20.3309 19.702C20.3315 18.3582 20.3315 17.0138 20.3309 15.67C20.3309 15.2524 20.191 15.1096 19.7813 15.1091C18.689 15.108 17.5961 15.1091 16.5038 15.1091L16.5033 15.1096Z" fill="white" fill-opacity="0.8"/>
<path d="M0.709222 15.1126C0.709222 13.5668 0.708688 12.0214 0.709222 10.4756C0.709222 9.61938 1.24336 9.0811 2.09639 9.08056C4.30134 9.07894 6.50629 9.07894 8.71124 9.08056C9.55839 9.0811 10.0936 9.62423 10.0941 10.4831C10.0952 13.5678 10.0957 16.652 10.0941 19.7368C10.0941 20.593 9.55572 21.1291 8.70376 21.1291C6.49881 21.1296 4.29387 21.1296 2.08892 21.1291C1.23963 21.1291 0.709756 20.5903 0.709222 19.7292C0.708688 18.1904 0.709222 16.6515 0.709222 15.1126ZM9.23576 15.1229C9.23576 13.5905 9.23576 12.0581 9.23576 10.5262C9.23576 10.0758 9.11078 9.94805 8.66958 9.94805C6.4908 9.94805 4.31256 9.94805 2.13378 9.94805C1.69418 9.94805 1.55958 10.0828 1.55958 10.5246C1.55958 13.5759 1.55958 16.6267 1.55958 19.678C1.55958 20.1285 1.70113 20.2729 2.1418 20.2734C4.31363 20.2734 6.48546 20.2734 8.65729 20.2734C9.10597 20.2734 9.23576 20.1403 9.23576 19.6802C9.23576 18.1613 9.23576 16.6423 9.23576 15.1234V15.1229Z" fill="white" fill-opacity="0.8"/>
</svg>
