<svg width="22" height="22" viewBox="0 0 22 22" fill="none" xmlns="http://www.w3.org/2000/svg">
<path d="M10.032 21.3694C9.82225 21.2903 9.59861 21.237 9.40593 21.1277C8.76971 20.7648 8.4436 20.2037 8.42918 19.4634C8.42118 19.0445 8.42117 19.0478 8.04542 18.8959C7.79883 18.7963 7.55064 18.6973 7.31526 18.5745C7.18503 18.5067 7.10817 18.5158 7.01156 18.6246C6.69825 18.9767 6.33051 19.2432 5.85388 19.3256C5.26783 19.4268 4.73302 19.303 4.29054 18.9035C3.89931 18.5503 3.52515 18.1739 3.17395 17.7803C2.53293 17.0605 2.54627 15.9535 3.2316 15.2573C3.50381 14.9811 3.57853 14.7706 3.3661 14.4357C3.23961 14.2365 3.17395 13.9942 3.1003 13.7654C3.05866 13.6356 3.00156 13.5931 2.86278 13.5888C2.59217 13.5802 2.30929 13.5823 2.05523 13.5026C1.29998 13.2652 0.828159 12.7284 0.750766 11.9369C0.690453 11.3264 0.694184 10.6981 0.765172 10.0891C0.87192 9.17865 1.65172 8.5304 2.55695 8.50671C3.02824 8.49433 3.02504 8.49325 3.19797 8.05552C3.28924 7.82508 3.37891 7.59249 3.49527 7.37497C3.56839 7.23875 3.5401 7.16337 3.43762 7.06969C3.1051 6.7671 2.84677 6.41444 2.75817 5.95894C2.63381 5.32415 2.77311 4.75397 3.20918 4.27747C3.53423 3.92266 3.87369 3.57916 4.22489 3.25126C4.97213 2.55294 6.07805 2.55186 6.8018 3.27764C7.05587 3.53231 7.24641 3.61684 7.56452 3.41117C7.77321 3.27657 8.02567 3.20442 8.26586 3.12796C8.40249 3.08489 8.43932 3.01813 8.43131 2.88352C8.40516 2.43933 8.46547 2.01237 8.71153 1.62902C9.07447 1.06477 9.59007 0.751943 10.2546 0.735791C10.8123 0.72233 11.3765 0.707798 11.9284 0.774561C12.7861 0.878475 13.4736 1.67048 13.4565 2.5454C13.4485 2.96105 13.5681 3.15812 13.9604 3.24911C14.1829 3.30079 14.3932 3.41978 14.5987 3.52908C14.7209 3.59423 14.7941 3.58454 14.8864 3.48009C15.1986 3.12689 15.5659 2.85875 16.0414 2.77476C16.6264 2.67139 17.1633 2.78984 17.6058 3.18988C18.0019 3.54793 18.3824 3.92751 18.7358 4.32809C19.3816 5.05925 19.3309 6.15869 18.6445 6.8904C18.3456 7.20914 18.3493 7.20752 18.5228 7.61564C18.6301 7.86815 18.7171 8.12928 18.827 8.38072C18.851 8.43564 18.9322 8.49325 18.9925 8.49918C19.1836 8.5191 19.3805 8.49594 19.57 8.52502C20.3658 8.64724 20.9609 9.2185 21.1408 10.0137C21.1493 10.0509 21.1669 10.0859 21.1808 10.122V11.9762C21.1664 12.0188 21.1483 12.0608 21.1376 12.1044C20.9978 12.6767 20.6743 13.1058 20.1576 13.3853C19.8048 13.5759 19.4237 13.6125 19.0341 13.592C18.9081 13.5856 18.8484 13.6243 18.8073 13.7514C18.7299 13.9931 18.629 14.2274 18.5329 14.4632C18.4753 14.6053 18.345 14.7545 18.3653 14.881C18.3856 15.007 18.5532 15.1093 18.6573 15.2213C19.3608 15.9804 19.3741 17.0831 18.6744 17.8439C18.3531 18.1928 18.0184 18.5304 17.672 18.8545C17.189 19.3062 16.6104 19.4473 15.9694 19.3089C15.5659 19.2217 15.2307 19.0042 14.9627 18.6935C14.8239 18.532 14.7097 18.4975 14.5138 18.61C14.2849 18.7414 14.0292 18.827 13.781 18.9229C13.4763 19.0402 13.4693 19.0359 13.4752 19.3649C13.4875 20.0934 13.2094 20.6759 12.5982 21.0657C12.3799 21.2052 12.1147 21.2703 11.8708 21.3694H10.0325H10.032ZM10.9565 1.93915C10.7499 1.93915 10.5433 1.937 10.3373 1.93915C9.91619 1.94453 9.63544 2.22397 9.62904 2.64555C9.62477 2.92768 9.63224 3.2098 9.62637 3.49193C9.61943 3.81229 9.46091 4.02765 9.15507 4.11165C8.52899 4.2834 7.93654 4.53214 7.37291 4.85573C7.07081 5.0291 6.82955 4.99033 6.57709 4.74159C6.38655 4.55422 6.20241 4.35986 6.01079 4.17303C5.69695 3.86775 5.30893 3.86721 4.99936 4.17303C4.709 4.46 4.42184 4.74966 4.13789 5.04256C3.83366 5.35591 3.83366 5.74788 4.13629 6.06286C4.3215 6.25615 4.51418 6.44136 4.69993 6.63411C4.95185 6.89578 4.98548 7.13537 4.80454 7.45465C4.49016 8.01137 4.24998 8.5977 4.08078 9.2158C3.98737 9.55769 3.78029 9.70952 3.42321 9.71329C3.15047 9.71599 2.8772 9.71007 2.60445 9.71545C2.21108 9.72353 1.92927 10.0089 1.92393 10.4078C1.91859 10.831 1.91913 11.2542 1.92393 11.6774C1.9282 12.0963 2.21268 12.3779 2.63274 12.3833C2.90548 12.3871 3.17876 12.3806 3.4515 12.3854C3.78189 12.3908 3.99111 12.548 4.07811 12.8705C4.24731 13.4956 4.49123 14.0874 4.80774 14.6505C4.98601 14.9671 4.94918 15.2062 4.69406 15.47C4.50778 15.6622 4.3151 15.848 4.13042 16.0413C3.83633 16.3492 3.83473 16.7417 4.12935 17.047C4.41757 17.3453 4.70953 17.6398 5.00523 17.9306C5.30732 18.2278 5.69642 18.2278 6.00279 17.9327C6.19066 17.7518 6.37054 17.5628 6.55522 17.3787C6.83223 17.1025 7.06547 17.0648 7.39852 17.2559C7.94454 17.5698 8.52045 17.8083 9.12518 17.979C9.47692 18.0781 9.6253 18.2816 9.6285 18.6547C9.63064 18.9234 9.6253 19.1921 9.63011 19.4607C9.63758 19.8688 9.92046 20.1537 10.3272 20.158C10.7398 20.1628 11.1529 20.1617 11.5655 20.158C11.9855 20.1542 12.2679 19.8726 12.2743 19.4521C12.2785 19.177 12.2727 18.9013 12.2764 18.6257C12.2812 18.2816 12.4365 18.0732 12.7674 17.9812C13.3796 17.8105 13.9614 17.5693 14.5128 17.2516C14.8368 17.0653 15.0705 17.1019 15.3406 17.3695C15.5306 17.5574 15.7142 17.7529 15.9069 17.9381C16.2053 18.2245 16.5949 18.2261 16.8895 17.9381C17.1911 17.6436 17.4873 17.3442 17.7793 17.0406C18.0654 16.7428 18.0648 16.3519 17.7809 16.0493C17.593 15.8496 17.3945 15.6601 17.2039 15.463C16.9514 15.2013 16.9178 14.9634 17.0993 14.643C17.4105 14.0922 17.6485 13.5118 17.8177 12.9012C17.9197 12.5335 18.1171 12.3871 18.5009 12.3844C18.7608 12.3828 19.0202 12.3871 19.2802 12.3828C19.6976 12.3758 19.9767 12.092 19.981 11.6683C19.9847 11.2585 19.9842 10.8488 19.981 10.4391C19.9778 10.0024 19.7002 9.71975 19.2706 9.71383C18.9978 9.71006 18.7245 9.71653 18.4518 9.71168C18.1235 9.70576 17.9127 9.54639 17.8257 9.22549C17.6565 8.60093 17.4121 8.00868 17.0956 7.4455C16.9178 7.12891 16.9552 6.89093 17.2114 6.62711C17.3977 6.43544 17.5909 6.24968 17.7745 6.05532C18.068 5.74465 18.068 5.35376 17.7734 5.04902C17.4852 4.75074 17.1932 4.45623 16.8975 4.16549C16.5949 3.86774 16.2058 3.86882 15.9005 4.16549C15.7132 4.34693 15.5333 4.53645 15.3486 4.72005C15.0711 4.99572 14.8368 5.03287 14.5048 4.84119C13.9593 4.52568 13.3834 4.28825 12.7781 4.11865C12.4339 4.02227 12.2807 3.81821 12.2764 3.46178C12.2732 3.18611 12.2796 2.91098 12.2743 2.63531C12.2668 2.2272 11.9834 1.94561 11.5767 1.93861C11.3701 1.93484 11.1641 1.93807 10.9575 1.93807L10.9565 1.93915Z" fill="white"/>
<path d="M15.3985 11.0524C15.3958 13.5312 13.4098 15.5352 10.9529 15.5368C8.49025 15.5385 6.49352 13.5178 6.50419 11.0357C6.51487 8.55362 8.50626 6.5545 10.9599 6.56203C13.4199 6.56957 15.4011 8.57408 15.3985 11.0524ZM14.1997 11.0572C14.205 9.24387 12.7581 7.77669 10.9593 7.77131C9.16223 7.76592 7.70779 9.2261 7.70298 11.0411C7.69818 12.8539 9.14515 14.3216 10.9433 14.3276C12.7388 14.3335 14.1949 12.8717 14.1997 11.0572Z" fill="white"/>
</svg>
