<svg width="20" height="20" viewBox="0 0 20 20" fill="none" xmlns="http://www.w3.org/2000/svg">
<path d="M20.0002 10.6283C19.9569 10.7426 19.9251 10.8632 19.8687 10.9712C19.6307 11.428 19.2456 11.6691 18.7353 11.6707C16.5228 11.677 14.3103 11.6796 12.0977 11.6702C11.3479 11.667 10.8334 11.1153 10.8318 10.3469C10.8287 8.42649 10.8308 6.50607 10.8308 4.58618C10.8308 3.5709 10.8308 2.55509 10.8308 1.53982C10.8308 0.636765 11.0499 0.314173 11.8754 0.000976562C14.232 0.000976562 16.5885 0.000976562 18.9456 0.000976562C19.1261 0.0818857 19.3187 0.142959 19.4841 0.247358C19.7763 0.432666 19.9104 0.733334 20.0002 1.05593V10.6288V10.6283ZM11.6704 5.8233C11.6704 7.31412 11.6704 8.80494 11.6704 10.2963C11.6704 10.7029 11.8008 10.8329 12.2078 10.8334C14.3426 10.8334 16.4774 10.8334 18.6121 10.8334C19.0385 10.8334 19.1695 10.7008 19.1695 10.2707C19.1695 7.31464 19.1695 4.35911 19.1695 1.40305C19.1695 0.969276 19.0306 0.830948 18.596 0.830948C16.4742 0.830948 14.3525 0.830948 12.2308 0.830948C11.8013 0.830948 11.6704 0.961446 11.6704 1.39C11.6704 2.86777 11.6704 4.34606 11.6704 5.82382V5.8233Z" fill="white" fill-opacity="0.8"/>
<path d="M8.12543 0.000522504C8.29555 0.0772557 8.48079 0.131544 8.63316 0.234377C8.9927 0.477104 9.16594 0.835714 9.16751 1.26532C9.17273 2.64495 9.17742 4.02458 9.16646 5.40421C9.16072 6.13239 8.63003 6.66483 7.90261 6.66796C5.69061 6.67683 3.47862 6.67683 1.26662 6.66796C0.522504 6.66483 0.00277056 6.11516 0.00120509 5.36662C-0.00088219 4.02614 0.000161452 2.68514 0.00120509 1.34466C0.00120509 0.661889 0.314811 0.240118 0.971262 0.0328859C0.98796 0.027666 1.00153 0.0109619 1.01614 0C3.38573 0 5.75532 0 8.12491 0L8.12543 0.000522504ZM4.58071 5.83224C5.65461 5.83224 6.72852 5.83277 7.80191 5.83224C8.1964 5.83224 8.32946 5.69914 8.32946 5.30503C8.3305 3.99639 8.32998 2.68775 8.32946 1.37963C8.32946 0.967257 8.19275 0.831538 7.77738 0.831538C5.6494 0.831538 3.52141 0.831538 1.3929 0.831538C0.97231 0.831538 0.829851 0.97352 0.829851 1.39373C0.829851 2.68932 0.829851 3.98491 0.829851 5.2805C0.829851 5.69548 0.966046 5.83225 1.37776 5.83277C2.44489 5.83329 3.51254 5.83277 4.57966 5.83277L4.58071 5.83224Z" fill="white" fill-opacity="0.8"/>
<path d="M20.0002 18.9511C19.9777 19.0179 19.9553 19.0853 19.9323 19.1521C19.7628 19.6516 19.3114 20.0013 18.7864 20.0029C16.5421 20.0087 14.2977 20.0097 12.0539 20.0029C11.3849 20.0008 10.8454 19.4668 10.837 18.7762C10.8208 17.371 10.8187 15.9653 10.8381 14.5596C10.848 13.8303 11.4048 13.337 12.1588 13.3355C13.7331 13.3323 15.3075 13.3344 16.8813 13.3344C17.473 13.3344 18.0653 13.3329 18.657 13.3344C19.3422 13.3365 19.78 13.6701 19.9704 14.3299C19.9757 14.3476 19.9898 14.3628 19.9997 14.3795V18.9511H20.0002ZM15.4306 14.1743C14.3567 14.1743 13.2828 14.1743 12.2094 14.1743C11.8008 14.1743 11.6709 14.3033 11.6709 14.7099C11.6704 16.0185 11.6704 17.3272 11.6709 18.6353C11.6709 19.0367 11.8092 19.175 12.2115 19.175C14.3463 19.1756 16.4805 19.175 18.6153 19.175C19.0228 19.175 19.17 19.0289 19.17 18.6233C19.1705 17.3214 19.1705 16.0191 19.17 14.7172C19.17 14.3127 19.0333 14.1743 18.633 14.1738C17.5659 14.1728 16.4982 14.1738 15.4311 14.1738L15.4306 14.1743Z" fill="white" fill-opacity="0.8"/>
<path d="M0.000720202 14.1774C0.000720202 12.6798 0.000198381 11.1827 0.000720202 9.68514C0.000720202 8.85569 0.52254 8.33422 1.35589 8.33369C3.50996 8.33213 5.66405 8.33213 7.81812 8.33369C8.64573 8.33422 9.16859 8.86039 9.16911 9.69245C9.17015 12.6809 9.17068 15.6688 9.16911 18.6572C9.16911 19.4866 8.64311 20.006 7.81081 20.006C5.65673 20.0065 3.50266 20.0065 1.34859 20.006C0.518892 20.006 0.00124202 19.484 0.000720202 18.6499C0.000198381 17.1591 0.000720202 15.6682 0.000720202 14.1774ZM8.33054 14.1873C8.33054 12.7028 8.33054 11.2182 8.33054 9.7342C8.33054 9.29782 8.20844 9.1741 7.77742 9.1741C5.64891 9.1741 3.52092 9.1741 1.39241 9.1741C0.962954 9.1741 0.831455 9.3046 0.831455 9.73264C0.831455 12.6887 0.831455 15.6442 0.831455 18.6003C0.831455 19.0367 0.969745 19.1766 1.40025 19.1771C3.52197 19.1771 5.64369 19.1771 7.76542 19.1771C8.20375 19.1771 8.33054 19.0482 8.33054 18.6024C8.33054 17.1309 8.33054 15.6594 8.33054 14.1879V14.1873Z" fill="white" fill-opacity="0.8"/>
</svg>
