<svg width="20" height="23" viewBox="0 0 20 23" fill="none" xmlns="http://www.w3.org/2000/svg">
<path d="M2.95725 8.87616C2.95725 8.78249 2.95725 8.69302 2.95725 8.60355C2.95725 7.32635 2.95545 6.04915 2.95845 4.77254C2.95965 4.35282 3.18115 4.09882 3.53291 4.09581C3.83904 4.09281 4.08816 4.31499 4.11697 4.62063C4.12417 4.69628 4.12117 4.77254 4.12117 4.8488C4.12117 9.38717 4.12117 13.9255 4.12117 18.4639C4.12117 18.9587 3.91828 19.2307 3.54671 19.2361C3.17094 19.2415 2.95725 18.9587 2.95725 18.4537C2.95725 15.7624 2.95725 13.0717 2.95725 10.3803V10.0819C2.13067 10.2723 1.57962 10.7346 1.3035 11.4954C1.21226 11.747 1.17024 12.0298 1.16904 12.2982C1.15883 14.7157 1.15883 17.1332 1.16484 19.5501C1.16844 20.8616 2.11627 21.8001 3.43086 21.8007C7.80744 21.8031 12.1834 21.8031 16.56 21.8007C17.889 21.8001 18.8344 20.8634 18.8356 19.5357C18.8392 14.1687 18.8398 8.80171 18.8356 3.4353C18.8344 2.11906 17.889 1.17812 16.5774 1.17692C13.1811 1.17392 9.78474 1.17752 6.3884 1.17452C5.73951 1.17392 5.18906 1.39009 4.72745 1.84825C4.50595 2.06802 4.25743 2.10645 4.02033 1.98456C3.80603 1.87407 3.65837 1.63508 3.71719 1.4003C3.75501 1.24778 3.84625 1.08925 3.9585 0.978168C4.63561 0.30624 5.46218 0 6.40941 0C9.79074 0.00120094 13.1715 -0.00240188 16.5528 0.00540424C16.8613 0.00600471 17.1777 0.040832 17.476 0.115891C18.9455 0.486982 19.9569 1.76719 19.9936 3.28278C20.005 3.75354 19.9978 4.22552 19.9978 4.69689C19.9978 9.63816 20.0008 14.5794 19.996 19.5201C19.9948 20.9961 19.3086 22.0529 17.9832 22.69C17.5528 22.8966 17.0864 22.9734 16.611 22.974C12.2044 22.9752 7.79783 22.98 3.39064 22.9722C1.47938 22.9692 0.0135141 21.4999 0.00631087 19.5886C-0.0026932 17.141 -0.00149266 14.6929 0.00631087 12.2454C0.0117133 10.5713 1.13603 9.24005 2.78797 8.923C2.839 8.91339 2.88882 8.89538 2.95785 8.87616H2.95725Z" fill="white" fill-opacity="0.8"/>
<path d="M10.5487 7.8031C10.5487 8.25886 10.5523 8.71461 10.5475 9.17097C10.5415 9.77445 10.1231 10.2128 9.52039 10.2212C8.63199 10.2332 7.74359 10.2326 6.85518 10.2212C6.26992 10.2134 5.84673 9.80027 5.83713 9.21301C5.82152 8.27087 5.82092 7.32873 5.83713 6.38659C5.84733 5.79572 6.29153 5.3802 6.8816 5.3766C7.755 5.37119 8.62839 5.37059 9.50179 5.3766C10.1069 5.3808 10.5421 5.82575 10.5475 6.43583C10.5517 6.89158 10.5481 7.34734 10.5481 7.8037L10.5487 7.8031ZM9.36673 6.55832H7.00706V9.05088H9.36673V6.55832Z" fill="white" fill-opacity="0.8"/>
<path d="M11.4847 17.5998C9.82077 17.5998 8.15741 17.601 6.49346 17.5992C6.07987 17.5992 5.81875 17.3488 5.83736 16.9819C5.85056 16.7177 6.02825 16.5052 6.28876 16.4523C6.377 16.4343 6.46945 16.4301 6.56009 16.4301C9.84177 16.4289 13.1235 16.4289 16.4057 16.4301C16.8415 16.4301 17.0955 16.6253 17.1177 16.9699C17.1411 17.332 16.8872 17.5962 16.4988 17.5992C15.8985 17.604 15.2982 17.6004 14.6986 17.6004C13.6277 17.6004 12.5562 17.6004 11.4853 17.6004L11.4847 17.5998Z" fill="white" fill-opacity="0.8"/>
<path d="M11.4636 13.9106C9.80748 13.9106 8.15193 13.9112 6.49578 13.91C6.0942 13.91 5.84329 13.6902 5.83609 13.3437C5.82948 13.0339 6.04498 12.7883 6.35412 12.7571C6.43696 12.7487 6.521 12.7499 6.60444 12.7499C9.8477 12.7499 13.0916 12.7499 16.3348 12.7499C16.4261 12.7499 16.5179 12.7481 16.608 12.7583C16.9165 12.7913 17.1278 13.0387 17.1188 13.3509C17.1104 13.647 16.8895 13.892 16.5905 13.9046C16.2418 13.919 15.8918 13.9112 15.5425 13.9112C14.1829 13.9112 12.8232 13.9112 11.4636 13.9112V13.9106Z" fill="white" fill-opacity="0.8"/>
<path d="M14.7617 5.37493C15.347 5.37493 15.9316 5.37373 16.5169 5.37493C16.7672 5.37553 16.9587 5.48362 17.0661 5.7124C17.1646 5.92196 17.161 6.15194 16.9947 6.30686C16.8674 6.42516 16.6706 6.53144 16.5025 6.53444C15.3482 6.55366 14.1932 6.54885 13.0383 6.54225C12.6481 6.53985 12.4038 6.29185 12.4128 5.93998C12.4212 5.60491 12.6746 5.37794 13.0533 5.37553C13.623 5.37253 14.1932 5.37493 14.7629 5.37493H14.7617Z" fill="white" fill-opacity="0.8"/>
<path d="M14.7771 9.06595C15.3696 9.06595 15.9621 9.06114 16.5545 9.06775C16.8337 9.07075 17.0588 9.2647 17.1098 9.5199C17.1656 9.79672 17.0305 10.0687 16.7736 10.1732C16.6914 10.2062 16.5971 10.2225 16.5083 10.2231C15.3462 10.2261 14.1841 10.2279 13.0219 10.2231C12.6942 10.2219 12.4613 10.0279 12.4175 9.74688C12.3724 9.45745 12.5255 9.18844 12.7998 9.09957C12.8911 9.07015 12.9937 9.06655 13.091 9.06595C13.6528 9.06294 14.2153 9.06475 14.7771 9.06475V9.06655V9.06595Z" fill="white" fill-opacity="0.8"/>
</svg>
