<svg width="15" height="15" viewBox="0 0 15 15" fill="none" xmlns="http://www.w3.org/2000/svg">
<path d="M7.95826 14.1184C6.64758 14.1184 5.33689 14.1184 4.0242 14.1184C2.52225 14.1164 1.31425 13.1198 1.02634 11.6461C0.70421 9.99714 1.91825 8.34217 3.59133 8.15091C3.73629 8.1348 3.88125 8.12473 4.02621 8.12272C6.65966 8.12272 9.29109 8.12071 11.9245 8.12272C13.4285 8.12272 14.6325 9.11932 14.9224 10.5931C15.2445 12.24 14.0305 13.899 12.3574 14.0882C12.1983 14.1064 12.0353 14.1164 11.8762 14.1164C10.5696 14.1184 9.26491 14.1164 7.95826 14.1164V14.1184ZM9.73402 9.12134C9.67362 9.12134 9.64543 9.12134 9.61523 9.12134C7.72672 9.12134 5.83822 9.12134 3.95172 9.12335C3.8128 9.12335 3.66985 9.14147 3.53496 9.17368C2.55044 9.4032 1.87799 10.3354 1.98671 11.3118C2.10348 12.3467 2.94304 13.1138 3.97991 13.1158C5.85231 13.1198 7.72471 13.1158 9.59711 13.1158C9.63537 13.1158 9.67362 13.1098 9.71993 13.1057C8.69111 11.8897 8.76561 10.2468 9.73402 9.11932V9.12134ZM13.9701 11.1145C13.9681 10.0173 13.0681 9.12134 11.9688 9.12335C10.8695 9.12335 9.97361 10.0213 9.97361 11.1206C9.97361 12.2259 10.8756 13.1238 11.9829 13.1198C13.0802 13.1158 13.9721 12.2138 13.9701 11.1145Z" fill="#FAFF00"/>
<path d="M7.96633 7.62334C5.89864 7.61931 4.21951 5.92811 4.22757 3.8584C4.23562 1.79876 5.92078 0.123666 7.98244 0.127693C10.0501 0.131719 11.7293 1.82292 11.7212 3.89062C11.7131 5.95227 10.028 7.62535 7.96633 7.62133V7.62334ZM7.97439 1.12832C6.45834 1.12832 5.22618 2.36451 5.2282 3.88055C5.2282 5.38854 6.46237 6.6207 7.96834 6.62473C9.48439 6.62674 10.7226 5.39458 10.7226 3.87854C10.7226 2.3625 9.48841 1.12832 7.97439 1.12832Z" fill="#FAFF00"/>
<path d="M11.5842 11.1869C11.9003 10.8164 12.2104 10.454 12.5225 10.0916C12.6513 9.94262 12.8164 9.87618 13.0097 9.91443C13.203 9.95268 13.3358 10.0735 13.3902 10.2648C13.4365 10.4298 13.4083 10.5869 13.2976 10.7198C12.8708 11.2231 12.4439 11.7264 12.0091 12.2237C11.8118 12.4492 11.5238 12.4653 11.3004 12.272C11.0165 12.0284 10.7386 11.7768 10.4648 11.5231C10.2575 11.3318 10.2454 11.0258 10.4246 10.8224C10.6058 10.6171 10.9017 10.597 11.1252 10.7782C11.2057 10.8446 11.2802 10.9171 11.3588 10.9855C11.4312 11.05 11.5057 11.1164 11.5863 11.1869H11.5842Z" fill="#FAFF00"/>
</svg>
