<svg width="22" height="25" viewBox="0 0 22 25" fill="none" xmlns="http://www.w3.org/2000/svg">
<path d="M3.73558 9.54213C3.73558 9.44544 3.73558 9.35309 3.73558 9.26073C3.73558 7.94236 3.73374 6.624 3.73681 5.30625C3.73804 4.87299 3.96477 4.61081 4.32484 4.60771C4.6382 4.60461 4.8932 4.83394 4.92269 5.14943C4.93007 5.22753 4.927 5.30625 4.927 5.38497C4.927 10.0696 4.927 14.7542 4.927 19.4389C4.927 19.9496 4.71931 20.2304 4.33897 20.236C3.95432 20.2415 3.73558 19.9496 3.73558 19.4283C3.73558 16.6503 3.73558 13.8728 3.73558 11.0948V10.7867C2.88949 10.9832 2.32542 11.4605 2.04278 12.2458C1.94938 12.5055 1.90637 12.7975 1.90514 13.0745C1.8947 15.5699 1.8947 18.0653 1.90084 20.5601C1.90453 21.9138 2.87474 22.8826 4.22038 22.8832C8.70032 22.8857 13.1796 22.8857 17.6596 22.8832C19.02 22.8826 19.9877 21.9157 19.989 20.5453C19.9926 15.0053 19.9933 9.46527 19.989 3.9259C19.9877 2.56724 19.02 1.59598 17.6774 1.59474C14.2009 1.59164 10.7243 1.59536 7.24777 1.59226C6.58355 1.59164 6.0201 1.81478 5.54759 2.2877C5.32086 2.51456 5.06647 2.55423 4.82377 2.4284C4.60441 2.31436 4.45326 2.06767 4.51348 1.82531C4.55219 1.66788 4.64558 1.50424 4.76048 1.38958C5.45358 0.695993 6.29967 0.379883 7.26927 0.379883C10.7305 0.381122 14.191 0.377404 17.6522 0.385461C17.968 0.386081 18.2918 0.422031 18.5972 0.499509C20.1014 0.882561 21.1367 2.20403 21.1742 3.76846C21.1859 4.25441 21.1785 4.74159 21.1785 5.22815C21.1785 10.3287 21.1816 15.4292 21.1767 20.5291C21.1754 22.0527 20.4731 23.1436 19.1164 23.8012C18.6759 24.0144 18.1984 24.0938 17.7118 24.0944C13.2011 24.0956 8.69049 24.1006 4.17921 24.0925C2.22281 24.0894 0.722329 22.5727 0.714956 20.5998C0.705739 18.0734 0.706968 15.5464 0.714956 13.02C0.720486 11.2919 1.87135 9.91775 3.56231 9.59048C3.61454 9.58056 3.66554 9.56197 3.7362 9.54213H3.73558Z" fill="#FAFF00"/>
<path d="M11.5064 8.43467C11.5064 8.90511 11.5101 9.37556 11.5052 9.84663C11.499 10.4696 11.0708 10.922 10.4539 10.9307C9.54447 10.9431 8.63508 10.9425 7.7257 10.9307C7.12661 10.9226 6.69343 10.4962 6.6836 9.89002C6.66762 8.91751 6.66701 7.94501 6.6836 6.9725C6.69405 6.36259 7.14874 5.93368 7.75274 5.92996C8.64676 5.92438 9.54078 5.92376 10.4348 5.92996C11.0542 5.9343 11.4996 6.39359 11.5052 7.02333C11.5095 7.49377 11.5058 7.96422 11.5058 8.43529L11.5064 8.43467ZM10.2966 7.14977H7.88116V9.72266H10.2966V7.14977Z" fill="#FAFF00"/>
<path d="M12.4645 18.547C10.7613 18.547 9.05866 18.5482 7.35541 18.5464C6.93206 18.5464 6.66477 18.2879 6.68382 17.9092C6.69733 17.6364 6.87921 17.417 7.14588 17.3625C7.23621 17.3439 7.33083 17.3396 7.42361 17.3396C10.7828 17.3383 14.142 17.3383 17.5018 17.3396C17.9479 17.3396 18.2078 17.541 18.2305 17.8968C18.2545 18.2705 17.9946 18.5433 17.597 18.5464C16.9826 18.5513 16.3681 18.5476 15.7543 18.5476C14.6581 18.5476 13.5613 18.5476 12.4652 18.5476L12.4645 18.547Z" fill="#FAFF00"/>
<path d="M12.443 14.739C10.7477 14.739 9.05306 14.7396 7.3578 14.7384C6.94674 14.7384 6.6899 14.5115 6.68252 14.1539C6.67577 13.8341 6.89635 13.5806 7.21279 13.5483C7.29759 13.5397 7.38361 13.5409 7.46902 13.5409C10.7889 13.5409 14.1094 13.5409 17.4292 13.5409C17.5226 13.5409 17.6166 13.539 17.7088 13.5496C18.0246 13.5837 18.2409 13.839 18.2317 14.1613C18.2231 14.4669 17.997 14.7198 17.691 14.7328C17.334 14.7477 16.9758 14.7396 16.6181 14.7396C15.2264 14.7396 13.8347 14.7396 12.443 14.7396V14.739Z" fill="#FAFF00"/>
<path d="M15.8186 5.92819C16.4177 5.92819 17.0162 5.92695 17.6153 5.92819C17.8715 5.92881 18.0675 6.04037 18.1775 6.27653C18.2783 6.49285 18.2746 6.73024 18.1044 6.89015C17.9741 7.01226 17.7726 7.12197 17.6005 7.12507C16.419 7.1449 15.2368 7.13994 14.0546 7.13312C13.6552 7.13064 13.4051 6.87466 13.4143 6.51144C13.4229 6.16558 13.6822 5.93128 14.0699 5.9288C14.653 5.92571 15.2368 5.92819 15.8199 5.92819H15.8186Z" fill="#FAFF00"/>
<path d="M15.8345 9.73812C16.441 9.73812 17.0474 9.73316 17.6539 9.73998C17.9396 9.74308 18.17 9.94328 18.2222 10.2067C18.2794 10.4924 18.1411 10.7732 17.8782 10.8811C17.794 10.9152 17.6975 10.9319 17.6066 10.9325C16.417 10.9356 15.2274 10.9375 14.0379 10.9325C13.7024 10.9313 13.464 10.7311 13.4191 10.441C13.373 10.1422 13.5297 9.86456 13.8105 9.77283C13.9039 9.74246 14.009 9.73874 14.1085 9.73812C14.6836 9.73502 15.2594 9.73688 15.8345 9.73688V9.73874V9.73812Z" fill="#FAFF00"/>
</svg>
