<svg width="25" height="20" viewBox="0 0 25 20" fill="none" xmlns="http://www.w3.org/2000/svg">
<path d="M0.978027 14.3067C0.978027 11.9594 0.978027 9.61243 0.978027 7.26516C1.03821 7.08999 1.07957 6.90519 1.16175 6.74126C1.52178 6.02346 2.1151 5.68703 2.90594 5.68569C6.34182 5.67981 9.77797 5.67178 13.2139 5.66724C14.2979 5.6659 15.0938 6.44734 15.0993 7.5465C15.1102 9.69988 15.1031 11.8533 15.102 14.0069C15.102 14.4305 14.984 14.818 14.7247 15.1547C14.3326 15.6639 13.808 15.8867 13.1754 15.8878C11.5683 15.8904 9.96143 15.9003 8.35431 15.9025C8.22944 15.9025 8.1446 15.9383 8.06082 16.0319C7.1483 17.0506 6.23206 18.066 5.31556 19.0812C5.25538 19.1478 5.19361 19.2181 5.11885 19.2647C4.94361 19.3743 4.72993 19.2834 4.68008 19.0812C4.66153 19.0063 4.661 18.9256 4.661 18.8475C4.65967 17.9401 4.66047 17.0327 4.65994 16.1255C4.65994 16.056 4.6541 15.9865 4.65066 15.906C4.56529 15.906 4.50007 15.906 4.43485 15.906C3.87122 15.9054 3.30732 15.9153 2.74395 15.9014C2.21426 15.8883 1.77761 15.6615 1.42315 15.2628C1.17819 14.9873 1.07082 14.6517 0.978292 14.307L0.978027 14.3067ZM8.04889 11.2395C9.31296 11.2395 10.577 11.2395 11.8414 11.2395C11.9013 11.2395 11.9615 11.2414 12.0208 11.236C12.2133 11.2186 12.335 11.0986 12.335 10.9303C12.335 10.7627 12.2144 10.6431 12.0214 10.6225C11.9797 10.618 11.9376 10.6191 11.8957 10.6191C9.32542 10.6191 6.7554 10.6188 4.18512 10.6199C4.1138 10.6199 4.0401 10.6228 3.97143 10.6402C3.82536 10.6768 3.74847 10.7806 3.74927 10.9301C3.75006 11.0876 3.83145 11.1938 3.98814 11.224C4.06369 11.2387 4.14296 11.2392 4.22038 11.2392C5.49637 11.24 6.77263 11.2398 8.04863 11.2398L8.04889 11.2395ZM8.04677 12.4812C6.77078 12.4812 5.49452 12.4812 4.21852 12.4817C4.14084 12.4817 4.06131 12.4788 3.98602 12.4943C3.83967 12.524 3.75696 12.6229 3.74927 12.773C3.74131 12.9233 3.81396 13.0316 3.95685 13.0738C4.03559 13.0971 4.12202 13.1 4.20526 13.1C6.76335 13.1014 9.32171 13.1011 11.8798 13.1008C12.1852 13.1008 12.3369 12.9955 12.3353 12.7866C12.3334 12.5783 12.1887 12.4815 11.8753 12.4815C10.5993 12.4815 9.32303 12.4815 8.04704 12.4815L8.04677 12.4812ZM6.0388 9.37816C6.69177 9.37816 7.34448 9.3803 7.99746 9.37682C8.21114 9.37575 8.34794 9.24738 8.34556 9.06767C8.34317 8.89651 8.21114 8.77563 8.0086 8.76012C7.97281 8.75744 7.93675 8.75905 7.90069 8.75905C6.66075 8.75905 5.42108 8.75851 4.18114 8.76012C4.10426 8.76012 4.0234 8.76439 3.95129 8.78793C3.80971 8.83393 3.73866 8.94277 3.74927 9.0928C3.75987 9.24257 3.84497 9.33804 3.99132 9.36746C4.05521 9.3803 4.12255 9.37762 4.1883 9.37762C4.80522 9.37816 5.42214 9.37789 6.03906 9.37762L6.0388 9.37816Z" fill="white"/>
<path d="M5.27651 5.05774C5.29905 4.41323 5.17418 3.77112 5.5236 3.18544C5.86056 2.62035 6.35845 2.32082 7.00347 2.26065C7.08088 2.25343 7.15936 2.25691 7.2373 2.25717C10.6491 2.2652 14.0608 2.27482 17.4726 2.28044C18.2578 2.28178 18.8543 2.60698 19.2046 3.31996C19.3154 3.54567 19.3896 3.81551 19.3912 4.06583C19.4055 6.27939 19.4063 8.49347 19.3965 10.707C19.3923 11.6663 18.5935 12.4638 17.642 12.4948C17.5179 12.4988 17.3936 12.4954 17.2488 12.4954V12.7136C17.2488 13.621 17.2483 14.5281 17.2493 15.4355C17.2493 15.6131 17.2645 15.7982 17.0574 15.88C16.8533 15.9608 16.7332 15.8255 16.6136 15.692C16.3564 15.4048 16.1019 15.1149 15.8368 14.8349C15.7459 14.7389 15.7157 14.641 15.7159 14.5121C15.7188 12.2138 15.7202 9.91516 15.7172 7.61656C15.7159 6.53559 15.2451 5.73997 14.2737 5.26394C13.9277 5.09438 13.556 5.04571 13.1729 5.04651C10.6247 5.0524 8.07612 5.05454 5.52784 5.05774C5.45096 5.05774 5.37434 5.05774 5.27651 5.05774Z" fill="white"/>
<path d="M20.5099 8.6353C18.1901 8.62816 16.3247 6.73487 16.3325 4.39563C16.34 2.07187 18.2228 0.185713 20.5284 0.191664C22.8469 0.197616 24.7139 2.09567 24.7021 4.43411C24.6907 6.76899 22.8209 8.64244 20.5099 8.6353Z" fill="#FF0000"/>
</svg>
