<svg width="22" height="21" viewBox="0 0 22 21" fill="none" xmlns="http://www.w3.org/2000/svg">
<path d="M11.2754 2.55764C11.2754 3.17276 11.2754 3.78733 11.2754 4.40245C11.2754 4.76012 11.1865 4.84594 10.8296 4.86753C8.37209 5.01536 6.6135 6.2146 5.68396 8.51231C4.31629 11.893 6.55749 15.7177 10.1493 16.2204C13.3135 16.6628 16.2157 14.3989 16.5699 11.2087C16.5929 11.0033 16.594 10.7951 16.6089 10.5886C16.6248 10.3621 16.7379 10.2447 16.9608 10.2442C18.2483 10.2414 19.5364 10.2414 20.8239 10.2442C21.0517 10.2442 21.1758 10.3743 21.1786 10.609C21.1835 11.0376 21.1786 11.4656 21.1802 11.8941C21.1808 12.0879 21.0775 12.1981 20.9073 12.2634C20.4983 12.4195 20.0915 12.5823 19.6802 12.734C19.5479 12.7827 19.4716 12.8503 19.4326 12.9976C19.2503 13.6797 18.9736 14.3241 18.6381 14.9448C18.5975 15.0195 18.5915 15.1441 18.6239 15.2233C18.7924 15.638 18.9741 16.0471 19.1603 16.4546C19.2564 16.665 19.224 16.8306 19.0587 16.9945C18.4679 17.5808 17.8821 18.1721 17.3001 18.7673C17.142 18.929 16.9811 18.9539 16.7813 18.862C16.3772 18.6754 15.9714 18.4916 15.5607 18.321C15.4822 18.2884 15.3581 18.2911 15.2851 18.3321C14.6587 18.6793 14.0025 18.9495 13.3184 19.1565C13.2372 19.1814 13.146 19.265 13.1131 19.3442C12.944 19.7512 12.793 20.1659 12.6349 20.5772C12.5317 20.8458 12.4586 20.8978 12.1781 20.8978C11.3561 20.8984 10.5342 20.8934 9.71231 20.9011C9.48061 20.9033 9.3417 20.8148 9.26209 20.5944C9.11275 20.1797 8.95792 19.7667 8.78881 19.3597C8.75312 19.2739 8.65869 19.1809 8.57249 19.1549C7.88838 18.9483 7.23282 18.6759 6.60581 18.3305C6.53279 18.29 6.4087 18.2895 6.32964 18.3222C5.91895 18.4927 5.51321 18.6765 5.10911 18.8631C4.90926 18.955 4.74894 18.9284 4.59082 18.7667C4.00444 18.166 3.41311 17.5708 2.8185 16.9784C2.66531 16.8262 2.63676 16.6689 2.72516 16.474C2.90964 16.066 3.08149 15.6524 3.27091 15.2465C3.32746 15.1253 3.30495 15.0389 3.25499 14.9232C2.98541 14.2987 2.72187 13.6714 2.4748 13.0374C2.4155 12.8846 2.35565 12.7838 2.19369 12.7268C1.79343 12.5867 1.40251 12.4201 1.00445 12.2728C0.795268 12.1936 0.706872 12.0585 0.708519 11.8326C0.715107 10.99 0.714558 10.1467 0.708519 9.30405C0.706872 9.08591 0.797464 8.9558 0.996218 8.88161C1.40635 8.72769 1.81265 8.56325 2.22388 8.4121C2.35126 8.36504 2.41879 8.29859 2.45613 8.15962C2.64061 7.47806 2.90744 6.82861 3.25719 6.21626C3.31758 6.11051 3.32746 6.02691 3.27421 5.9123C3.08533 5.50646 2.91348 5.09287 2.72791 4.68537C2.63567 4.48329 2.66477 4.32217 2.82454 4.16327C3.42025 3.57195 4.01047 2.9751 4.5974 2.37548C4.74894 2.22046 4.90487 2.19388 5.09758 2.28302C5.50168 2.46905 5.91127 2.64401 6.31482 2.83281C6.42463 2.8843 6.50753 2.88818 6.61624 2.8245C7.22952 2.46794 7.88124 2.20329 8.55986 2.0012C8.64716 1.97518 8.74489 1.88549 8.78058 1.80133C8.95298 1.3883 9.11 0.968618 9.26374 0.548386C9.3417 0.337439 9.47402 0.242762 9.69858 0.247745C10.0818 0.256604 10.4656 0.248853 10.8494 0.250514C11.1667 0.251621 11.2749 0.364569 11.2754 0.691785C11.276 1.31355 11.2754 1.93532 11.2754 2.55708V2.55764ZM10.6111 0.915466C10.3964 0.915466 10.1988 0.925432 10.0022 0.912144C9.86659 0.903285 9.81168 0.960866 9.76776 1.08046C9.62116 1.48187 9.46029 1.87774 9.3137 2.27859C9.25385 2.44192 9.15722 2.54047 8.98537 2.58311C8.18926 2.78021 7.43871 3.09193 6.73868 3.52268C6.58275 3.61901 6.43945 3.62068 6.27419 3.54261C5.8904 3.36156 5.49839 3.19768 5.11351 3.01829C5.00534 2.9679 4.93726 2.97123 4.84832 3.06258C4.40304 3.52212 3.95283 3.97668 3.49657 4.42515C3.40488 4.5154 3.40488 4.58461 3.45429 4.69257C3.63218 5.08069 3.7947 5.47601 3.97424 5.86357C4.05165 6.03023 4.04836 6.17473 3.95283 6.33198C3.52786 7.03125 3.2215 7.78203 3.02659 8.57764C2.97992 8.76644 2.8778 8.8733 2.701 8.93863C2.30898 9.08314 1.92301 9.24315 1.53099 9.38655C1.4102 9.43084 1.36463 9.49008 1.36627 9.62407C1.37396 10.2525 1.37451 10.8814 1.36627 11.5104C1.36463 11.651 1.40471 11.7186 1.53648 11.7662C1.93508 11.9113 2.3271 12.0746 2.72516 12.2219C2.88878 12.2828 2.97992 12.3863 3.02219 12.5574C3.22095 13.3591 3.52841 14.1165 3.95722 14.8219C4.04836 14.9719 4.0533 15.1126 3.98028 15.2715C3.80019 15.6662 3.63383 16.0676 3.45155 16.4607C3.39829 16.5753 3.41696 16.6412 3.50316 16.7265C3.95777 17.1766 4.40853 17.6306 4.85491 18.0891C4.93616 18.1727 5.0004 18.1826 5.10307 18.135C5.4885 17.9567 5.88052 17.7934 6.26376 17.6112C6.43561 17.5293 6.58385 17.5304 6.74691 17.6301C7.44146 18.0564 8.18596 18.3653 8.97494 18.5619C9.15393 18.6067 9.25715 18.7042 9.31919 18.8758C9.46194 19.2711 9.62116 19.6604 9.76392 20.0551C9.80949 20.1814 9.86494 20.2373 10.0115 20.2351C10.6347 20.2251 11.2584 20.2251 11.8816 20.2351C12.0265 20.2373 12.0847 20.1836 12.1303 20.0562C12.2731 19.6609 12.4323 19.2717 12.575 18.8769C12.6371 18.7047 12.7403 18.6067 12.9193 18.5619C13.7148 18.3642 14.4654 18.0531 15.1649 17.6207C15.3071 17.5326 15.441 17.5249 15.592 17.5941C15.9906 17.7768 16.3936 17.9484 16.7906 18.1339C16.8944 18.1826 16.957 18.1716 17.0377 18.0885C17.484 17.6301 17.9343 17.1755 18.3889 16.7254C18.4751 16.6401 18.4932 16.5742 18.4399 16.4596C18.2609 16.0721 18.1017 15.6751 17.9211 15.2881C17.8393 15.1131 17.8475 14.9647 17.9463 14.8014C18.3658 14.1071 18.6694 13.3624 18.8632 12.574C18.9094 12.3858 19.0082 12.2772 19.1866 12.2119C19.5847 12.0657 19.9794 11.909 20.3731 11.7507C20.4286 11.7286 20.5104 11.6743 20.5131 11.6311C20.5268 11.393 20.5197 11.1538 20.5197 10.9152H17.26C17.1354 12.6371 16.4683 14.0971 15.211 15.2604C13.9471 16.4303 12.4427 16.9967 10.7291 16.9391C7.58146 16.8333 5.03664 14.4083 4.67262 11.3316C4.50407 9.90699 4.77145 8.56103 5.51266 7.33466C6.67334 5.41455 8.39679 4.39138 10.6105 4.19538V0.915466H10.6111Z" fill="white" fill-opacity="0.8"/>
<path d="M15.8438 10.5929C15.8323 13.3269 13.6389 15.5244 10.931 15.5139C8.21046 15.504 6.0302 13.2843 6.04722 10.5431C6.06479 7.80801 8.26152 5.6166 10.9694 5.63266C13.6828 5.64871 15.8548 7.8595 15.8433 10.5924L15.8438 10.5929ZM14.3109 13.1481C15.5029 11.6826 15.6077 9.07092 13.7926 7.40272C12.0335 5.78657 9.30415 5.956 7.73114 7.78475C6.2015 9.56313 6.5776 11.9993 7.59168 13.1387C7.96119 12.0818 8.66177 11.3426 9.7066 10.9052C9.27999 10.5093 9.03073 10.0492 9.00767 9.48174C8.98406 8.90537 9.17568 8.40984 9.57703 8.00234C10.265 7.30473 11.3504 7.23607 12.1251 7.83569C12.5155 8.13855 12.7637 8.53442 12.8526 9.02275C12.9877 9.76688 12.7373 10.3859 12.1976 10.9019C13.299 11.3886 13.9337 12.1205 14.3114 13.147L14.3109 13.1481ZM10.9711 14.8512C11.9577 14.8418 12.846 14.5179 13.6301 13.8906C13.736 13.8059 13.7651 13.7245 13.7377 13.5922C13.4698 12.3088 12.2739 11.352 10.9354 11.3564C9.60558 11.3609 8.4169 12.3187 8.1539 13.5922C8.12645 13.7245 8.1561 13.8064 8.26152 13.8911C9.05159 14.5223 9.94654 14.8473 10.9711 14.8517V14.8512ZM12.2256 9.4081C12.2328 8.68557 11.6585 8.09425 10.9485 8.09259C10.2551 8.09038 9.67641 8.66287 9.66652 9.36159C9.65609 10.0869 10.2194 10.6771 10.9332 10.6876C11.6321 10.6981 12.2196 10.1168 12.2262 9.40865L12.2256 9.4081Z" fill="white" fill-opacity="0.8"/>
<path d="M15.4623 6.96486C15.3657 6.9106 15.2729 6.87905 15.2065 6.81814C14.9539 6.58616 14.7107 6.3442 14.4625 6.10779C14.2775 5.93172 14.2648 5.754 14.4438 5.57129C15.0165 4.98828 15.5924 4.40804 16.17 3.83001C16.338 3.6617 16.4995 3.6545 16.6762 3.81617C16.9337 4.05258 17.1858 4.2962 17.429 4.54756C17.6118 4.73636 17.6069 4.90246 17.4235 5.08849C16.8602 5.66154 16.2941 6.23236 15.7248 6.79876C15.6561 6.86686 15.5584 6.90507 15.4618 6.96486H15.4623ZM15.4277 6.08343C15.8692 5.63883 16.2958 5.20919 16.7053 4.79616L16.483 4.54479C16.0476 4.98496 15.6182 5.41903 15.1872 5.85476C15.2581 5.92176 15.352 6.01145 15.4277 6.08343Z" fill="white" fill-opacity="0.8"/>
<path d="M13.6671 5.52201C13.6534 5.52146 13.6386 5.52423 13.6265 5.51924C13.2279 5.35868 12.8238 5.20919 12.4345 5.02925C12.3055 4.96945 12.2715 4.81055 12.3313 4.66383C12.6509 3.87929 12.9693 3.09474 13.2949 2.31297C13.3712 2.1297 13.5288 2.05607 13.7187 2.12638C14.0712 2.25649 14.4193 2.40045 14.7625 2.55436C14.9437 2.63575 15.0052 2.79964 14.9294 2.98733C14.6159 3.76634 14.2991 4.54479 13.968 5.3166C13.9246 5.41792 13.7923 5.48104 13.7012 5.56132L13.6671 5.52256V5.52201ZM13.4975 4.74079C13.7363 4.15889 13.9669 3.59692 14.203 3.0211C14.0548 2.96131 13.9257 2.90871 13.7857 2.85224C13.5463 3.43525 13.3157 3.99777 13.0808 4.57026C13.2224 4.6284 13.347 4.67933 13.4975 4.74079Z" fill="white" fill-opacity="0.8"/>
<path d="M18.5206 6.25513C18.592 6.31658 18.7205 6.37859 18.7715 6.47992C18.9384 6.81101 19.085 7.15373 19.2234 7.49866C19.3057 7.70352 19.23 7.86408 19.023 7.95156C18.273 8.26881 17.5213 8.58329 16.7681 8.89224C16.5331 8.98857 16.3832 8.90829 16.2789 8.66911C16.1498 8.3729 16.0159 8.07835 15.8786 7.78601C15.7649 7.54406 15.8166 7.3619 16.0543 7.26114C16.8043 6.94278 17.5565 6.63051 18.3081 6.31769C18.3581 6.29665 18.413 6.28669 18.5206 6.25568V6.25513ZM18.3158 7.03524C17.7404 7.27609 17.1771 7.51195 16.6094 7.74947C16.6802 7.90117 16.7373 8.0252 16.8004 8.16029C17.3715 7.92111 17.9298 7.68691 18.5019 7.44717C18.4355 7.29989 18.38 7.17587 18.3164 7.03469L18.3158 7.03524Z" fill="white" fill-opacity="0.8"/>
</svg>
