<svg width="24" height="19" viewBox="0 0 24 19" fill="none" xmlns="http://www.w3.org/2000/svg">
<path d="M0 13.6744C0 11.4004 0 9.12669 0 6.85272C0.0587925 6.68302 0.0991962 6.50399 0.179485 6.34517C0.531204 5.64979 1.11084 5.32386 1.88343 5.32256C5.24004 5.31686 8.59691 5.30909 11.9535 5.30469C13.0126 5.30339 13.7901 6.06044 13.7955 7.12527C13.8061 9.21142 13.7991 11.2976 13.7981 13.384C13.7981 13.7943 13.6829 14.1698 13.4296 14.4959C13.0465 14.9892 12.5339 15.2051 11.916 15.2061C10.3459 15.2087 8.77614 15.2183 7.2061 15.2203C7.08411 15.2203 7.00123 15.2551 6.91939 15.3457C6.02791 16.3326 5.13282 17.3163 4.23746 18.2998C4.17867 18.3643 4.11832 18.4325 4.04529 18.4775C3.87409 18.5838 3.66534 18.4957 3.61665 18.2998C3.59852 18.2273 3.598 18.149 3.598 18.0734C3.5967 17.1943 3.59748 16.3152 3.59696 15.4364C3.59696 15.3691 3.59126 15.3017 3.5879 15.2237C3.5045 15.2237 3.44079 15.2237 3.37707 15.2237C2.82644 15.2232 2.27555 15.2328 1.72518 15.2193C1.20771 15.2066 0.781137 14.9869 0.434857 14.6006C0.195543 14.3338 0.0906492 14.0086 0.000258998 13.6747L0 13.6744ZM6.90773 10.703C8.14263 10.703 9.37753 10.703 10.6127 10.703C10.6712 10.703 10.73 10.7048 10.788 10.6996C10.9761 10.6828 11.0949 10.5664 11.0949 10.4035C11.0949 10.241 10.9771 10.1252 10.7886 10.1053C10.7479 10.1009 10.7067 10.1019 10.6658 10.1019C8.1548 10.1019 5.64408 10.1016 3.1331 10.1027C3.06343 10.1027 2.99142 10.1055 2.92434 10.1224C2.78164 10.1578 2.70653 10.2584 2.7073 10.4032C2.70808 10.5558 2.78759 10.6587 2.94066 10.6879C3.01448 10.7022 3.09192 10.7027 3.16754 10.7027C4.4141 10.7035 5.66091 10.7032 6.90747 10.7032L6.90773 10.703ZM6.90566 11.9059C5.6591 11.9059 4.41229 11.9059 3.16573 11.9064C3.08984 11.9064 3.01214 11.9036 2.93859 11.9186C2.79562 11.9473 2.71481 12.0432 2.7073 12.1885C2.69953 12.3342 2.7705 12.4391 2.9101 12.48C2.98702 12.5026 3.07145 12.5054 3.15278 12.5054C5.65185 12.5067 8.15118 12.5064 10.6502 12.5062C10.9486 12.5062 11.0968 12.4041 11.0952 12.2018C11.0934 11.9999 10.952 11.9061 10.6458 11.9061C9.39929 11.9061 8.15247 11.9061 6.90592 11.9061L6.90566 11.9059ZM4.94401 8.89974C5.58192 8.89974 6.21957 8.90181 6.85748 8.89844C7.06624 8.8974 7.19988 8.77305 7.19755 8.59894C7.19522 8.43313 7.06624 8.31602 6.86836 8.301C6.8334 8.2984 6.79817 8.29996 6.76295 8.29996C5.55162 8.29996 4.34054 8.29944 3.12921 8.301C3.0541 8.301 2.97511 8.30514 2.90466 8.32794C2.76636 8.3725 2.69694 8.47795 2.7073 8.62329C2.71766 8.76838 2.8008 8.86087 2.94377 8.88937C3.00619 8.90181 3.07197 8.89922 3.1362 8.89922C3.73889 8.89974 4.34158 8.89948 4.94427 8.89922L4.94401 8.89974Z" fill="white"/>
<path d="M4.19927 4.71416C4.22129 4.08977 4.0993 3.46771 4.44066 2.90032C4.76984 2.35287 5.25624 2.0627 5.88638 2.0044C5.96201 1.99741 6.03867 2.00078 6.11482 2.00104C9.44786 2.00881 12.7809 2.01814 16.1139 2.02358C16.8811 2.02487 17.4638 2.33992 17.806 3.03064C17.9142 3.2493 17.9868 3.51072 17.9883 3.75322C18.0023 5.89766 18.0031 8.04261 17.9935 10.1871C17.9894 11.1164 17.209 11.889 16.2794 11.919C16.1582 11.9229 16.0368 11.9195 15.8954 11.9195V12.131C15.8954 13.01 15.8948 13.8888 15.8959 14.7679C15.8959 14.9399 15.9106 15.1192 15.7084 15.1985C15.5089 15.2768 15.3916 15.1457 15.2748 15.0164C15.0236 14.7381 14.7749 14.4573 14.5159 14.186C14.4271 14.093 14.3976 13.9982 14.3978 13.8733C14.4007 11.6467 14.402 9.4199 14.3991 7.19308C14.3978 6.14586 13.9378 5.37508 12.9889 4.91391C12.6509 4.74966 12.2878 4.70251 11.9135 4.70328C9.42403 4.70898 6.93429 4.71105 4.4448 4.71416C4.36969 4.71416 4.29458 4.71416 4.19901 4.71416H4.19927Z" fill="white"/>
<path d="M19.081 8.18C16.8148 8.17309 14.9923 6.33891 15 4.07271C15.0073 1.82151 16.8467 -0.00575182 19.099 1.3606e-05C21.3641 0.00577903 23.188 1.84457 23.1765 4.11C23.1654 6.37197 21.3387 8.18692 19.081 8.18Z" fill="#FF0000"/>
</svg>
