<svg width="15" height="15" viewBox="0 0 15 15" fill="none" xmlns="http://www.w3.org/2000/svg">
<path d="M0.662598 3.15879C0.737785 2.92195 0.779137 2.67008 0.891918 2.45204C1.28289 1.68137 1.92198 1.2716 2.78287 1.22273C3.02723 1.20769 3.27158 1.22273 3.53098 1.22273C3.53098 1.04604 3.53098 0.884388 3.53098 0.722736C3.53474 0.369358 3.7603 0.125 4.07608 0.125C4.39187 0.125 4.62119 0.369357 4.62495 0.711458C4.62495 0.87311 4.62495 1.03852 4.62495 1.20769H7.08356C7.08356 1.02724 7.07604 0.843035 7.08356 0.658827C7.0986 0.282893 7.45198 0.038535 7.80536 0.155075C8.01964 0.226502 8.16625 0.425748 8.17377 0.662587C8.17753 0.839276 8.17377 1.01597 8.17377 1.20769H10.6625C10.6625 1.02724 10.6549 0.843035 10.6625 0.655068C10.6813 0.226502 11.1399 -0.0140958 11.497 0.211465C11.6624 0.316727 11.7489 0.474619 11.7527 0.666346C11.7564 0.843035 11.7527 1.01972 11.7527 1.21521C11.9143 1.21521 12.0647 1.21521 12.2188 1.21521C12.5609 1.20769 12.8993 1.23401 13.2263 1.35431C14.0421 1.65505 14.6286 2.44452 14.6436 3.31668C14.6586 4.38058 14.6511 5.44823 14.6474 6.51213C14.6474 6.82791 14.4068 7.06099 14.1023 7.06099C13.794 7.06099 13.5572 6.82416 13.5572 6.49709C13.5572 5.48583 13.5572 4.47456 13.5572 3.4633C13.5572 2.99338 13.3654 2.63248 12.9406 2.42196C12.8166 2.36181 12.6737 2.32422 12.5346 2.31294C12.2827 2.2979 12.0271 2.30918 11.7527 2.30918C11.7527 2.47459 11.7527 2.63624 11.7527 2.7979C11.7527 3.15127 11.5233 3.39939 11.2 3.39563C10.8843 3.39563 10.6625 3.14751 10.6587 2.7979C10.6587 2.64 10.6587 2.48211 10.6587 2.31294H8.17377C8.17377 2.46331 8.17377 2.61369 8.17377 2.7603C8.17377 3.14376 7.95949 3.39187 7.63243 3.39563C7.3016 3.39563 7.08356 3.14751 7.08356 2.76782C7.08356 2.61745 7.08356 2.47083 7.08356 2.31294H4.62495C4.62495 2.49339 4.63247 2.6776 4.62495 2.8618C4.60991 3.23774 4.25653 3.48586 3.90691 3.36556C3.68511 3.29413 3.54226 3.09112 3.5385 2.84301C3.53474 2.66632 3.5385 2.48963 3.5385 2.28662C3.21519 2.30166 2.90317 2.28662 2.60242 2.33925C2.11371 2.43324 1.7904 2.85804 1.76409 3.36932C1.76409 3.40691 1.76409 3.44074 1.76409 3.47834C1.76409 6.26401 1.76409 9.04969 1.76409 11.8391C1.76409 12.3128 1.94829 12.685 2.38438 12.8917C2.54979 12.9707 2.75279 13.0045 2.937 13.0083C4.27909 13.0196 5.62494 13.0158 6.96702 13.012C7.14371 13.012 7.3016 13.0496 7.42942 13.1775C7.69258 13.4444 7.60987 13.888 7.27153 14.0496C7.23018 14.0684 7.18882 14.0872 7.14747 14.1023H2.60242C2.58362 14.0947 2.56107 14.0797 2.54227 14.0759C1.77536 13.9519 1.21522 13.5383 0.87688 12.8429C0.775378 12.6286 0.730266 12.388 0.662598 12.1624C0.662598 9.15871 0.662598 6.15123 0.662598 3.14751L0.662598 3.15879Z" fill="white"/>
<path d="M11.072 14.1135C10.76 14.0345 10.4367 13.9857 10.1359 13.8767C8.71868 13.3579 7.81643 11.7865 8.08335 10.3015C8.31642 8.9895 9.06829 8.0835 10.3277 7.67749C11.6246 7.25644 12.7938 7.56471 13.7374 8.54966C14.6058 9.45566 14.869 10.5609 14.5006 11.7601C14.1096 13.0383 13.2149 13.8052 11.8953 14.0684C11.8013 14.0872 11.7074 14.1022 11.6134 14.121H11.0683L11.072 14.1135ZM13.557 10.8053C13.557 9.58724 12.557 8.59101 11.3389 8.59477C10.1247 8.59853 9.13596 9.591 9.1322 10.8015C9.1322 12.0195 10.1247 13.0195 11.3427 13.0195C12.5607 13.0195 13.557 12.0233 13.557 10.8053Z" fill="white"/>
<path d="M4.62492 5.86176C4.62492 6.1625 4.3768 6.40686 4.07606 6.40686C3.77531 6.40686 3.53095 6.15498 3.53471 5.85424C3.53847 5.56101 3.78283 5.31665 4.07982 5.31665C4.38056 5.31665 4.62868 5.56477 4.62868 5.86176H4.62492Z" fill="white"/>
<path d="M6.45951 6.4069C6.15876 6.4069 5.91064 6.16255 5.91064 5.8618C5.91064 5.56105 6.15876 5.31293 6.45951 5.31669C6.75274 5.31669 6.9971 5.56105 7.00086 5.85428C7.00461 6.15503 6.76026 6.40314 6.45951 6.4069Z" fill="white"/>
<path d="M9.377 5.86561C9.377 6.16636 9.12512 6.41072 8.82438 6.40696C8.52363 6.40696 8.27927 6.15132 8.28679 5.85057C8.29055 5.55735 8.53491 5.31675 8.83189 5.31299C9.13264 5.31299 9.38076 5.56111 9.377 5.86185V5.86561Z" fill="white"/>
<path d="M11.2112 6.4069C10.9104 6.4069 10.6623 6.15879 10.6661 5.85804C10.6661 5.55729 10.9179 5.31293 11.2187 5.31669C11.5119 5.31669 11.7563 5.56481 11.7563 5.85804C11.7563 6.15879 11.5119 6.4069 11.2112 6.4069Z" fill="white"/>
<path d="M4.0723 7.69263C4.37305 7.69263 4.62116 7.93698 4.62492 8.23773C4.62492 8.53848 4.3768 8.7866 4.07982 8.7866C3.78283 8.7866 3.54223 8.546 3.53471 8.24901C3.53095 7.94826 3.77531 7.69639 4.07606 7.69639L4.0723 7.69263Z" fill="white"/>
<path d="M6.45951 8.78288C6.15876 8.78288 5.91064 8.53852 5.91064 8.23777C5.91064 7.93703 6.15876 7.68891 6.45951 7.69267C6.75274 7.69267 6.9971 7.93703 7.00086 8.23026C7.00086 8.531 6.76026 8.77912 6.45951 8.78288Z" fill="white"/>
<path d="M4.62477 10.6287C4.61725 10.9294 4.36538 11.17 4.06463 11.1625C3.76388 11.155 3.52328 10.8994 3.53456 10.5986C3.54584 10.3054 3.79396 10.0686 4.08718 10.0723C4.38793 10.0761 4.63229 10.3279 4.62477 10.6287Z" fill="white"/>
<path d="M6.45579 11.1625C6.15504 11.1625 5.90693 10.9144 5.91069 10.6137C5.91069 10.3129 6.16256 10.0685 6.46331 10.0723C6.75654 10.0723 7.0009 10.3204 7.0009 10.6137C7.0009 10.9144 6.75654 11.1625 6.45579 11.1625Z" fill="white"/>
<path d="M11.8916 10.2638C12.0007 10.2638 12.0871 10.2601 12.1736 10.2638C12.4668 10.2826 12.6924 10.527 12.6849 10.8165C12.6811 11.1022 12.4593 11.339 12.1698 11.3503C11.8841 11.3616 11.5984 11.3616 11.3089 11.3503C11.0307 11.339 10.8089 11.1172 10.8014 10.839C10.7901 10.448 10.7901 10.0571 10.8014 9.6661C10.8089 9.36912 11.0533 9.14355 11.3428 9.14355C11.6322 9.14355 11.8728 9.36912 11.8879 9.66234C11.8954 9.85783 11.8879 10.0496 11.8879 10.2638H11.8916Z" fill="white"/>
</svg>
