<svg width="15" height="15" viewBox="0 0 15 15" fill="none" xmlns="http://www.w3.org/2000/svg">
<path d="M14.2235 10.0768C12.995 9.27829 11.6687 9.62451 10.912 10.3728C10.1777 11.1015 9.7896 12.4334 10.6021 13.6871C8.26789 14.7927 4.71631 14.4856 2.43514 11.7633C0.193068 9.08843 0.290792 5.12082 2.65293 2.55765C5.03461 -0.0250636 8.9715 -0.460634 11.8055 1.53294C14.7652 3.61307 15.4771 7.30984 14.2235 10.0768ZM6.25477 11.163H9.37357V8.83993H11.691V5.72671H9.36798V3.40925H6.25477V5.7323H3.93451V8.84551H6.25198V11.163H6.25477Z" fill="#70FF00"/>
<path d="M12.7383 14.2874C11.5907 14.2874 10.6637 13.3521 10.6665 12.1989C10.6665 11.0709 11.6047 10.1383 12.7355 10.1411C13.8886 10.1411 14.8184 11.0709 14.8156 12.2213C14.8156 13.3604 13.8802 14.2902 12.7383 14.2874ZM12.4758 12.6317C12.2804 12.4307 12.1017 12.2464 11.9174 12.0621C11.7806 11.9281 11.6298 11.9197 11.5181 12.0314C11.4064 12.1431 11.4176 12.2939 11.5544 12.4307C11.7862 12.6652 12.0179 12.8969 12.2524 13.1287C12.42 13.2934 12.5428 13.2934 12.7103 13.1259C13.0482 12.7908 13.3832 12.4558 13.7183 12.1179C13.8049 12.0314 13.8998 11.9476 13.978 11.8499C14.0673 11.7382 14.0589 11.6154 13.9584 11.5121C13.8579 11.4115 13.7378 11.4032 13.6206 11.4869C13.5759 11.5176 13.5396 11.5595 13.5033 11.5986C13.1683 11.9337 12.8332 12.2715 12.4758 12.6289V12.6317Z" fill="#70FF00"/>
</svg>
