<svg width="20" height="20" viewBox="0 0 20 20" fill="none" xmlns="http://www.w3.org/2000/svg">
<path d="M10.3231 2.23795C10.3231 2.83386 10.3231 3.42924 10.3231 4.02516C10.3231 4.37166 10.2363 4.4548 9.88761 4.47572C7.48678 4.61893 5.76876 5.78072 4.86068 8.00669C3.52456 11.2818 5.71405 14.9871 9.22304 15.4741C12.3142 15.9027 15.1495 13.7095 15.4954 10.6188C15.518 10.4199 15.519 10.2182 15.5335 10.0181C15.5491 9.79873 15.6596 9.68502 15.8773 9.68448C17.1351 9.6818 18.3935 9.6818 19.6513 9.68448C19.8739 9.68448 19.9951 9.81053 19.9978 10.038C20.0026 10.4531 19.9978 10.8677 19.9994 11.2829C19.9999 11.4706 19.8991 11.5774 19.7328 11.6406C19.3332 11.7919 18.9358 11.9496 18.534 12.0966C18.4047 12.1438 18.3302 12.2092 18.2921 12.3519C18.114 13.0127 17.8437 13.637 17.516 14.2383C17.4763 14.3107 17.4704 14.4314 17.502 14.5081C17.6667 14.9099 17.8442 15.3063 18.0261 15.701C18.1199 15.9049 18.0883 16.0652 17.9268 16.224C17.3497 16.792 16.7774 17.3649 16.2088 17.9415C16.0543 18.0981 15.8972 18.1222 15.7019 18.0332C15.3072 17.8524 14.9108 17.6744 14.5096 17.5092C14.4329 17.4775 14.3116 17.4802 14.2403 17.5199C13.6283 17.8562 12.9873 18.1179 12.319 18.3185C12.2396 18.3427 12.1506 18.4237 12.1184 18.5004C11.9532 18.8946 11.8057 19.2964 11.6512 19.6949C11.5504 19.955 11.479 20.0055 11.205 20.0055C10.402 20.006 9.59904 20.0012 8.79608 20.0087C8.56973 20.0108 8.43402 19.925 8.35625 19.7115C8.21035 19.3098 8.0591 18.9096 7.89389 18.5154C7.85903 18.4323 7.76677 18.3421 7.68256 18.3169C7.01423 18.1169 6.3738 17.853 5.76125 17.5183C5.68992 17.4791 5.56869 17.4786 5.49146 17.5102C5.09025 17.6754 4.69386 17.8535 4.29909 18.0343C4.10385 18.1233 3.94723 18.0976 3.79275 17.9409C3.2199 17.359 2.64222 16.7824 2.06132 16.2084C1.91167 16.0609 1.88378 15.9086 1.97014 15.7198C2.15036 15.3245 2.31825 14.9238 2.5033 14.5307C2.55854 14.4132 2.53655 14.3295 2.48774 14.2174C2.22438 13.6124 1.96692 13.0047 1.72555 12.3905C1.66762 12.2425 1.60916 12.1448 1.45092 12.0896C1.0599 11.9539 0.678003 11.7924 0.28913 11.6498C0.0847697 11.5731 -0.00158708 11.4422 2.20536e-05 11.2233C0.00645859 10.407 0.00592221 9.59008 2.20536e-05 8.77371C-0.00158708 8.56238 0.0869152 8.43633 0.281084 8.36445C0.681758 8.21534 1.07868 8.05604 1.48042 7.90961C1.60486 7.86401 1.67084 7.79965 1.70731 7.66502C1.88754 7.00474 2.14821 6.37557 2.48989 5.78233C2.54889 5.67988 2.55854 5.59889 2.50651 5.48786C2.322 5.0947 2.15411 4.69402 1.97282 4.29925C1.88271 4.10347 1.91114 3.94738 2.06722 3.79344C2.64919 3.22059 3.2258 2.64238 3.79919 2.06148C3.94723 1.91129 4.09956 1.88555 4.28783 1.9719C4.6826 2.15213 5.08274 2.32162 5.47697 2.50453C5.58425 2.55441 5.66524 2.55817 5.77145 2.49648C6.37058 2.15106 7.00726 1.89467 7.67022 1.69889C7.75551 1.67368 7.85098 1.58679 7.88585 1.50526C8.05427 1.10512 8.20767 0.698545 8.35786 0.291434C8.43402 0.087074 8.56329 -0.00464662 8.78267 0.000180777C9.15706 0.00876282 9.53199 0.00125353 9.90692 0.00286267C10.2169 0.00393542 10.3226 0.113356 10.3231 0.430356C10.3237 1.03271 10.3231 1.63506 10.3231 2.23741V2.23795ZM9.67413 0.647052C9.46441 0.647052 9.27131 0.656707 9.07929 0.643834C8.9468 0.635252 8.89316 0.691035 8.85025 0.806893C8.70704 1.19577 8.54988 1.57928 8.40667 1.96761C8.3482 2.12585 8.2538 2.22132 8.08592 2.26262C7.30817 2.45357 6.57494 2.75555 5.89106 3.17285C5.73873 3.26618 5.59873 3.26779 5.43728 3.19216C5.06235 3.01677 4.67938 2.858 4.30338 2.68421C4.19771 2.6354 4.1312 2.63862 4.04431 2.72712C3.60931 3.17232 3.16948 3.61268 2.72375 4.04715C2.63417 4.13458 2.63417 4.20163 2.68245 4.30622C2.85623 4.68222 3.015 5.0652 3.1904 5.44066C3.26603 5.60211 3.26281 5.7421 3.16948 5.89443C2.75432 6.57188 2.45502 7.29921 2.26461 8.06998C2.21902 8.25289 2.11925 8.35641 1.94654 8.4197C1.56356 8.5597 1.18649 8.71471 0.803516 8.85363C0.685513 8.89654 0.640993 8.95393 0.642602 9.08374C0.650112 9.69253 0.650648 10.3019 0.642602 10.9112C0.640993 11.0474 0.680149 11.1129 0.80888 11.159C1.19829 11.2995 1.58126 11.4577 1.97014 11.6004C2.12998 11.6594 2.21902 11.7597 2.26032 11.9255C2.45449 12.7021 2.75486 13.4359 3.17377 14.1192C3.26281 14.2646 3.26763 14.4008 3.1963 14.5548C3.02036 14.9372 2.85784 15.3261 2.67976 15.7069C2.62774 15.818 2.64597 15.8818 2.73018 15.9644C3.17431 16.4005 3.61467 16.8403 4.05075 17.2844C4.13013 17.3654 4.19289 17.3751 4.29319 17.3289C4.66973 17.1562 5.0527 16.998 5.42709 16.8215C5.59498 16.7421 5.7398 16.7432 5.8991 16.8398C6.57762 17.2528 7.30495 17.5521 8.07572 17.7425C8.25058 17.7859 8.35142 17.8803 8.41203 18.0466C8.55149 18.4296 8.70704 18.8067 8.8465 19.1891C8.89102 19.3114 8.94519 19.3656 9.08841 19.3634C9.69719 19.3538 10.3065 19.3538 10.9153 19.3634C11.0569 19.3656 11.1138 19.3135 11.1583 19.1902C11.2977 18.8072 11.4533 18.4301 11.5928 18.0477C11.6534 17.8809 11.7542 17.7859 11.9291 17.7425C12.7063 17.551 13.4395 17.2495 14.1228 16.8306C14.2618 16.7454 14.3926 16.7378 14.5401 16.8049C14.9296 16.9819 15.3233 17.1482 15.7111 17.3279C15.8124 17.3751 15.8736 17.3643 15.9524 17.2839C16.3885 16.8398 16.8283 16.3994 17.2725 15.9633C17.3567 15.8807 17.3744 15.8169 17.3223 15.7059C17.1475 15.3304 16.9919 14.9458 16.8155 14.5709C16.7355 14.4014 16.7436 14.2576 16.8401 14.0994C17.2499 13.4268 17.5465 12.7054 17.7359 11.9416C17.7809 11.7592 17.8775 11.6541 18.0518 11.5908C18.4407 11.4492 18.8263 11.2974 19.2109 11.144C19.2651 11.1225 19.345 11.0699 19.3477 11.0281C19.3611 10.7975 19.3541 10.5657 19.3541 10.3346H16.1697C16.0479 12.0027 15.3962 13.4171 14.1679 14.5441C12.9332 15.6774 11.4635 16.2261 9.78945 16.1704C6.7144 16.0679 4.22829 13.7186 3.87267 10.7379C3.708 9.35783 3.96922 8.05389 4.69333 6.86581C5.82723 5.00566 7.51092 4.01443 9.67359 3.82455V0.647052H9.67413Z" fill="#FAFF00"/>
<path d="M14.7865 10.0223C14.7752 12.6709 12.6324 14.7998 9.987 14.7896C7.32925 14.78 5.19929 12.6296 5.21592 9.97402C5.23308 7.32431 7.37913 5.20133 10.0245 5.21688C12.6753 5.23244 14.7972 7.37419 14.786 10.0218L14.7865 10.0223ZM13.2889 12.4977C14.4534 11.0779 14.5559 8.54779 12.7826 6.93168C11.064 5.36599 8.39771 5.53013 6.86099 7.30178C5.36664 9.02463 5.73406 11.3847 6.72475 12.4886C7.08573 11.4646 7.77015 10.7485 8.79087 10.3248C8.37411 9.9413 8.13059 9.49557 8.10807 8.94578C8.085 8.38741 8.2722 7.90735 8.66429 7.51258C9.33637 6.83674 10.3968 6.77023 11.1536 7.35113C11.535 7.64453 11.7774 8.02804 11.8643 8.50112C11.9963 9.22201 11.7517 9.82168 11.2244 10.3216C12.3004 10.7931 12.9204 11.5022 13.2895 12.4966L13.2889 12.4977ZM10.0262 14.1476C10.99 14.1385 11.8579 13.8247 12.6238 13.217C12.7274 13.1349 12.7558 13.056 12.729 12.9278C12.4672 11.6845 11.299 10.7577 9.99129 10.762C8.69218 10.7662 7.53092 11.6942 7.274 12.9278C7.24718 13.056 7.27614 13.1354 7.37913 13.2175C8.15098 13.829 9.02527 14.1438 10.0262 14.1481V14.1476ZM11.2518 8.87444C11.2587 8.17447 10.6977 7.60162 10.0042 7.60001C9.32671 7.59786 8.76137 8.15248 8.75172 8.82939C8.74153 9.53204 9.29185 10.1038 9.98914 10.114C10.672 10.1242 11.2459 9.561 11.2523 8.87498L11.2518 8.87444Z" fill="#FAFF00"/>
<path d="M14.4134 6.50743C14.319 6.45486 14.2284 6.42429 14.1635 6.36529C13.9167 6.14055 13.6791 5.90615 13.4367 5.67711C13.2559 5.50655 13.2436 5.33437 13.4184 5.15736C13.9779 4.59256 14.5405 4.03044 15.1048 3.47046C15.2689 3.3074 15.4266 3.30043 15.5993 3.45705C15.8509 3.68608 16.0971 3.92209 16.3347 4.1656C16.5133 4.34851 16.5085 4.50942 16.3294 4.68964C15.779 5.24479 15.226 5.7978 14.6698 6.34651C14.6028 6.41249 14.5073 6.4495 14.4129 6.50743H14.4134ZM14.3796 5.65351C14.8109 5.2228 15.2276 4.80657 15.6278 4.40644L15.4105 4.16292C14.9852 4.58934 14.5657 5.00986 14.1447 5.43199C14.2139 5.49689 14.3056 5.58379 14.3796 5.65351Z" fill="#FAFF00"/>
<path d="M12.6596 5.10974C12.6462 5.10921 12.6317 5.11189 12.6199 5.10706C12.2305 4.95151 11.8357 4.80669 11.4554 4.63237C11.3294 4.57444 11.2961 4.4205 11.3546 4.27836C11.6667 3.51831 11.9778 2.75826 12.2959 2.0009C12.3705 1.82336 12.5244 1.75202 12.71 1.82014C13.0544 1.94619 13.3944 2.08565 13.7297 2.23476C13.9067 2.31361 13.9667 2.47238 13.8927 2.65421C13.5864 3.40889 13.277 4.16304 12.9535 4.91075C12.9111 5.00891 12.7819 5.07005 12.6928 5.14783L12.6596 5.11028V5.10974ZM12.4938 4.35292C12.7272 3.78918 12.9524 3.24476 13.1831 2.68693C13.0383 2.629 12.9122 2.57804 12.7754 2.52333C12.5416 3.08814 12.3163 3.6331 12.0867 4.18771C12.2251 4.24403 12.3469 4.29338 12.4938 4.35292Z" fill="#FAFF00"/>
<path d="M17.4012 5.81982C17.4709 5.87936 17.5964 5.93944 17.6463 6.03759C17.8094 6.35835 17.9526 6.69037 18.0877 7.02453C18.1682 7.22299 18.0942 7.37854 17.892 7.46329C17.1593 7.77063 16.425 8.07529 15.6891 8.37459C15.4595 8.46792 15.3131 8.39015 15.2112 8.15843C15.0851 7.87147 14.9542 7.58612 14.8201 7.30291C14.7091 7.06851 14.7595 6.89204 14.9918 6.79442C15.7245 6.48601 16.4593 6.18349 17.1936 5.88043C17.2424 5.86005 17.2961 5.8504 17.4012 5.82036V5.81982ZM17.2011 6.57558C16.639 6.8089 16.0887 7.0374 15.5341 7.26751C15.6032 7.41448 15.659 7.53462 15.7207 7.6655C16.2785 7.43378 16.824 7.2069 17.3829 6.97465C17.318 6.83197 17.2639 6.71182 17.2017 6.57504L17.2011 6.57558Z" fill="#FAFF00"/>
</svg>
