<svg width="20" height="21" viewBox="0 0 20 21" fill="none" xmlns="http://www.w3.org/2000/svg">
<path d="M8.73857 20.4658C8.34408 20.3341 7.92403 20.2523 7.56062 20.0611C6.7154 19.6159 6.21 18.8859 5.98975 17.9385H12.1651C12.0589 18.2178 11.9853 18.4892 11.8583 18.732C11.3592 19.6869 10.5757 20.2559 9.51575 20.4309C9.47839 20.4372 9.44259 20.4539 9.40602 20.4658H8.73857Z" fill="white"/>
<path d="M9.61196 1.90929C8.78641 3.88788 8.85721 5.79863 10.0021 7.5967C11.1419 9.38684 12.8241 10.2585 14.9024 10.3406C14.9775 10.7671 15.0266 11.1928 15.1293 11.6047C15.405 12.7096 15.9733 13.6432 16.8276 14.3903C17.3137 14.8152 17.5485 15.3238 17.3928 15.9701C17.2374 16.6152 16.6526 17.0489 15.9171 17.0878C15.8518 17.0913 15.7861 17.0901 15.7208 17.0901C11.2796 17.0901 6.83796 17.0901 2.39672 17.0909C2.07854 17.0909 1.77176 17.0485 1.48543 16.8989C0.564304 16.4176 0.405798 15.2103 1.1877 14.5077C1.86222 13.9015 2.4042 13.2032 2.75779 12.3617C3.039 11.6923 3.19278 10.9937 3.20064 10.2672C3.20969 9.45587 3.20143 8.64412 3.20458 7.83237C3.21481 5.09559 4.94772 2.80832 7.56244 2.08029C8.22477 1.8958 8.89968 1.85136 9.61157 1.90929H9.61196Z" fill="white"/>
<path d="M14.919 8.6353C12.5993 8.62816 10.7339 6.73487 10.7417 4.39563C10.7492 2.07187 12.632 0.185713 14.9375 0.191664C17.2561 0.197616 19.1231 2.09567 19.1113 4.43412C19.0999 6.76899 17.2301 8.64244 14.919 8.6353Z" fill="#FF0000"/>
</svg>
