<svg width="20" height="23" viewBox="0 0 20 23" fill="none" xmlns="http://www.w3.org/2000/svg">
<path d="M14.9823 5.02628L14.9823 5.02626C14.6534 3.13592 13.6052 1.84714 11.8336 1.11585L14.9823 5.02628ZM14.9823 5.02628C15.3421 7.09319 14.3252 9.20622 12.4516 10.2117L12.4515 10.2117M14.9823 5.02628L12.4515 10.2117M12.4515 10.2117C10.5972 11.207 8.80591 11.1076 7.07842 9.9051L12.4515 10.2117ZM9.51407 0.77779C9.57614 0.771517 9.62994 0.759893 9.66867 0.75H10.3463C10.5125 0.788303 10.6903 0.824088 10.8536 0.856937C10.9543 0.877193 11.0494 0.896333 11.1329 0.914259C11.4031 0.97232 11.6313 1.03245 11.8334 1.11574L9.51407 0.77779ZM7.27443 1.5641C7.93751 1.1143 8.6869 0.861678 9.51359 0.777838L7.07832 9.90503C5.70352 8.94762 4.99248 7.60631 4.96109 5.928L4.96108 5.9279C4.92602 4.06555 5.71074 2.62489 7.27443 1.5641Z" stroke="white" stroke-width="1.5"/>
<path d="M3.54272 19.4818L3.54282 19.4818C5.41768 20.8799 7.54177 21.5799 10.2553 21.6149L10.3251 21.615C11.5864 21.6178 13.1268 21.2831 14.7549 20.4939C16.5195 19.6382 17.9237 18.3523 19.02 16.7027L19.02 16.7026C19.1252 16.5444 19.1869 16.4487 19.2253 16.3807C19.1854 16.3034 19.1231 16.1994 19.0159 16.0212L19.0159 16.0212C18.0741 14.4555 16.7616 13.4211 15.011 12.9335L15.0108 12.9335C14.4317 12.7721 14.0856 12.7858 13.7034 13.0669L13.7034 13.0669C12.6825 13.8176 11.4885 14.1046 10.3174 14.1536L3.54272 19.4818ZM3.54272 19.4818C2.42828 18.651 1.49798 17.6441 0.773685 16.4573M3.54272 19.4818L0.773685 16.4573M6.03117 12.9082L6.03075 12.9079C5.85138 12.7815 5.76223 12.7767 5.67799 12.7945L6.03117 12.9082ZM6.03117 12.9082C7.3166 13.813 8.76077 14.2193 10.3171 14.1536L6.03117 12.9082ZM0.773685 16.4573C1.69331 14.5839 3.1378 13.4035 5.16941 12.895C5.26565 12.8711 5.32716 12.8604 5.4043 12.847C5.47204 12.8352 5.55184 12.8213 5.67781 12.7946L0.773685 16.4573ZM0.735139 16.5369L0.735191 16.5368L0.735139 16.5369Z" stroke="white" stroke-width="1.5"/>
</svg>
