<svg width="41" height="39" viewBox="0 0 41 39" fill="none" xmlns="http://www.w3.org/2000/svg">
<g clip-path="url(#clip0_10_14)">
<path d="M-5.76701e-05 12.1885H36.1666V18.0575C32.2148 16.4749 28.3902 16.6974 24.8214 19.0767C21.2675 21.4462 19.5259 24.8969 19.3526 29.2506H18.9043C13.8881 29.2506 8.87178 29.2506 3.85442 29.2506C1.84962 29.2506 0.551958 28.2161 0.0577114 26.2298C0.0448738 26.1788 0.0181289 26.131 -0.00219727 26.0822C-0.00219727 21.4506 -0.00219727 16.8201 -0.00219727 12.1885H-5.76701e-05ZM9.6891 17.0632C8.5027 17.0632 7.31736 17.061 6.13095 17.0632C5.35214 17.0654 4.81189 17.5614 4.80547 18.2702C4.79906 18.979 5.34251 19.4968 6.11063 19.4979C8.49628 19.5011 10.8809 19.5011 13.2665 19.4979C14.0368 19.4968 14.5781 18.9812 14.5717 18.2702C14.5663 17.5614 14.025 17.0643 13.2462 17.0621C12.0598 17.0589 10.8744 17.0621 9.68803 17.0621L9.6891 17.0632ZM9.69445 24.3758C10.8669 24.3758 12.0394 24.3769 13.2119 24.3758C14.0239 24.3748 14.5695 23.8863 14.5717 23.1623C14.5749 22.4383 14.0282 21.9401 13.2205 21.9401C10.8616 21.9379 8.50377 21.9379 6.14486 21.9401C5.34465 21.9401 4.79585 22.4503 4.8044 23.1732C4.81403 23.8798 5.35535 24.3737 6.13523 24.3758C7.32164 24.3791 8.50697 24.3758 9.69338 24.3758H9.69445Z" fill="white"/>
<path d="M0 3.16934C0.0599087 2.94899 0.112329 2.72648 0.181866 2.51047C0.678252 0.988682 2.04866 0.00418447 3.69615 0.00201358C7.94004 -0.00232819 12.1829 0.000928139 16.4267 0.000928139C21.7244 0.000928139 27.022 0.000928139 32.3197 0.000928139C34.6903 0.000928139 36.1934 1.52706 36.1955 3.93241C36.1955 4.22873 36.1955 4.52506 36.1955 4.87566H0V3.16934Z" fill="white"/>
<path d="M0 7.31372H36.1667V9.75163H0V7.31372Z" fill="white"/>
<path d="M31.4242 19.501C36.7133 19.5173 41.0107 23.9046 41 29.2743C40.9882 34.657 36.6481 39.0259 31.3365 38.9999C26.0517 38.9738 21.7608 34.5756 21.7811 29.2059C21.8014 23.8417 26.1309 19.4858 31.4242 19.5021V19.501ZM30.2089 31.2759C30.0324 31.0588 29.9468 30.9361 29.8452 30.8319C29.0643 30.0352 28.2812 29.2418 27.497 28.4494C27.1632 28.1118 26.7685 27.949 26.2978 28.0749C25.3574 28.3245 25.0814 29.4306 25.7885 30.16C26.9204 31.3269 28.0672 32.4796 29.2098 33.6356C29.8559 34.2902 30.5192 34.2956 31.1632 33.6443C33.0899 31.6949 35.0134 29.7421 36.9348 27.7873C37.5114 27.2 37.5488 26.463 37.0439 25.9518C36.5389 25.4394 35.8115 25.4807 35.2349 26.0636C33.6676 27.6505 32.1025 29.2396 30.5395 30.8308C30.4368 30.935 30.3619 31.0675 30.21 31.2748L30.2089 31.2759Z" fill="#FAFF00"/>
</g>
<defs>
<clipPath id="clip0_10_14">
<rect width="41" height="39" fill="white"/>
</clipPath>
</defs>
</svg>
