<svg width="51" height="18" viewBox="0 0 51 18" fill="none" xmlns="http://www.w3.org/2000/svg">
<g clip-path="url(#clip0_43_38)">
<path d="M48.9426 10.8138L50.3297 11.7335C49.8795 12.393 48.8028 13.5246 46.9411 13.5246C44.6294 13.5246 42.9078 11.7456 42.9078 9.48258C42.9078 7.07442 44.6477 5.44067 46.7465 5.44067C48.8574 5.44067 49.8916 7.11065 50.2263 8.01221L50.4088 8.47213L44.9701 10.7109C45.3838 11.5217 46.0287 11.9332 46.9411 11.9332C47.8537 11.9332 48.4864 11.4854 48.9426 10.8138ZM44.6781 9.35563L48.31 7.85496C48.1092 7.35279 47.5131 6.99584 46.8012 6.99584C45.8948 6.99584 44.6356 7.79454 44.6781 9.35563Z" fill="black"/>
<path d="M40.2858 1.32007H42.0378V13.1555H40.2858V1.32007Z" fill="black"/>
<path d="M37.5239 5.7552H39.2151V12.9436C39.2151 15.9266 37.4448 17.1549 35.352 17.1549C33.381 17.1549 32.1948 15.8358 31.7507 14.7649L33.3019 14.1234C33.5817 14.7829 34.257 15.5636 35.352 15.5636C36.6965 15.5636 37.5239 14.7346 37.5239 13.1856V12.6048H37.4631C37.0615 13.0888 36.295 13.5244 35.3217 13.5244C33.2897 13.5244 31.4281 11.7636 31.4281 9.49464C31.4281 7.21343 33.2897 5.43457 35.3217 5.43457C36.2889 5.43457 37.0615 5.86418 37.4631 6.33614H37.5239V5.7552ZM37.6455 9.49464C37.6455 8.06662 36.6904 7.02587 35.4737 7.02587C34.2448 7.02587 33.2106 8.06662 33.2106 9.49464C33.2106 10.9044 34.2448 11.927 35.4737 11.927C36.6905 11.9331 37.6456 10.9044 37.6456 9.49464" fill="black"/>
<path d="M21.8102 9.46443C21.8102 11.794 19.9852 13.5063 17.7464 13.5063C15.5077 13.5063 13.6826 11.788 13.6826 9.46443C13.6826 7.1228 15.5077 5.4165 17.7464 5.4165C19.9852 5.4165 21.8102 7.1228 21.8102 9.46443ZM20.0338 9.46443C20.0338 8.01233 18.9752 7.01382 17.7464 7.01382C16.5176 7.01382 15.459 8.01233 15.459 9.46443C15.459 10.9045 16.5176 11.915 17.7464 11.915C18.9753 11.915 20.0338 10.9045 20.0338 9.46443Z" fill="black"/>
<path d="M30.686 9.48258C30.686 11.8122 28.8609 13.5245 26.6222 13.5245C24.3835 13.5245 22.5585 11.8121 22.5585 9.48258C22.5585 7.14095 24.3835 5.44067 26.6222 5.44067C28.8609 5.44067 30.686 7.13493 30.686 9.48258ZM28.9035 9.48258C28.9035 8.03048 27.845 7.03197 26.6161 7.03197C25.3873 7.03197 24.3287 8.03048 24.3287 9.48258C24.3287 10.9226 25.3873 11.9332 26.6161 11.9332C27.851 11.9332 28.9035 10.9166 28.9035 9.48258Z" fill="black"/>
<path d="M7.0029 11.7517C4.45388 11.7517 2.45857 9.70648 2.45857 7.17117C2.45857 4.63596 4.45388 2.59077 7.0029 2.59077C8.37781 2.59077 9.38152 3.12926 10.1237 3.81909L11.3466 2.60291C10.3124 1.61664 8.93142 0.866211 7.0029 0.866211C3.51101 0.866308 0.572632 3.69816 0.572632 7.17117C0.572632 10.6444 3.51101 13.4761 7.0029 13.4761C8.88884 13.4761 10.3124 12.859 11.4257 11.7093C12.5693 10.5717 12.9221 8.97431 12.9221 7.67946C12.9221 7.27403 12.8735 6.85657 12.8187 6.54798H7.0029V8.23009H11.1458C11.0241 9.28299 10.6895 10.003 10.1968 10.4931C9.60056 11.0922 8.65769 11.7517 7.0029 11.7517Z" fill="black"/>
</g>
<defs>
<clipPath id="clip0_43_38">
<rect width="50" height="16.318" fill="white" transform="translate(0.5 0.841064)"/>
</clipPath>
</defs>
</svg>
