<svg width="22" height="31" viewBox="0 0 22 31" fill="none" xmlns="http://www.w3.org/2000/svg">
<g clip-path="url(#clip0_48_420)">
<path d="M19.6483 31H2.35494C2.25743 30.9667 2.16278 30.9259 2.06383 30.8986C0.961032 30.5929 0.169428 29.626 0.0217194 28.4033C-0.111649 27.3017 0.439032 26.1274 1.39699 25.5902C1.67807 25.4328 1.78419 25.2497 1.76985 24.9441C1.76841 24.9047 1.77558 24.8639 1.77702 24.823C1.94193 22.0598 2.89702 19.6826 4.84305 17.7835C5.25606 17.3809 5.6576 16.9588 6.02185 16.5078C6.5754 15.8193 6.57683 15.1777 6.02185 14.4922C5.63178 14.011 5.19296 13.5721 4.76274 13.1288C3.8306 12.1679 3.0562 11.092 2.55284 9.8148C2.05809 8.56336 1.82721 7.24988 1.75837 5.9031C1.7469 5.68974 1.68093 5.57473 1.4945 5.46729C0.457675 4.87108 -0.0456817 3.93288 0.0174172 2.68598C0.0762139 1.53593 0.852043 0.512984 1.89748 0.146783C2.04805 0.0938202 2.20293 0.0484233 2.35494 0C8.11989 0 13.8848 0 19.6498 0C19.71 0.0211852 19.7702 0.0499365 19.8319 0.0635556C20.9462 0.322318 21.7693 1.26355 21.9672 2.50591C22.1407 3.59543 21.6288 4.81207 20.6809 5.35834C20.3267 5.56263 20.2105 5.79718 20.2277 6.17397C20.2306 6.22391 20.2248 6.27536 20.2205 6.3253C20.0771 8.05492 19.6684 9.69677 18.7779 11.1797C18.1999 12.1437 17.4341 12.929 16.6698 13.722C16.3586 14.0458 16.0546 14.3878 15.8022 14.7615C15.4852 15.2322 15.501 15.7497 15.7979 16.2369C15.9312 16.4548 16.0904 16.6606 16.2611 16.8483C16.5981 17.219 16.9523 17.5731 17.3008 17.9318C18.3405 19.0031 19.1522 20.2319 19.6354 21.6891C20.0011 22.7907 20.1875 23.9302 20.242 25.0939C20.2521 25.3118 20.3281 25.4207 20.5088 25.5267C21.5327 26.1198 22.059 27.0505 21.9787 28.2807C21.8998 29.508 21.2674 30.3569 20.1832 30.8154C20.0097 30.8895 19.8262 30.938 19.6469 30.997L19.6483 31ZM18.4107 5.8335H3.59254C3.60258 6.006 3.60688 6.15733 3.61979 6.30714C3.6327 6.45695 3.65421 6.60676 3.67285 6.75657C3.89083 8.50434 4.50748 10.0599 5.67911 11.3386C6.33017 12.0483 6.98124 12.7595 7.66242 13.436C8.40813 14.1759 9.21838 14.8312 10.162 15.2791C10.7184 15.5439 11.2734 15.5757 11.8169 15.2836C12.2744 15.037 12.7232 14.7691 13.1492 14.4665C14.2749 13.666 15.1439 12.5643 16.1105 11.5777C17.6421 10.0161 18.3032 8.05643 18.4122 5.83198L18.4107 5.8335ZM3.58824 25.1862C4.27803 25.1862 4.94343 25.1907 5.60884 25.1786C5.67194 25.1786 5.75511 25.0742 5.78953 24.9985C5.98743 24.5627 6.15665 24.1133 6.36459 23.6835C6.98554 22.4003 7.70257 21.1882 8.79533 20.2863C9.94689 19.3345 11.1945 19.0969 12.5311 19.8324C13.3542 20.2848 13.9709 20.9839 14.5144 21.7617C15.197 22.7408 15.7219 23.8122 16.1664 24.9304C16.2051 25.0273 16.2955 25.1726 16.3643 25.1741C17.0383 25.1922 17.7124 25.1847 18.3849 25.1847C18.4179 24.1027 18.0121 22.4291 17.4901 21.3698C16.9695 20.3121 16.1736 19.504 15.3963 18.6687C14.9317 18.1693 14.5316 17.6004 14.1301 17.042C13.9881 16.8437 13.9293 16.5804 13.8303 16.3444C11.8011 17.6231 10.6223 17.9545 8.1414 16.3368C7.83881 17.4611 7.05438 18.2087 6.30579 18.9865C5.97309 19.333 5.64182 19.6841 5.33923 20.0594C4.16043 21.5272 3.69149 23.2704 3.58681 25.1847L3.58824 25.1862ZM11.0067 3.87538C12.3805 3.87538 13.7543 3.87538 15.1282 3.87538C16.4934 3.87538 17.8572 3.8784 19.2224 3.87387C19.7229 3.87235 20.1144 3.49707 20.1603 3.00073C20.2048 2.52709 19.9022 2.07766 19.4533 1.9672C19.3343 1.93845 19.2067 1.93996 19.0833 1.93996C13.6927 1.93996 8.30058 1.93996 2.90993 1.93996C2.84253 1.93996 2.77656 1.93693 2.70916 1.94147C2.29615 1.96871 1.94767 2.28346 1.85732 2.71019C1.77415 3.09909 1.95054 3.55457 2.30188 3.73616C2.48114 3.82847 2.70342 3.87084 2.90563 3.87084C5.60597 3.87992 8.30632 3.87689 11.0067 3.87689V3.87538ZM11.0009 27.1246C8.68204 27.1246 6.36316 27.1246 4.04427 27.1246C3.60545 27.1246 3.16663 27.1155 2.7278 27.1276C2.25456 27.1413 1.87166 27.5392 1.84011 28.025C1.81 28.5017 2.12406 28.942 2.57292 29.0389C2.69338 29.0646 2.81958 29.06 2.94291 29.06C8.31492 29.06 13.6869 29.06 19.0589 29.06C19.145 29.06 19.231 29.0661 19.3171 29.0555C19.7028 29.0086 19.9739 28.7937 20.1072 28.4078C20.3338 27.7526 19.8692 27.1231 19.1593 27.1231C16.4403 27.1216 13.7199 27.1231 11.0009 27.1231V27.1246ZM7.73986 25.168H14.272C13.7701 24.0558 13.2295 23.0071 12.4264 22.14C12.2342 21.9342 12.0119 21.7511 11.7811 21.5968C11.2763 21.2578 10.7557 21.2578 10.2466 21.5938C10.0774 21.7058 9.91103 21.8283 9.76619 21.9706C8.85843 22.8543 8.28337 23.9741 7.74273 25.1695L7.73986 25.168Z" fill="black"/>
</g>
<defs>
<clipPath id="clip0_48_420">
<rect width="22" height="31" fill="white"/>
</clipPath>
</defs>
</svg>
