<svg width="834" height="137" viewBox="0 0 834 137" fill="none" xmlns="http://www.w3.org/2000/svg">
<path d="M1.13867 9.4971L46.1778 2.27148L51.8077 9.4971L63.0675 5.36818L72.7918 17.2388L87.6343 12.5938H94.7996L99.9176 9.4971H130.626L137.28 4.85206H169.012L173.106 12.5938L177.201 4.85206H193.579L199.72 9.4971L203.815 5.36818H207.909L217.634 46.6574H226.846L231.452 40.464L236.57 44.0768H245.271L249.366 73.4954H261.137L265.743 96.2045H271.885C272.568 101.194 274.342 111.275 275.98 111.688C277.617 112.101 314.877 111.86 333.302 111.688L338.42 106.527L343.027 135.429H833.851" stroke="#01D9FD" stroke-width="3"/>
</svg>
