<svg width="15" height="16" viewBox="0 0 15 16" fill="none" xmlns="http://www.w3.org/2000/svg">
<path d="M11.0067 2.55597C10.9608 2.2922 10.9218 2.072 10.8851 1.84951C10.8003 1.35177 11.0916 0.922851 11.5664 0.842571C12.0182 0.766879 12.4265 1.06277 12.5137 1.55133C12.6811 2.49404 12.844 3.43676 13.0022 4.37947C13.0871 4.88638 12.7912 5.29237 12.2889 5.37724C11.3462 5.5378 10.4035 5.69836 9.45846 5.86121C8.98824 5.94149 8.57538 5.65707 8.48363 5.19144C8.39876 4.76023 8.68089 4.33818 9.13734 4.24185C9.48369 4.16845 9.83233 4.11799 10.181 4.05606L10.1993 3.98954C9.79334 3.83128 9.39882 3.6386 8.98137 3.52392C5.80917 2.64313 2.59568 4.81986 2.21951 8.09299C1.88692 10.9831 3.95355 13.6644 6.80005 14.036C9.75434 14.4236 12.3623 12.5084 12.8853 9.57243C12.9793 9.04488 13.3624 8.74211 13.8303 8.82009C14.328 8.90267 14.6055 9.31554 14.5161 9.85456C14.2798 11.2721 13.6743 12.513 12.6765 13.5474C11.204 15.0773 9.39194 15.809 7.27485 15.7379C3.93062 15.6255 1.10935 13.0933 0.61391 9.79033C0.0748883 6.1938 2.26767 2.82663 5.76329 1.90915C7.51339 1.4504 9.19927 1.63849 10.8117 2.45964C10.8622 2.48487 10.915 2.5101 11.0067 2.55597Z" fill="#FAFF00"/>
</svg>
