<svg width="26" height="26" viewBox="0 0 26 26" fill="none" xmlns="http://www.w3.org/2000/svg">
<path d="M26 13.5488C25.8502 13.9948 25.6478 14.4088 25.2936 14.7336C24.8375 15.1517 24.3023 15.3726 23.682 15.3813C23.5551 15.3828 23.4282 15.3813 23.257 15.3813C23.257 15.4892 23.257 15.586 23.257 15.6827C23.257 18.1726 23.2611 20.6629 23.2549 23.1527C23.2514 24.5153 22.3865 25.6146 21.0827 25.9211C20.8544 25.9745 20.6133 25.9944 20.3779 25.9954C19.0553 26.0025 17.7327 25.9995 16.4101 25.9985C15.8357 25.9985 15.5304 25.6955 15.5299 25.1217C15.5284 23.1736 15.5085 21.2255 15.5391 19.278C15.5523 18.4205 14.9621 17.7953 14.0886 17.8248C13.3857 17.8487 12.6809 17.8503 11.9781 17.8243C11.1167 17.7922 10.5005 18.3946 10.5158 19.2917C10.5489 21.2138 10.526 23.1364 10.5255 25.0591C10.5255 25.7184 10.2431 25.9985 9.57956 25.9985C8.29112 25.9985 7.00217 26 5.71374 25.9985C4.00839 25.9959 2.80201 24.7933 2.79997 23.0876C2.79691 20.6313 2.79895 18.1751 2.79895 15.7194C2.79895 15.6191 2.79895 15.5188 2.79895 15.4083C2.50539 15.3833 2.22558 15.3844 1.95596 15.3319C1.04825 15.1542 0.428494 14.6155 0.135945 13.7453C-0.154055 12.8833 0.0263666 12.0931 0.615541 11.3986C0.681288 11.3212 0.75468 11.2499 0.826543 11.1781C4.29126 7.71679 7.75291 4.2519 11.2278 0.800249C11.4974 0.532426 11.8292 0.266132 12.1814 0.155133C13.0723 -0.125928 13.9433 -0.0576995 14.6645 0.631205C15.1054 1.05229 15.5314 1.48966 15.9631 1.92042C18.9727 4.92655 21.9787 7.93573 24.9944 10.9363C25.4327 11.3721 25.8262 11.8237 26 12.4307V13.5488ZM8.99956 24.4694C8.99956 24.3411 8.99956 24.2408 8.99956 24.141C9.0016 22.4221 8.98529 20.7026 9.01077 18.9837C9.03065 17.6293 10.1167 16.4399 11.4674 16.3492C12.5045 16.2795 13.5499 16.3345 14.5916 16.3375C14.6752 16.3375 14.7598 16.3574 14.8419 16.3762C16.1736 16.6787 17.0467 17.7698 17.0533 19.1639C17.061 20.8319 17.0553 22.5005 17.0553 24.1685C17.0553 24.2663 17.0553 24.364 17.0553 24.474C18.1542 24.474 19.2133 24.474 20.2724 24.474C21.229 24.474 21.73 23.9745 21.73 23.0203C21.73 20.251 21.7295 17.4816 21.731 14.7128C21.731 14.172 22.0429 13.8619 22.5827 13.8579C22.9471 13.8548 23.312 13.863 23.6759 13.8548C24.0724 13.8462 24.3859 13.5926 24.4904 13.2102C24.6076 12.781 24.3879 12.4872 24.104 12.2046C20.6668 8.77586 17.2332 5.34356 13.7986 1.91278C13.2446 1.35932 12.8129 1.36033 12.2563 1.91584C9.19323 4.97594 6.13013 8.03553 3.06704 11.0956C2.64758 11.5147 2.22558 11.9317 1.80867 12.3533C1.53141 12.6338 1.44783 12.9678 1.60582 13.3319C1.75821 13.6832 2.04465 13.8574 2.43097 13.8579C2.73626 13.8579 3.04155 13.8579 3.34634 13.8579C4.0563 13.8579 4.3249 14.1282 4.3249 14.8426C4.3249 17.612 4.32337 20.3813 4.32591 23.1502C4.32642 23.8605 4.80602 24.4425 5.47878 24.4608C6.63878 24.4924 7.7998 24.4694 8.99905 24.4694H8.99956Z" fill="#FAFF00"/>
</svg>
