<svg width="22" height="21" viewBox="0 0 22 21" fill="none" xmlns="http://www.w3.org/2000/svg">
<path d="M13.5564 0.345947C13.932 0.427232 14.3096 0.499619 14.6829 0.591418C15.1331 0.702628 15.2277 0.935561 15.0036 1.344C14.6909 1.9138 14.3766 2.48279 14.0527 3.07119C14.4499 3.22406 14.7478 3.476 14.8721 3.8901C14.9968 4.30542 14.9138 4.68718 14.6532 5.03294C16.6083 6.36098 17.6102 8.22931 17.7793 10.6052C18.0932 10.3977 18.3951 10.1809 18.7138 9.9933C18.9179 9.8736 19.1388 9.75915 19.3665 9.7086C20.1346 9.53794 20.9332 10.0083 21.1192 10.7762C21.2647 11.3767 21.1661 11.9449 20.6782 12.3995C19.694 13.3171 18.721 14.2464 17.7433 15.1708C17.1451 15.7366 16.5418 16.2971 15.9497 16.8693C15.5027 17.3016 14.9811 17.5058 14.3605 17.5026C12.5738 17.4937 10.787 17.4994 9.00023 17.4994C8.92767 17.4994 8.85471 17.4994 8.75529 17.4994C8.79218 17.5527 8.81462 17.5887 8.84028 17.6219C8.99823 17.8261 9.00344 18.0166 8.82304 18.2002C7.95471 19.0838 7.08277 19.9638 6.20642 20.8397C6.01119 21.0346 5.79911 21.0172 5.59025 20.8102C5.2527 20.4753 4.91997 20.1356 4.58522 19.798C3.36892 18.571 2.15262 17.3441 0.936311 16.1171C0.63404 15.8122 0.632832 15.6375 0.931095 15.3362C1.73208 14.5274 2.53386 13.719 3.33524 12.9106C3.67159 12.5713 3.79426 12.5681 4.15346 12.8892C4.16789 12.9021 4.18714 12.9094 4.21159 12.924C4.64335 12.5455 5.07191 12.1629 5.50808 11.7892C6.00678 11.3618 6.57284 11.0536 7.20024 10.8652C7.31289 10.8312 7.35377 10.7859 7.35899 10.6597C7.45761 8.29199 8.44379 6.41679 10.411 5.08996C10.4274 5.07904 10.4414 5.06448 10.4567 5.05154C9.90024 4.26013 10.245 3.36843 11.058 3.06675C10.9217 2.81966 10.7866 2.5754 10.6515 2.33074C10.4603 1.98457 10.2679 1.63881 10.079 1.29143C9.89864 0.959421 9.99364 0.709098 10.3532 0.616895C10.7076 0.525905 11.0684 0.462011 11.426 0.385175C11.4701 0.375874 11.5126 0.359293 11.5559 0.346352H13.5564V0.345947ZM4.76522 13.5071C5.81195 14.563 6.83342 15.5958 7.8609 16.6226C7.91182 16.6736 8.01565 16.6893 8.09503 16.6893C10.1953 16.693 12.2956 16.6897 14.3958 16.6942C14.7767 16.695 15.095 16.5725 15.3712 16.308C16.068 15.6419 16.7711 14.9824 17.4719 14.3204C18.3474 13.4926 19.2222 12.6635 20.0997 11.8382C20.3194 11.6315 20.4449 11.3917 20.3823 11.0848C20.2713 10.5396 19.6912 10.3099 19.2109 10.6262C17.9605 11.4483 16.7154 12.2778 15.4642 13.0987C15.3536 13.1715 15.3467 13.2524 15.3519 13.3672C15.3908 14.2585 14.749 15.0337 13.8851 15.0653C12.9061 15.1013 11.9251 15.0798 10.9454 15.0738C10.696 15.0721 10.5216 14.8433 10.5617 14.6091C10.5974 14.3992 10.7634 14.2718 11.0151 14.2714C11.9151 14.2698 12.8151 14.2727 13.7155 14.2698C14.201 14.2686 14.5574 13.9216 14.5562 13.4606C14.555 12.9976 14.201 12.6595 13.7107 12.6567C13.2441 12.6542 12.7762 12.6381 12.3108 12.6611C11.8466 12.6842 11.4661 12.537 11.0901 12.2628C9.93872 11.4233 8.67351 11.2332 7.31569 11.6703C6.27537 12.0052 5.58865 12.8289 4.76522 13.5067V13.5071ZM12.156 11.8855C12.156 11.7654 12.1472 11.6914 12.1577 11.6206C12.1829 11.4528 12.1216 11.3658 11.9656 11.285C11.786 11.1919 11.6249 11.0512 11.4793 10.9068C11.2809 10.7099 11.2837 10.4668 11.4585 10.301C11.6313 10.1373 11.8554 10.1664 12.061 10.3544C12.1769 10.4604 12.31 10.5607 12.4531 10.6181C12.6415 10.6937 12.8452 10.5744 12.9238 10.3827C13.0007 10.1959 12.927 9.97187 12.7438 9.88452C12.6628 9.8461 12.565 9.8372 12.4736 9.82951C11.9805 9.78867 11.5559 9.45181 11.41 8.97988C11.2657 8.5132 11.3956 7.95998 11.8013 7.69914C12.0935 7.5115 12.1969 7.31456 12.1661 6.98093C12.1464 6.7666 12.3465 6.60443 12.5541 6.60322C12.7614 6.602 12.9346 6.76013 12.9526 6.97769C12.9622 7.09133 12.9618 7.20658 12.9546 7.32062C12.9478 7.42658 12.9795 7.48158 13.0817 7.53374C13.2401 7.61462 13.3912 7.71896 13.5251 7.83664C13.7043 7.99395 13.7127 8.22526 13.57 8.39511C13.4273 8.56496 13.2052 8.58599 13.0144 8.44728C12.939 8.39228 12.8684 8.32879 12.7883 8.28269C12.6231 8.18806 12.4543 8.18523 12.304 8.31302C12.1697 8.42706 12.12 8.57628 12.1813 8.74815C12.2479 8.93417 12.3886 9.01344 12.581 9.02557C13.1775 9.06358 13.6093 9.43078 13.7295 9.99451C13.8446 10.534 13.5908 11.0387 13.0657 11.3327C13.0156 11.361 12.9699 11.4342 12.961 11.4928C12.9446 11.6028 12.9562 11.7173 12.9562 11.8523C13.7047 11.8414 14.462 11.7561 14.9908 12.4423C15.0653 12.3966 15.1222 12.3643 15.1768 12.3283C15.6727 12.0003 16.1597 11.6578 16.6681 11.3505C16.8902 11.2162 16.9563 11.0504 16.9555 10.8118C16.9487 8.88929 16.2099 7.30404 14.7374 6.09934C13.3383 4.95489 11.6794 4.99897 10.2919 6.16C9.27845 7.00843 8.63944 8.09707 8.31391 9.37699C8.20808 9.79272 8.14473 10.2153 8.16037 10.6573C9.52099 10.5506 10.7177 10.9271 11.78 11.7585C11.8702 11.8289 12.0077 11.8378 12.1556 11.8859L12.156 11.8855ZM5.89975 19.9443C6.58246 19.2544 7.26318 18.567 7.92385 17.8993C6.53957 16.5025 5.13845 15.0883 3.7674 13.7049C3.09751 14.3806 2.41319 15.0705 1.7421 15.7475C3.11996 17.1382 4.51747 18.5488 5.90015 19.9443H5.89975ZM10.9927 1.28577C11.2793 1.80623 11.5571 2.31618 11.8442 2.82087C11.867 2.86091 11.9536 2.88032 12.0109 2.88113C12.3757 2.88638 12.7406 2.88679 13.1054 2.88113C13.1619 2.88032 13.2469 2.85808 13.2701 2.81723C13.5568 2.31335 13.8342 1.80421 14.1212 1.28294C13.0689 1.0589 12.0418 1.05486 10.9927 1.28496V1.28577ZM12.6524 3.62441C12.2835 3.67051 12.0117 3.6964 11.7427 3.74128C11.5796 3.76838 11.4172 3.81448 11.2609 3.86988C11.036 3.94955 10.9329 4.1744 11.0075 4.38954C11.0765 4.5889 11.2681 4.68192 11.4918 4.61802C12.2018 4.41421 12.9113 4.41057 13.6197 4.62085C13.7756 4.66736 13.9083 4.64673 14.0206 4.52663C14.2238 4.30906 14.1348 3.94632 13.8322 3.86746C13.4156 3.75867 12.9887 3.69235 12.6524 3.62482V3.62441Z" fill="white" fill-opacity="0.8"/>
</svg>
