<svg width="20" height="24" viewBox="0 0 20 24" fill="none" xmlns="http://www.w3.org/2000/svg">
<path d="M7.49998 20.0078C7.37208 20.0078 7.27798 20.0078 7.18438 20.0078C5.62157 20.0078 4.05875 20.0161 2.49593 20.0043C1.05956 19.993 -0.0656304 18.8224 0.00297857 17.3953C0.0510049 16.3987 0.566555 15.683 1.46043 15.2501C1.6197 15.1731 1.66773 15.0913 1.66675 14.9207C1.65842 13.8784 1.66234 12.8367 1.66283 11.7945C1.66479 7.9766 3.9774 4.83032 7.61907 3.68907C7.66758 3.67388 7.71267 3.64936 7.75874 3.62927C7.29905 2.19486 7.56761 1.15705 8.57518 0.452592C9.47102 -0.173918 10.6398 -0.147935 11.5151 0.517793C12.4565 1.23352 12.7099 2.31251 12.2325 3.62828C12.3928 3.68319 12.5535 3.73761 12.7138 3.793C16.0599 4.95239 18.3005 8.06043 18.3319 11.5989C18.3422 12.7794 18.3333 13.9598 18.3333 15.1251C18.5583 15.2575 18.7788 15.3643 18.9739 15.5055C19.8471 16.1374 20.2059 17.239 19.8829 18.2567C19.5619 19.268 18.62 19.9926 17.563 20.0019C15.9913 20.0156 14.4202 20.0068 12.8485 20.0078C12.7451 20.0078 12.6417 20.0078 12.4986 20.0078C12.4986 20.3029 12.5035 20.5857 12.4977 20.8681C12.4702 22.276 11.3205 23.3746 9.91306 23.3408C8.64232 23.3104 7.54556 22.229 7.50194 20.9573C7.49165 20.6544 7.50047 20.3509 7.50047 20.0078H7.49998ZM3.28249 14.9834H16.6642C16.6642 13.8436 16.6892 12.723 16.6539 11.6043C16.6358 11.0366 16.5681 10.4562 16.4206 9.90908C15.5184 6.5618 12.3119 4.53079 8.86922 5.09602C6.0788 5.55439 3.82254 7.74276 3.45156 10.5483C3.25945 12.0023 3.33052 13.4907 3.28249 14.9829V14.9834ZM9.99539 16.6732C8.31202 16.6732 6.62865 16.6732 4.94528 16.6732C4.12981 16.6732 3.31385 16.6678 2.49839 16.6752C1.95785 16.6801 1.58638 17.1247 1.67116 17.6444C1.74124 18.0767 2.07448 18.3395 2.56699 18.3395C7.52154 18.3405 12.4761 18.34 17.4311 18.3395C17.4919 18.3395 17.5536 18.3425 17.6129 18.3327C17.9398 18.2807 18.1721 18.1067 18.2824 17.79C18.4862 17.2041 18.0883 16.6737 17.44 16.6732C14.9583 16.6713 12.4766 16.6722 9.9949 16.6722L9.99539 16.6732ZM9.16375 20.0205C9.16375 20.1151 9.16375 20.1911 9.16375 20.2671C9.16522 20.4921 9.15199 20.7181 9.1711 20.9411C9.20737 21.3578 9.55433 21.6642 9.97579 21.6735C10.4134 21.6829 10.7775 21.3907 10.8177 20.9578C10.8461 20.6519 10.8231 20.3411 10.8231 20.0205H9.16326H9.16375ZM9.16473 2.50812C9.16914 2.96648 9.53473 3.32729 9.99637 3.32876C10.4663 3.33023 10.8373 2.95422 10.83 2.4836C10.8226 2.02328 10.4575 1.66296 9.99833 1.66345C9.52591 1.66394 9.16032 2.03456 9.16522 2.50763L9.16473 2.50812Z" fill="white" fill-opacity="0.8"/>
</svg>
