<svg width="15" height="15" viewBox="0 0 15 15" fill="none" xmlns="http://www.w3.org/2000/svg">
<path d="M8.28153 14.1256H7.46096C7.42639 14.1187 7.39181 14.1049 7.35494 14.1026C6.26008 14.0242 5.23438 13.713 4.30087 13.1391C2.48687 12.0281 1.37127 10.4262 0.979427 8.32864C0.931023 8.06588 0.905668 7.79851 0.871094 7.53344V6.71287C0.880314 6.66447 0.889534 6.61606 0.896448 6.56766C0.940243 6.26571 0.965597 5.96146 1.03014 5.66412C1.39662 3.9838 2.25868 2.60544 3.62782 1.56821C5.33118 0.277435 7.25121 -0.151286 9.34181 0.286655C11.0175 0.634704 12.3774 1.51289 13.4193 2.8659C14.5441 4.32724 15.012 5.99142 14.8345 7.82386C14.6916 9.30825 14.1154 10.6175 13.1265 11.7377C12.0432 12.9639 10.6925 13.7269 9.07674 14.015C8.81397 14.0611 8.5466 14.0887 8.28153 14.1233V14.1256ZM11.4324 11.6155C8.74713 8.93254 6.06186 6.24727 3.37889 3.562C1.68474 5.61802 1.5718 8.96251 3.82374 11.1937C6.16558 13.5148 9.5239 13.2198 11.4324 11.6132V11.6155ZM12.3544 10.6935C14.037 8.68591 14.203 5.2838 11.8911 3.03186C9.41096 0.61396 6.00423 1.16023 4.30317 2.64693C6.98614 5.3299 9.66911 8.01287 12.3521 10.6958L12.3544 10.6935Z" fill="#FF0000"/>
</svg>
