<svg width="27" height="27" viewBox="0 0 27 27" fill="none" xmlns="http://www.w3.org/2000/svg">
<path d="M16.9445 0C17.4399 0.106381 17.9379 0.20112 18.4301 0.321262C19.0239 0.466809 19.1487 0.771662 18.8531 1.30622C18.4407 2.05195 18.0262 2.79662 17.599 3.56669C18.123 3.76675 18.5158 4.09648 18.6797 4.63845C18.8441 5.182 18.7347 5.68162 18.391 6.13414C20.9696 7.87223 22.2908 10.3174 22.514 13.4268C22.9279 13.1553 23.3261 12.8716 23.7464 12.6261C24.0155 12.4694 24.3068 12.3196 24.6071 12.2535C25.6202 12.0301 26.6734 12.6456 26.9187 13.6507C27.1106 14.4367 26.9806 15.1803 26.3371 15.7752C25.0391 16.9761 23.7559 18.1923 22.4664 19.4022C21.6775 20.1426 20.8818 20.8762 20.1009 21.6251C19.5114 22.1909 18.8235 22.4581 18.0051 22.4539C15.6486 22.4423 13.2921 22.4497 10.9356 22.4497C10.8399 22.4497 10.7437 22.4497 10.6125 22.4497C10.6612 22.5195 10.6908 22.5666 10.7246 22.61C10.9329 22.8773 10.9398 23.1266 10.7019 23.3669C9.5567 24.5233 8.40674 25.675 7.25096 26.8214C6.99348 27.0765 6.71378 27.0537 6.43832 26.7827C5.99314 26.3445 5.55431 25.8999 5.11284 25.458C3.50871 23.8522 1.90458 22.2464 0.300455 20.6407C-0.0981973 20.2416 -0.0997902 20.013 0.293575 19.6187C1.34995 18.5601 2.40738 17.5021 3.46429 16.4441C3.90788 16.0001 4.06968 15.9959 4.54341 16.4161C4.56244 16.433 4.58782 16.4426 4.62007 16.4616C5.1895 15.9662 5.7547 15.4655 6.32994 14.9765C6.98767 14.4171 7.73421 14.0138 8.56165 13.7671C8.71022 13.7227 8.76415 13.6634 8.77102 13.4983C8.90109 10.3995 10.2017 7.94527 12.7961 6.20876C12.8178 6.19447 12.8363 6.17542 12.8564 6.15848C12.1226 5.12272 12.5773 3.9557 13.6495 3.56087C13.4697 3.23749 13.2915 2.91782 13.1134 2.59761C12.8612 2.14457 12.6074 1.69205 12.3584 1.23741C12.1204 0.802889 12.2457 0.475277 12.72 0.354606C13.1874 0.235522 13.6632 0.1519 14.1349 0.05134C14.193 0.039167 14.2491 0.0174661 14.3062 0.000529778H16.9445V0ZM5.35023 17.2248C6.73071 18.6067 8.07788 19.9584 9.43298 21.3022C9.50012 21.3689 9.63707 21.3896 9.74175 21.3896C12.5117 21.3943 15.2816 21.3901 18.0516 21.3959C18.5539 21.397 18.9737 21.2366 19.338 20.8905C20.2569 20.0188 21.1842 19.1555 22.1084 18.2891C23.2631 17.2058 24.4168 16.1208 25.5742 15.0405C25.8639 14.7701 26.0294 14.4562 25.9469 14.0545C25.8005 13.3411 25.0354 13.0405 24.402 13.4543C22.7529 14.5303 21.1107 15.6159 19.4606 16.6903C19.3147 16.7855 19.3057 16.8914 19.3126 17.0417C19.3639 18.2082 18.5174 19.2228 17.378 19.264C16.0869 19.3112 14.7931 19.2831 13.5009 19.2752C13.1721 19.273 12.9421 18.9735 12.9949 18.667C13.042 18.3924 13.2609 18.2256 13.5929 18.2251C14.7799 18.223 15.9669 18.2267 17.1544 18.223C17.7946 18.2214 18.2647 17.7673 18.2631 17.1639C18.2615 16.5579 17.7946 16.1155 17.148 16.1118C16.5326 16.1086 15.9156 16.0874 15.3017 16.1176C14.6895 16.1478 14.1877 15.9551 13.6918 15.5963C12.1733 14.4975 10.5047 14.2488 8.71392 14.8209C7.3419 15.2591 6.43621 16.3372 5.35023 17.2243V17.2248ZM15.0976 15.1025C15.0976 14.9453 15.086 14.8484 15.0998 14.7558C15.1331 14.5362 15.0522 14.4224 14.8465 14.3165C14.6096 14.1948 14.3971 14.0106 14.2052 13.8217C13.9435 13.5639 13.9472 13.2458 14.1777 13.0288C14.4056 12.8145 14.7011 12.8526 14.9723 13.0987C15.1251 13.2374 15.3007 13.3686 15.4894 13.4438C15.7379 13.5427 16.0065 13.3866 16.1101 13.1357C16.2117 12.8912 16.1144 12.598 15.8728 12.4837C15.7659 12.4334 15.6369 12.4218 15.5164 12.4117C14.8661 12.3582 14.3062 11.9174 14.1137 11.2997C13.9234 10.689 14.0947 9.96493 14.6297 9.62356C15.0152 9.37798 15.1516 9.12023 15.1109 8.68359C15.085 8.40308 15.3488 8.19084 15.6227 8.18926C15.896 8.18767 16.1244 8.39461 16.1482 8.67936C16.1609 8.82808 16.1604 8.97892 16.1509 9.12817C16.1419 9.26684 16.1836 9.33882 16.3185 9.40709C16.5273 9.51294 16.7266 9.64949 16.9032 9.80351C17.1396 10.0094 17.1507 10.3121 16.9624 10.5344C16.7742 10.7567 16.4813 10.7842 16.2296 10.6027C16.1302 10.5307 16.0372 10.4476 15.9314 10.3873C15.7136 10.2634 15.491 10.2597 15.2927 10.427C15.1156 10.5762 15.0501 10.7715 15.131 10.9965C15.2187 11.2399 15.4043 11.3437 15.6581 11.3595C16.4448 11.4093 17.0142 11.8899 17.1729 12.6276C17.3246 13.3337 16.9899 13.9942 16.2973 14.379C16.2312 14.416 16.1709 14.5118 16.1593 14.5886C16.1376 14.7325 16.153 14.8823 16.153 15.0591C17.1401 15.0448 18.1388 14.9331 18.8362 15.8313C18.9346 15.7715 19.0096 15.7291 19.0815 15.682C19.7356 15.2528 20.3779 14.8045 21.0484 14.4023C21.3413 14.2265 21.4285 14.0095 21.4274 13.6973C21.4185 11.1812 20.444 9.10647 18.5021 7.5298C16.6568 6.03199 14.469 6.08968 12.6391 7.60919C11.3025 8.71958 10.4597 10.1443 10.0304 11.8195C9.89085 12.3635 9.80731 12.9166 9.82793 13.4951C11.6224 13.3554 13.2006 13.8481 14.6017 14.9363C14.7207 15.0284 14.902 15.04 15.0971 15.103L15.0976 15.1025ZM6.8465 25.6496C7.7469 24.7467 8.64466 23.8469 9.51599 22.9731C7.69033 21.145 5.84246 19.2942 4.03425 17.4836C3.15076 18.368 2.24824 19.2709 1.36317 20.1569C3.18037 21.977 5.02348 23.8231 6.84703 25.6496H6.8465ZM13.5633 1.23C13.9413 1.91116 14.3077 2.57856 14.6863 3.23908C14.7164 3.29148 14.8306 3.31688 14.9063 3.31794C15.3874 3.32482 15.8685 3.32535 16.3497 3.31794C16.4242 3.31688 16.5363 3.28777 16.5669 3.23431C16.945 2.57485 17.3109 1.90851 17.6894 1.2263C16.3015 0.933087 14.947 0.927796 13.5633 1.22895V1.23ZM15.7522 4.29072C15.2658 4.35106 14.9073 4.38493 14.5525 4.44368C14.3374 4.47914 14.1232 4.53947 13.917 4.61198C13.6204 4.71625 13.4845 5.01051 13.5829 5.29208C13.6738 5.55301 13.9265 5.67474 14.2216 5.59112C15.1579 5.32437 16.0937 5.31961 17.028 5.59482C17.2337 5.65569 17.4087 5.62869 17.5567 5.4715C17.8248 5.18676 17.7074 4.71201 17.3082 4.60881C16.7589 4.46644 16.1958 4.37964 15.7522 4.29125V4.29072Z" fill="#FAFF00"/>
</svg>
