<svg width="22" height="25" viewBox="0 0 22 25" fill="none" xmlns="http://www.w3.org/2000/svg">
<path d="M8.3856 20.8018C8.25467 20.8018 8.15836 20.8018 8.06255 20.8018C6.46282 20.8018 4.8631 20.8104 3.26338 20.7982C1.79308 20.7866 0.641316 19.5782 0.711545 18.1052C0.760706 17.0764 1.28843 16.3376 2.20342 15.8908C2.36645 15.8113 2.41561 15.7268 2.41461 15.5507C2.40608 14.4749 2.41009 13.3996 2.41059 12.3238C2.4126 8.38286 4.77983 5.13518 8.5075 3.95714C8.55716 3.94146 8.60331 3.91616 8.65046 3.89541C8.17993 2.41477 8.45483 1.34351 9.48619 0.616349C10.4032 -0.0303538 11.5996 -0.00353345 12.4955 0.683652C13.4592 1.42245 13.7185 2.53622 13.2299 3.8944C13.394 3.95107 13.5585 4.00724 13.7225 4.06442C17.1477 5.26118 19.4412 8.46939 19.4733 12.1219C19.4838 13.3404 19.4748 14.5589 19.4748 15.7618C19.7051 15.8984 19.9308 16.0087 20.1304 16.1544C21.0244 16.8067 21.3916 17.9437 21.061 18.9943C20.7324 20.0382 19.7683 20.7861 18.6862 20.7957C17.0775 20.8099 15.4692 20.8008 13.8605 20.8018C13.7546 20.8018 13.6488 20.8018 13.5023 20.8018C13.5023 21.1064 13.5073 21.3984 13.5013 21.6899C13.4732 23.1432 12.2964 24.2772 10.8557 24.2423C9.55491 24.2109 8.43225 23.0946 8.38761 21.782C8.37707 21.4692 8.3861 21.156 8.3861 20.8018H8.3856ZM4.06851 15.6155H17.7662C17.7662 14.439 17.7918 13.2822 17.7557 12.1275C17.7371 11.5415 17.6679 10.9423 17.5169 10.3776C16.5934 6.92247 13.3112 4.82599 9.78718 5.40944C6.93085 5.88258 4.62131 8.14149 4.24157 11.0375C4.04493 12.5384 4.11767 14.0747 4.06851 15.615V15.6155ZM10.9399 17.3598C9.21681 17.3598 7.49369 17.3598 5.77056 17.3598C4.93584 17.3598 4.10061 17.3542 3.26589 17.3618C2.71258 17.3669 2.33234 17.8258 2.41912 18.3622C2.49086 18.8085 2.83197 19.0798 3.33611 19.0798C8.40767 19.0808 13.4792 19.0803 18.5513 19.0798C18.6135 19.0798 18.6767 19.0828 18.7374 19.0727C19.072 19.0191 19.3098 18.8394 19.4226 18.5125C19.6313 17.9078 19.224 17.3603 18.5603 17.3598C16.02 17.3578 13.4797 17.3588 10.9394 17.3588L10.9399 17.3598ZM10.0887 20.8149C10.0887 20.9126 10.0887 20.991 10.0887 21.0695C10.0902 21.3017 10.0766 21.535 10.0962 21.7653C10.1333 22.1954 10.4885 22.5117 10.9199 22.5213C11.3678 22.5309 11.7406 22.2293 11.7817 21.7825C11.8108 21.4667 11.7872 21.1459 11.7872 20.8149H10.0882H10.0887ZM10.0897 2.73812C10.0942 3.21126 10.4684 3.5837 10.9409 3.58521C11.422 3.58673 11.8018 3.19861 11.7942 2.71282C11.7867 2.23766 11.413 1.86573 10.943 1.86624C10.4594 1.86674 10.0852 2.2493 10.0902 2.73762L10.0897 2.73812Z" fill="white" fill-opacity="0.8"/>
</svg>
