<svg width="8" height="7" viewBox="0 0 8 7" fill="none" xmlns="http://www.w3.org/2000/svg">
<path d="M7.59976 5.11827e-07L0.399555 1.14129e-06C0.326656 0.000268176 0.2552 0.0237662 0.192878 0.0679657C0.130556 0.112165 0.079729 0.175391 0.0458664 0.250839C0.0120038 0.326288 -0.00361119 0.411103 0.000702289 0.496152C0.00501529 0.5812 0.0290937 0.663264 0.0703453 0.733509L3.67045 6.81101C3.81965 7.063 4.17886 7.063 4.32847 6.81101L7.92857 0.733509C7.97024 0.66341 7.99468 0.581305 7.99922 0.496114C8.00377 0.410923 7.98826 0.325905 7.95436 0.250297C7.92047 0.174688 7.8695 0.111381 7.80698 0.0672531C7.74446 0.0231257 7.67279 -0.000133963 7.59976 5.11827e-07Z" fill="#FAFF00"/>
</svg>
