<svg width="21" height="21" viewBox="0 0 21 21" fill="none" xmlns="http://www.w3.org/2000/svg">
<path d="M10.6987 0.452926C5.38814 0.452925 0.974141 4.89455 0.974141 10.2591C0.97414 15.6142 5.39791 20.0653 10.7085 20.0653C16.028 20.0653 20.4229 15.6143 20.4229 10.2591C20.4229 4.89455 16.0186 0.452926 10.6987 0.452926ZM10.7076 8.81686C11.2133 8.81686 11.4895 9.11507 11.509 9.62495L11.6424 14.3734C11.6616 14.9026 11.2613 15.2771 10.7178 15.2771C10.1837 15.2771 9.77408 14.8927 9.79279 14.364L9.92662 9.62413C9.94574 9.10523 10.2317 8.81645 10.7081 8.81645M10.7081 5.27849C11.2613 5.27849 11.7763 5.72069 11.7763 6.31711C11.7763 6.91354 11.2706 7.35491 10.7081 7.35491C10.1552 7.35491 9.64066 6.92257 9.64066 6.31711C9.64066 5.71125 10.165 5.27849 10.7081 5.27849Z" fill="#FAFF00"/>
</svg>
