<svg width="20" height="20" viewBox="0 0 20 20" fill="none" xmlns="http://www.w3.org/2000/svg">
<path d="M12.5515 0C12.9184 0.0787462 13.2873 0.148874 13.652 0.237806C14.0918 0.345543 14.1842 0.571204 13.9653 0.966894C13.6598 1.5189 13.3527 2.07013 13.0363 2.64015C13.4244 2.78824 13.7154 3.03232 13.8368 3.43349C13.9586 3.83584 13.8775 4.20568 13.623 4.54064C15.533 5.82722 16.5117 7.63721 16.677 9.93887C16.9837 9.73789 17.2786 9.5279 17.5899 9.34612C17.7893 9.23015 18.0051 9.11928 18.2275 9.07031C18.9779 8.90498 19.7581 9.36061 19.9398 10.1046C20.0819 10.6864 19.9856 11.2368 19.509 11.6772C18.5475 12.5661 17.597 13.4664 16.6418 14.362C16.0574 14.9101 15.468 15.4531 14.8896 16.0074C14.4529 16.4262 13.9433 16.6241 13.3371 16.6209C11.5915 16.6123 9.84598 16.6178 8.10043 16.6178C8.02955 16.6178 7.95827 16.6178 7.86115 16.6178C7.89718 16.6695 7.9191 16.7044 7.94417 16.7365C8.09848 16.9344 8.10357 17.1189 7.92733 17.2967C7.07904 18.1528 6.22721 19.0053 5.37108 19.8538C5.18035 20.0427 4.97317 20.0258 4.76913 19.8252C4.43936 19.5009 4.11431 19.1718 3.78729 18.8446C2.59904 17.656 1.4108 16.4674 0.222559 15.2787C-0.0727387 14.9833 -0.0739186 14.8141 0.217463 14.5222C0.999964 13.7387 1.78325 12.9555 2.56614 12.1724C2.89473 11.8437 3.01458 11.8405 3.36549 12.1516C3.37959 12.1641 3.39838 12.1712 3.42227 12.1853C3.84407 11.8186 4.26274 11.448 4.68885 11.086C5.17605 10.6719 5.72905 10.3733 6.34197 10.1908C6.45202 10.1579 6.49196 10.114 6.49705 9.99176C6.5934 7.69793 7.55683 5.88128 9.47862 4.59588C9.49468 4.5853 9.50839 4.5712 9.52327 4.55866C8.97967 3.79196 9.31649 2.92811 10.1107 2.63584C9.97758 2.39647 9.84559 2.15984 9.71361 1.92282C9.52679 1.58746 9.33881 1.2525 9.15435 0.915964C8.97811 0.594319 9.07092 0.351812 9.42223 0.262488C9.76844 0.174339 10.1209 0.11244 10.4703 0.0380032C10.5133 0.0289924 10.5549 0.0129289 10.5972 0.000392155H12.5515V0ZM3.96313 12.7502C4.98571 13.7731 5.98361 14.7737 6.98739 15.7684C7.03713 15.8178 7.13857 15.8331 7.21611 15.8331C9.26793 15.8366 11.3197 15.8335 13.3715 15.8378C13.7436 15.8386 14.0546 15.7199 14.3244 15.4636C15.0051 14.8184 15.692 14.1794 16.3766 13.5381C17.232 12.7361 18.0865 11.933 18.9438 11.1334C19.1585 10.9332 19.281 10.7009 19.2199 10.4035C19.1115 9.8754 18.5447 9.65288 18.0756 9.95924C16.854 10.7557 15.6376 11.5592 14.4153 12.3545C14.3072 12.4251 14.3005 12.5034 14.3056 12.6147C14.3436 13.4781 13.7166 14.2292 12.8726 14.2597C11.9162 14.2946 10.9579 14.2738 10.0007 14.268C9.75708 14.2664 9.58671 14.0446 9.62588 13.8178C9.66073 13.6145 9.82288 13.4911 10.0688 13.4907C10.9481 13.4891 11.8273 13.4919 12.7069 13.4891C13.1812 13.4879 13.5294 13.1518 13.5282 12.7052C13.527 12.2566 13.1812 11.9291 12.7022 11.9263C12.2464 11.924 11.7893 11.9083 11.3346 11.9306C10.8811 11.953 10.5094 11.8104 10.1421 11.5447C9.01727 10.7314 7.78125 10.5473 6.45475 10.9708C5.43844 11.2952 4.76757 12.0932 3.96313 12.7498V12.7502ZM11.1834 11.1792C11.1834 11.0629 11.1748 10.9912 11.185 10.9226C11.2097 10.76 11.1498 10.6758 10.9974 10.5974C10.822 10.5073 10.6645 10.371 10.5224 10.2311C10.3285 10.0403 10.3312 9.80488 10.502 9.64426C10.6708 9.48559 10.8897 9.5138 11.0906 9.69597C11.2038 9.79862 11.3338 9.89577 11.4737 9.9514C11.6577 10.0247 11.8567 9.9091 11.9334 9.7234C12.0086 9.5424 11.9366 9.32536 11.7576 9.24073C11.6785 9.20352 11.5829 9.19489 11.4936 9.18745C11.0119 9.14788 10.5972 8.82154 10.4546 8.36434C10.3136 7.91223 10.4405 7.37629 10.8368 7.1236C11.1223 6.94181 11.2234 6.75102 11.1932 6.42781C11.174 6.22017 11.3695 6.06307 11.5723 6.06189C11.7748 6.06072 11.944 6.2139 11.9616 6.42467C11.971 6.53476 11.9706 6.64642 11.9636 6.7569C11.9569 6.85954 11.9879 6.91282 12.0877 6.96336C12.2424 7.04172 12.3901 7.14279 12.5209 7.2568C12.696 7.4092 12.7042 7.63329 12.5648 7.79783C12.4253 7.96238 12.2084 7.98275 12.022 7.84837C11.9483 7.79509 11.8794 7.73358 11.8011 7.68892C11.6397 7.59725 11.4748 7.5945 11.328 7.7183C11.1968 7.82878 11.1482 7.97335 11.2081 8.13985C11.2731 8.32007 11.4106 8.39685 11.5986 8.40861C12.1813 8.44543 12.6031 8.80116 12.7206 9.34729C12.833 9.86992 12.5851 10.3588 12.0721 10.6437C12.0231 10.6711 11.9785 10.742 11.9699 10.7988C11.9538 10.9054 11.9652 11.0162 11.9652 11.1471C12.6964 11.1365 13.4362 11.0539 13.9527 11.7187C14.0256 11.6744 14.0812 11.6431 14.1345 11.6082C14.6189 11.2905 15.0948 10.9587 15.5914 10.6609C15.8083 10.5308 15.873 10.3702 15.8722 10.1391C15.8655 8.27658 15.1437 6.74083 13.7052 5.57374C12.3384 4.46503 10.7178 4.50773 9.3623 5.63251C8.37223 6.45445 7.74796 7.5091 7.42995 8.74906C7.32655 9.1518 7.26467 9.5612 7.27995 9.98941C8.60918 9.88598 9.77823 10.2507 10.8161 11.0562C10.9042 11.1244 11.0385 11.133 11.183 11.1796L11.1834 11.1792ZM5.07148 18.9865C5.73845 18.3181 6.40346 17.6521 7.04888 17.0053C5.69654 15.6521 4.32775 14.2821 2.98833 12.9418C2.3339 13.5965 1.66536 14.2648 1.00975 14.9206C2.35583 16.268 3.7211 17.6344 5.07187 18.9865H5.07148ZM10.0469 0.910478C10.3269 1.41469 10.5983 1.90871 10.8787 2.39765C10.9011 2.43643 10.9857 2.45524 11.0417 2.45602C11.3981 2.46111 11.7545 2.46151 12.1109 2.45602C12.1661 2.45524 12.2491 2.43369 12.2718 2.39412C12.5518 1.90597 12.8229 1.41273 13.1033 0.907736C12.0752 0.690694 11.0718 0.686778 10.0469 0.909696V0.910478ZM11.6683 3.1761C11.308 3.22076 11.0425 3.24583 10.7797 3.28932C10.6203 3.31557 10.4616 3.36023 10.3089 3.4139C10.0892 3.49108 9.98854 3.70891 10.0614 3.91733C10.1288 4.11047 10.316 4.20058 10.5345 4.13868C11.2281 3.94123 11.9213 3.9377 12.6133 4.14143C12.7657 4.18648 12.8953 4.1665 13.005 4.05014C13.2035 3.83937 13.1166 3.48795 12.8209 3.41155C12.414 3.30617 11.9969 3.24192 11.6683 3.17649V3.1761Z" fill="white" fill-opacity="0.8"/>
</svg>
