<svg width="15" height="11" viewBox="0 0 15 11" fill="none" xmlns="http://www.w3.org/2000/svg">
<path d="M14.2495 6.56066e-08L0.749165 1.24585e-06C0.612479 0.000420874 0.478499 0.0373472 0.361647 0.106802C0.244793 0.176258 0.149491 0.275614 0.0859986 0.394176C0.0225068 0.512739 -0.00677199 0.646017 0.00131613 0.779666C0.0094033 0.913315 0.0545503 1.04227 0.131897 1.15266L6.88209 10.703C7.16185 11.099 7.83537 11.099 8.11587 10.703L14.8661 1.15266C14.9442 1.0425 14.99 0.913479 14.9985 0.779608C15.0071 0.645737 14.978 0.512136 14.9144 0.393323C14.8509 0.274509 14.7553 0.175026 14.6381 0.105683C14.5209 0.0363398 14.3865 -0.000210708 14.2495 6.56066e-08Z" fill="#FAFF00"/>
</svg>
