<svg width="36" height="36" viewBox="0 0 36 36" fill="none" xmlns="http://www.w3.org/2000/svg">
<path d="M22.5926 0C23.2532 0.141842 23.9172 0.268159 24.5735 0.428349C25.3652 0.622412 25.5316 1.02888 25.1375 1.74162C24.5876 2.73593 24.0349 3.72882 23.4653 4.75559C24.1639 5.02234 24.6877 5.46198 24.9063 6.18459C25.1255 6.90933 24.9796 7.57549 24.5214 8.17885C27.9594 10.4963 29.7211 13.7566 30.0186 17.9024C30.5706 17.5404 31.1014 17.1622 31.6619 16.8347C32.0207 16.6259 32.4091 16.4261 32.8095 16.3379C34.1602 16.0401 35.5645 16.8608 35.8916 18.2009C36.1475 19.2489 35.9741 20.2404 35.1161 21.0335C33.3855 22.6347 31.6745 24.2564 29.9552 25.8696C28.9034 26.8568 27.8424 27.8349 26.8012 28.8334C26.0152 29.5878 25.098 29.9442 24.0067 29.9385C20.8648 29.923 17.7228 29.9329 14.5808 29.9329C14.4532 29.9329 14.3249 29.9329 14.1501 29.9329C14.2149 30.026 14.2544 30.0888 14.2995 30.1467C14.5773 30.5031 14.5864 30.8355 14.2692 31.1558C12.7423 32.6978 11.209 34.2333 9.66795 35.7618C9.32464 36.102 8.95171 36.0716 8.58442 35.7103C7.99085 35.126 7.40575 34.5332 6.81711 33.944C4.67828 31.8029 2.53944 29.6619 0.400607 27.5209C-0.13093 26.9888 -0.133053 26.6839 0.391433 26.1582C1.79993 24.7468 3.20984 23.3362 4.61905 21.9255C5.21051 21.3335 5.42623 21.3278 6.05787 21.8881C6.08325 21.9107 6.11709 21.9234 6.16009 21.9488C6.91933 21.2883 7.67293 20.6207 8.43992 19.9687C9.31689 19.2228 10.3123 18.685 11.4155 18.3562C11.6136 18.2969 11.6855 18.2179 11.6947 17.9977C11.8681 13.8659 13.6023 10.5937 17.0615 8.27835C17.0904 8.2593 17.1151 8.23389 17.1419 8.21131C16.1634 6.83029 16.7697 5.27427 18.1993 4.74783C17.9596 4.31666 17.7221 3.89042 17.4845 3.46349C17.1482 2.85942 16.8099 2.25606 16.4778 1.64988C16.1606 1.07052 16.3277 0.633703 16.96 0.472807C17.5832 0.314029 18.2176 0.202533 18.8465 0.0684533C18.924 0.0522227 18.9987 0.0232882 19.0749 0.000706371L22.5926 0ZM7.13364 22.9664C8.97428 24.8089 10.7705 26.6113 12.5773 28.403C12.6668 28.4919 12.8494 28.5194 12.989 28.5194C16.6823 28.5258 20.3755 28.5201 24.0688 28.5279C24.7385 28.5293 25.2982 28.3155 25.7839 27.854C27.0092 26.6917 28.2456 25.5407 29.4779 24.3855C31.0175 22.941 32.5557 21.4944 34.0989 20.0541C34.4852 19.6935 34.7059 19.275 34.5959 18.7394C34.4006 17.7881 33.3805 17.3873 32.536 17.9391C30.3372 19.3738 28.1476 20.8211 25.9475 22.2537C25.7529 22.3807 25.7409 22.5218 25.7501 22.7222C25.8185 24.2776 24.6898 25.6304 23.1707 25.6854C21.4492 25.7482 19.7241 25.7108 18.0012 25.7002C17.5627 25.6974 17.2561 25.298 17.3266 24.8894C17.3893 24.5231 17.6812 24.3009 18.1239 24.3001C19.7065 24.2973 21.2891 24.3023 22.8725 24.2973C23.7262 24.2952 24.3529 23.6897 24.3508 22.8853C24.3487 22.0772 23.7262 21.4873 22.864 21.4824C22.0434 21.4781 21.2208 21.4499 20.4023 21.4901C19.586 21.5303 18.917 21.2735 18.2557 20.795C16.2311 19.33 14.0062 18.9984 11.6186 19.7612C9.7892 20.3455 8.58162 21.7837 7.13364 22.9664ZM20.1302 20.1366C20.1302 19.927 20.1147 19.7979 20.133 19.6744C20.1774 19.3815 20.0696 19.2298 19.7953 19.0887C19.4795 18.9264 19.1961 18.6808 18.9402 18.4289C18.5913 18.0852 18.5962 17.6611 18.9036 17.3718C19.2074 17.086 19.6015 17.1368 19.9631 17.4649C20.1669 17.6498 20.4009 17.8248 20.6526 17.925C20.9839 18.057 21.342 17.8488 21.4802 17.5143C21.6155 17.1883 21.4858 16.7973 21.1637 16.6449C21.0213 16.5779 20.8493 16.5623 20.6885 16.5489C19.8214 16.4777 19.0749 15.8898 18.8183 15.0663C18.5645 14.2519 18.7929 13.2866 19.5063 12.8314C20.0202 12.504 20.2021 12.1603 20.1478 11.5781C20.1133 11.2041 20.4651 10.9211 20.8302 10.919C21.1947 10.9169 21.4992 11.1928 21.5309 11.5725C21.5479 11.7708 21.5472 11.9719 21.5345 12.1709C21.5225 12.3558 21.5782 12.4518 21.7579 12.5428C22.0364 12.6839 22.3022 12.866 22.5376 13.0713C22.8527 13.3459 22.8675 13.7495 22.6166 14.0459C22.3656 14.3423 21.9751 14.379 21.6395 14.1369C21.507 14.0409 21.3829 13.9301 21.2419 13.8497C20.9515 13.6846 20.6547 13.6796 20.3903 13.9026C20.1542 14.1016 20.0668 14.362 20.1746 14.6619C20.2916 14.9866 20.5391 15.1249 20.8774 15.146C21.9264 15.2124 22.6857 15.8531 22.8971 16.8369C23.0995 17.7782 22.6532 18.6589 21.7297 19.172C21.6416 19.2214 21.5613 19.3491 21.5457 19.4514C21.5168 19.6433 21.5373 19.8431 21.5373 20.0788C22.8534 20.0597 24.1851 19.9108 25.1149 21.1083C25.2461 21.0286 25.3462 20.9721 25.442 20.9093C26.3141 20.337 27.1706 19.7393 28.0645 19.203C28.455 18.9687 28.5713 18.6794 28.5699 18.263C28.5579 14.9082 27.2587 12.142 24.6694 10.0397C22.2091 8.04265 19.292 8.11957 16.8521 10.1456C15.07 11.6261 13.9463 13.5258 13.3739 15.7593C13.1878 16.4847 13.0764 17.2222 13.1039 17.9935C15.4965 17.8072 17.6008 18.4642 19.4689 19.915C19.6276 20.0378 19.8701 20.0526 20.1302 20.1366ZM9.12866 34.1994C10.3292 32.9955 11.5262 31.7959 12.688 30.6308C10.2538 28.1934 7.78994 25.7256 5.37899 23.3115C4.20101 24.4907 2.99765 25.6946 1.81756 26.8759C4.24049 29.3027 6.69727 31.7641 9.12866 34.1994ZM18.0844 1.64C18.5885 2.54822 19.077 3.43808 19.5817 4.31877C19.6219 4.38863 19.7742 4.42251 19.875 4.42392C20.5165 4.43309 21.158 4.4338 21.7995 4.42392C21.8989 4.42251 22.0484 4.38369 22.0893 4.31242C22.5933 3.43314 23.0811 2.54469 23.5859 1.63506C21.7354 1.24412 19.9293 1.23706 18.0844 1.63859V1.64ZM21.0029 5.72096C20.3544 5.80141 19.8764 5.84657 19.4034 5.9249C19.1165 5.97218 18.831 6.05263 18.556 6.14931C18.1606 6.28833 17.9794 6.68069 18.1105 7.05611C18.2318 7.40401 18.5687 7.56632 18.9621 7.45482C20.2106 7.09916 21.4583 7.09281 22.704 7.45976C22.9782 7.54091 23.2116 7.50492 23.4089 7.29534C23.7664 6.91568 23.6099 6.28268 23.0776 6.14508C22.3452 5.95525 21.5944 5.83881 21.0029 5.72096Z" fill="black"/>
</svg>
